<?xml version="1.0" encoding="utf-8"?>
<!-- Generator: Adobe Illustrator 19.2.1, SVG Export Plug-In . SVG Version: 6.00 Build 0)  -->
<svg version="1.1" id="Layer_1" xmlns="http://www.w3.org/2000/svg" xmlns:xlink="http://www.w3.org/1999/xlink" x="0px" y="0px"
	 viewBox="0 0 200.1 200.1" style="enable-background:new 0 0 200.1 200.1;" xml:space="preserve">
<style type="text/css">
	.st0{fill:#324152;}
	.st1{fill:#F16A6F;}
</style>
<title>icon-medal</title>
<path class="st0" d="M100,0C44.8,0,0,44.8,0,100s44.8,100,100,100s100-44.8,100-100S155.3,0,100,0z"/>
<path class="st1" d="M115.4,88.2c2.4-5.6,9.8-23.6,9.8-27.4v-15H74.8v15c0,3.8,7.4,21.9,9.7,27.4c-17.3,8.6-24.3,29.5-15.7,46.8
	s29.5,24.3,46.8,15.7s24.3-29.5,15.7-46.8C127.9,97.1,122.3,91.5,115.4,88.2z M78.7,60.8V49.7H98v26.5h3.9V49.7h19.5v11.1
	c0,2.1-4.8,14.6-9.5,25.9c-7.7-2.8-16.1-2.8-23.8,0C84,77,78.7,63.1,78.7,60.8z M100,150.4c-17.1,0-31-13.9-31-31s13.9-31,31-31
	s31,13.9,31,31S117.2,150.4,100,150.4L100,150.4z"/>
<path class="st1" d="M100,96.2c-12.8,0-23.3,10.4-23.3,23.3s10.4,23.3,23.3,23.3s23.3-10.4,23.3-23.3S112.9,96.2,100,96.2
	C100,96.2,100,96.2,100,96.2z M100,138.8c-10.7,0-19.4-8.7-19.4-19.4c0-10.7,8.7-19.4,19.4-19.4c10.7,0,19.4,8.7,19.4,19.4
	c0,0,0,0,0,0C119.4,130.1,110.7,138.8,100,138.8L100,138.8z"/>
</svg>
