<svg id="Layer_1" data-name="Layer 1" xmlns="http://www.w3.org/2000/svg" viewBox="0 0 192.86 192.85"><defs><style>.cls-1{fill:#fff;}</style></defs><title>icon-categories</title><path class="cls-1" d="M28.73,146.12a25.15,25.15,0,1,0,25.16,25.15A25.15,25.15,0,0,0,28.73,146.12Zm0,41.92A16.77,16.77,0,1,1,45.5,171.27,16.79,16.79,0,0,1,28.73,188Z" transform="translate(-3.57 -3.57)"/><path class="cls-1" d="M28.73,3.57A25.15,25.15,0,1,0,53.88,28.72,25.15,25.15,0,0,0,28.73,3.57Zm0,41.92A16.77,16.77,0,1,1,45.5,28.72,16.79,16.79,0,0,1,28.73,45.49Z" transform="translate(-3.57 -3.57)"/><path class="cls-1" d="M28.73,74.67A25.15,25.15,0,1,0,53.88,99.82,25.15,25.15,0,0,0,28.73,74.67Zm0,41.92A16.77,16.77,0,1,1,45.5,99.82,16.79,16.79,0,0,1,28.73,116.59Z" transform="translate(-3.57 -3.57)"/><path class="cls-1" d="M100,146.12a25.15,25.15,0,1,0,25.16,25.15A25.15,25.15,0,0,0,100,146.12ZM100,188a16.77,16.77,0,1,1,16.77-16.77A16.79,16.79,0,0,1,100,188Z" transform="translate(-3.57 -3.57)"/><path class="cls-1" d="M100,3.57a25.15,25.15,0,1,0,25.16,25.15A25.15,25.15,0,0,0,100,3.57Zm0,41.92a16.77,16.77,0,1,1,16.77-16.77A16.79,16.79,0,0,1,100,45.49Z" transform="translate(-3.57 -3.57)"/><path class="cls-1" d="M100,74.67a25.15,25.15,0,1,0,25.16,25.15A25.15,25.15,0,0,0,100,74.67Zm0,41.92a16.77,16.77,0,1,1,16.77-16.77A16.79,16.79,0,0,1,100,116.59Z" transform="translate(-3.57 -3.57)"/><path class="cls-1" d="M171.27,146.12a25.15,25.15,0,1,0,25.16,25.15A25.15,25.15,0,0,0,171.27,146.12Zm0,41.92A16.77,16.77,0,1,1,188,171.27,16.79,16.79,0,0,1,171.27,188Z" transform="translate(-3.57 -3.57)"/><path class="cls-1" d="M171.27,53.88a25.15,25.15,0,1,0-25.16-25.16A25.16,25.16,0,0,0,171.27,53.88Zm0-41.92A16.77,16.77,0,1,1,154.5,28.72,16.79,16.79,0,0,1,171.27,12Z" transform="translate(-3.57 -3.57)"/><path class="cls-1" d="M171.27,74.67a25.15,25.15,0,1,0,25.16,25.15A25.15,25.15,0,0,0,171.27,74.67Zm0,41.92A16.77,16.77,0,1,1,188,99.82,16.79,16.79,0,0,1,171.27,116.59Z" transform="translate(-3.57 -3.57)"/></svg>