<svg id="Layer_1" data-name="Layer 1" xmlns="http://www.w3.org/2000/svg" viewBox="0 0 199.71 199.71"><defs><style>.cls-1{fill:#324152;}.cls-2{fill:#8fd3d4;}</style></defs><title>icon_microphone</title><path class="cls-1" d="M99.86,0.29a99.86,99.86,0,1,0,99.85,99.86A99.86,99.86,0,0,0,99.86.29Zm0,191.72a91.87,91.87,0,1,1,91.86-91.87A92,92,0,0,1,99.86,192Z" transform="translate(0 -0.29)"/><path class="cls-2" d="M143.58,61.15A25.4,25.4,0,0,0,102.17,76a25.34,25.34,0,0,0-.07,8.68q0.19,1.16.49,2.3l-0.19-.17-29,32.15a8.66,8.66,0,0,0,.36,12l1.22,1.2a8.64,8.64,0,0,0,11.64.48l33.26-27.76a25.39,25.39,0,0,0,23.67-43.69m-59,69a5.46,5.46,0,0,1-7.36-.3L76,128.65a5.47,5.47,0,0,1-.23-7.57l27.87-30.93a25.18,25.18,0,0,0,12.8,13.42ZM149,84.5a22.26,22.26,0,0,1-14.36,16.93,22.5,22.5,0,0,1-21.85-4A22.21,22.21,0,1,1,149,84.5" transform="translate(0 -0.29)"/><path class="cls-2" d="M127.81,97.2a16.25,16.25,0,0,1-3.24-.78,1.6,1.6,0,0,0-1.06,3,19.67,19.67,0,0,0,3.87.93h0.22a1.6,1.6,0,0,0,.21-3.18" transform="translate(0 -0.29)"/><path class="cls-2" d="M71.37,131.45l-5.51,5.4a9.11,9.11,0,1,1-12.77-13L71.34,106A12.31,12.31,0,1,0,54.1,88.45l-5.5,5.41a1.6,1.6,0,0,0,2.24,2.28l5.5-5.41a9.11,9.11,0,0,1,12.77,13L50.86,121.57A12.31,12.31,0,0,0,68.1,139.13l5.5-5.4a1.6,1.6,0,0,0-2.24-2.28" transform="translate(0 -0.29)"/><path class="cls-2" d="M99.35,104.91L77.1,125.32a1.6,1.6,0,0,0,2.16,2.35l22.25-20.41a1.6,1.6,0,0,0-2.16-2.35" transform="translate(0 -0.29)"/><path class="cls-2" d="M104.35,99.94l-1.84,1.73A1.6,1.6,0,0,0,104.7,104l1.84-1.73a1.6,1.6,0,0,0-2.19-2.32" transform="translate(0 -0.29)"/><path class="cls-2" d="M139.2,65.1a1.6,1.6,0,1,0-2.07,2.43A16.68,16.68,0,0,1,132,96,1.6,1.6,0,0,0,133,99,19.88,19.88,0,0,0,139.2,65.1" transform="translate(0 -0.29)"/></svg>