<svg id="Layer_1" data-name="Layer 1" xmlns="http://www.w3.org/2000/svg" viewBox="0 0 184.44 184.44"><defs><style>.cls-1{fill:#f16a6f;}</style></defs><title>icon-categories-pnk</title><path class="cls-1" d="M28.26,140.2a24.05,24.05,0,1,0,24.06,24.05A24.05,24.05,0,0,0,28.26,140.2h0Zm0,40.09a16,16,0,1,1,16-16h0a16.06,16.06,0,0,1-16,16v0Z" transform="translate(-4.21 -3.87)"/><path class="cls-1" d="M28.26,3.87A24.05,24.05,0,1,0,52.32,27.92,24.05,24.05,0,0,0,28.26,3.87h0Zm0,40.09a16,16,0,1,1,16-16h0A16.06,16.06,0,0,1,28.26,44Z" transform="translate(-4.21 -3.87)"/><path class="cls-1" d="M28.26,71.87A24.05,24.05,0,1,0,52.32,95.92,24.05,24.05,0,0,0,28.26,71.87h0Zm0,40.09a16,16,0,1,1,16-16h0A16.06,16.06,0,0,1,28.26,112Z" transform="translate(-4.21 -3.87)"/><path class="cls-1" d="M96.43,140.2a24.05,24.05,0,1,0,24.06,24.05A24.05,24.05,0,0,0,96.43,140.2h0Zm0,40.05a16,16,0,1,1,16-16A16,16,0,0,1,96.43,180.26Z" transform="translate(-4.21 -3.87)"/><path class="cls-1" d="M96.43,3.87a24.05,24.05,0,1,0,24.06,24.05A24.05,24.05,0,0,0,96.43,3.87h0Zm0,40.09a16,16,0,1,1,16-16A16,16,0,0,1,96.43,44Z" transform="translate(-4.21 -3.87)"/><path class="cls-1" d="M96.43,71.87a24.05,24.05,0,1,0,24.06,24.05A24.05,24.05,0,0,0,96.43,71.87h0Zm0,40.09a16,16,0,1,1,16-16A16,16,0,0,1,96.43,112Z" transform="translate(-4.21 -3.87)"/><path class="cls-1" d="M164.59,140.2a24.05,24.05,0,1,0,24.06,24.05,24.05,24.05,0,0,0-24.06-24.05h0Zm0,40.09a16,16,0,1,1,16-16.08v0a16.06,16.06,0,0,1-16,16v0Z" transform="translate(-4.21 -3.87)"/><path class="cls-1" d="M164.59,52a24.05,24.05,0,1,0-24.06-24.06A24.05,24.05,0,0,0,164.59,52h0Zm0-40.09a16,16,0,1,1-16,16h0a16.06,16.06,0,0,1,16-16v0Z" transform="translate(-4.21 -3.87)"/><path class="cls-1" d="M164.59,71.87a24.05,24.05,0,1,0,24.06,24.05,24.05,24.05,0,0,0-24.06-24.05h0Zm0,40.09a16,16,0,1,1,16-16.08v0A16.06,16.06,0,0,1,164.59,112Z" transform="translate(-4.21 -3.87)"/></svg>