<svg id="Layer_1" data-name="Layer 1" xmlns="http://www.w3.org/2000/svg" viewBox="0 0 200.27 200.27"><defs><style>.cls-1{fill:#324152;}.cls-2{fill:#afd476;}</style></defs><title>icon-map-pin</title><path class="cls-1" d="M100.14,0A100.13,100.13,0,1,0,200.27,100.13,100.13,100.13,0,0,0,100.14,0Zm0,192.26a92.12,92.12,0,1,1,92.12-92.12A92.23,92.23,0,0,1,100.14,192.26Z"/><path class="cls-2" d="M114,101.2l-11.89-6.79V70.33a13.87,13.87,0,1,0-4,0v21.8L86.27,85.35,54.56,98.24v48.55l31.7-12.88L114,149.75l31.7-15.85V85.35Zm-31.7,30L58.53,140.9v-40L82.3,91.24v40Zm7.88-74.61a9.91,9.91,0,1,1,9.91,9.91A9.92,9.92,0,0,1,90.18,56.63ZM114,145.32L86.27,129.47V89.78l11.89,6.79v17.51h4V98.84L114,105.63v39.69Zm27.74-13.87L118,143.34V103.65l23.78-11.89v39.69Z"/></svg>