<?xml version="1.0" encoding="utf-8"?>
<!-- Generator: Adobe Illustrator 19.2.1, SVG Export Plug-In . SVG Version: 6.00 Build 0)  -->
<svg version="1.1" id="Layer_1" xmlns="http://www.w3.org/2000/svg" xmlns:xlink="http://www.w3.org/1999/xlink" x="0px" y="0px"
	 viewBox="0 0 200.1 200.1" style="enable-background:new 0 0 200.1 200.1;" xml:space="preserve">
<style type="text/css">
	.st0{fill:#324152;}
	.st1{fill:#F16A6F;}
</style>
<title>icon-medal</title>
<path class="st0" d="M100,0.5c-55.1,0-99.8,44.7-99.8,99.8c0,55.1,44.7,99.8,99.8,99.8c55.1,0,99.8-44.7,99.8-99.8
	C199.8,45.2,155.2,0.5,100,0.5z"/>
<path class="st1" d="M129.5,92.9c0-16.3-13.2-29.5-29.5-29.5S70.5,76.6,70.5,92.9c0,9.6,4.6,18.1,11.7,23.5l0,0
	c0.1,0.1,0.3,0.2,0.4,0.3c0,0,0,0,0,0c2.3,1.8,5.6,6,5.6,11.6v20.7h23.6v-20.7c0-5.9,3.4-10.1,5.9-11.8l0,0
	C124.9,111,129.5,102.5,129.5,92.9z M91.1,146v-8.9h17.7v8.9H91.1z M100,95.8c-1.6,0-2.9-1.3-2.9-2.9c0-1.6,1.3-3,2.9-3
	s2.9,1.3,2.9,3C102.9,94.5,101.6,95.8,100,95.8z M115.9,114.1c0,0-0.1,0.1-0.1,0.1c-3.3,2.3-7,7.3-7,14.1v5.9h-7.4V98.5
	c2.5-0.7,4.4-2.9,4.4-5.7c0-3.3-2.6-5.9-5.9-5.9c-3.3,0-5.9,2.6-5.9,5.9c0,2.7,1.9,5,4.4,5.7v35.6h-7.4v-5.9
	c0-6.4-3.6-11.4-6.7-13.9c0,0-0.1,0-0.1-0.1c-0.1-0.1-0.2-0.1-0.3-0.2c-0.1,0-0.1-0.1-0.2-0.1c-6.7-5.1-10.5-12.8-10.5-21.1
	c0-14.6,11.9-26.5,26.5-26.5s26.5,11.9,26.5,26.5C126.5,101.3,122.7,109,115.9,114.1z"/>
</svg>
