<?xml version="1.0" encoding="utf-8"?>
<!-- Generator: Adobe Illustrator 19.2.1, SVG Export Plug-In . SVG Version: 6.00 Build 0)  -->
<svg version="1.1" id="Layer_1" xmlns="http://www.w3.org/2000/svg" xmlns:xlink="http://www.w3.org/1999/xlink" x="0px" y="0px"
	 viewBox="0 0 200.1 200.1" style="enable-background:new 0 0 200.1 200.1;" xml:space="preserve">
<style type="text/css">
	.st0{fill:#8FD3D4;}
	.st1{fill:#324152;}
</style>
<title>icon-medal</title>
<g>
	<g>
		<path class="st0" d="M85.5,151c0.3,0.3,0.8,0.5,1.2,0.5c0.5,0,0.9-0.2,1.2-0.5l63.2-63.2c0.3-0.3,0.5-0.8,0.5-1.2
			c0-0.5-0.2-0.9-0.5-1.2l-8.9-8.9c-0.3-0.3-0.8-0.5-1.2-0.5c-0.5,0-0.9,0.2-1.2,0.5c-2.2,2.2-5.1,3.4-8.2,3.4
			c-6.4,0-11.5-5.2-11.5-11.5c0-3.1,1.2-6,3.4-8.2c0.3-0.3,0.5-0.8,0.5-1.2c0-0.5-0.2-0.9-0.5-1.2l-8.9-8.9
			c-0.3-0.3-0.8-0.5-1.2-0.5c-0.5,0-0.9,0.2-1.2,0.5L48.9,112c-0.3,0.3-0.5,0.8-0.5,1.2c0,0.5,0.2,0.9,0.5,1.2l8.9,8.9
			c0.3,0.3,0.8,0.5,1.2,0.5c0.5,0,0.9-0.2,1.2-0.5c2.2-2.2,5.1-3.4,8.2-3.4c6.4,0,11.5,5.2,11.5,11.5c0,3.1-1.2,6-3.4,8.2
			c-0.3,0.3-0.5,0.8-0.5,1.2c0,0.5,0.2,0.9,0.5,1.2L85.5,151z M68.5,116.5c-3,0-5.8,0.9-8.3,2.5l-0.5,0.4l-0.5,0.4l-0.5-0.5
			l-5.4-5.4l-0.6-0.6l0.6-0.6l36.3-36.3l0.6-0.6l0.6,0.6l3.2,3.2c0.3,0.3,0.8,0.5,1.2,0.5c0.5,0,0.9-0.2,1.2-0.5
			c0.7-0.7,0.7-1.8,0-2.5l-3.2-3.2l-0.6-0.6l0.6-0.6l19.7-19.7l0.6-0.6l0.6,0.6l5.4,5.4l0.5,0.5l-0.4,0.5l-0.4,0.5
			c-1.6,2.4-2.5,5.3-2.5,8.3c0,8.3,6.7,15,15,15c3,0,5.8-0.9,8.3-2.5l0.5-0.4l0.5-0.4l0.5,0.5l5.4,5.4l0.6,0.6l-0.6,0.6l-19.7,19.7
			l-0.6,0.6l-0.6-0.6l-3.2-3.2c-0.3-0.3-0.8-0.5-1.2-0.5c-0.5,0-0.9,0.2-1.2,0.5c-0.7,0.7-0.7,1.8,0,2.5l3.2,3.2l0.6,0.6l-0.6,0.6
			l-36.3,36.3l-0.6,0.6l-0.6-0.6l-5.4-5.4l-0.5-0.5l0.4-0.5l0.4-0.5c1.6-2.5,2.5-5.3,2.5-8.3C83.5,123.2,76.8,116.5,68.5,116.5z"/>
		<path class="st0" d="M100.5,86.2l3.3,3.3c0.3,0.3,0.8,0.5,1.2,0.5c0.5,0,0.9-0.2,1.2-0.5c0.7-0.7,0.7-1.8,0-2.5l-3.3-3.3
			c-0.3-0.3-0.8-0.5-1.2-0.5c-0.5,0-0.9,0.2-1.2,0.5C99.8,84.4,99.8,85.5,100.5,86.2z"/>
		<path class="st0" d="M110.4,96.2l3.3,3.3c0.3,0.3,0.8,0.5,1.2,0.5s0.9-0.2,1.2-0.5c0.7-0.7,0.7-1.8,0-2.5l-3.3-3.3
			c-0.3-0.3-0.8-0.5-1.2-0.5s-0.9,0.2-1.2,0.5C109.8,94.4,109.8,95.5,110.4,96.2z"/>
	</g>
	<path class="st1" d="M100-0.2C44.7-0.2-0.1,44.6-0.1,99.9c0,55.3,44.8,100.2,100.2,100.2c55.3,0,100.2-44.8,100.2-100.2
		C200.2,44.6,155.4-0.2,100-0.2z M100,192.1c-50.8,0-92.2-41.3-92.2-92.1C7.9,49.1,49.2,7.8,100,7.8c50.8,0,92.1,41.3,92.1,92.1
		C192.2,150.7,150.9,192.1,100,192.1z"/>
</g>
</svg>
