<svg id="Layer_1" data-name="Layer 1" xmlns="http://www.w3.org/2000/svg" viewBox="0 0 197.25 197.25"><defs><style>.cls-1{fill:#fff;}</style></defs><title>icon-gear</title><path class="cls-1" d="M111.84,9.26V28.49L117.75,30a70.56,70.56,0,0,1,19,8L142,41.24l4.38-4.38,9.38-9.38,16.74,16.74-9.7,9.7-4.27,4.27,3,5.24A70.49,70.49,0,0,1,169,82.12l1.45,6h20.31v23.67H170l-1.6,5.79a70.49,70.49,0,0,1-7.7,17.81l-3.21,5.3,4.38,4.38,10.68,10.68-16.74,16.74-11-11-4.27-4.27-5.24,3a70.44,70.44,0,0,1-17.53,7.11l-5.92,1.53v21.84H88.16V168.9l-5.92-1.53a70.44,70.44,0,0,1-17.53-7.11l-5.24-3-4.27,4.27-11,11L27.47,155.79l10.68-10.68,4.38-4.38-3.21-5.3a70.49,70.49,0,0,1-7.7-17.81L30,111.84H9.26V88.16H29.57l1.45-6a70.48,70.48,0,0,1,7.41-18.7l3-5.24-4.27-4.27-9.7-9.7L44.21,27.48l9.38,9.38L58,41.24,63.26,38a70.56,70.56,0,0,1,19-8l5.92-1.53V9.26h23.67M100,135.51A35.51,35.51,0,1,0,64.49,100,35.55,35.55,0,0,0,100,135.51M119.73,1.37H80.27v21a78.39,78.39,0,0,0-21.1,8.9l-15-15L16.31,44.21,31.59,59.49a78.35,78.35,0,0,0-8.24,20.78h-22v39.45H24a78.35,78.35,0,0,0,8.56,19.8L16.31,155.79l27.89,27.9L60.79,167.1A78.23,78.23,0,0,0,80.27,175v23.61h39.45V175a78.23,78.23,0,0,0,19.49-7.91l16.58,16.58,27.89-27.9-16.26-16.26a78.37,78.37,0,0,0,8.56-19.8h22.65V80.27h-22a78.35,78.35,0,0,0-8.24-20.78l15.28-15.28-27.89-27.9-15,15a78.4,78.4,0,0,0-21.1-8.9v-21h0ZM100,127.62A27.62,27.62,0,1,1,127.62,100,27.62,27.62,0,0,1,100,127.62h0Z" transform="translate(-1.37 -1.37)"/></svg>