<?xml version="1.0" encoding="utf-8"?>
<!-- Generator: Adobe Illustrator 19.2.1, SVG Export Plug-In . SVG Version: 6.00 Build 0)  -->
<svg version="1.1" id="Layer_1" xmlns="http://www.w3.org/2000/svg" xmlns:xlink="http://www.w3.org/1999/xlink" x="0px" y="0px"
	 viewBox="0 0 200.1 200.1" style="enable-background:new 0 0 200.1 200.1;" xml:space="preserve">
<style type="text/css">
	.st0{fill:#324152;}
	.st1{fill:#F16A6F;stroke:#F16A6F;stroke-width:0.75;}
</style>
<title>icon-medal</title>
<path class="st0" d="M100,0C44.8,0,0,44.8,0,100c0,55.3,44.8,100,100,100c55.2,0,100-44.8,100-100C200.1,44.8,155.3,0,100,0z
	 M100,192.1c-50.8,0-92-41.3-92-92C8,49.3,49.3,8,100,8c50.8,0,92,41.3,92,92C192.1,150.8,150.8,192.1,100,192.1z"/>
<path class="st1" d="M129.6,92.6c0-16.3-13.2-29.6-29.6-29.6S70.4,76.3,70.4,92.6c0,9.6,4.6,18.1,11.7,23.5l0,0
	c0.1,0.1,0.3,0.2,0.4,0.3c0,0,0,0,0,0c2.3,1.8,5.6,6,5.6,11.6v20.7h23.7v-20.7c0-5.9,3.4-10.2,5.9-11.8l0,0
	C124.9,110.8,129.6,102.3,129.6,92.6z M91.1,145.9v-8.9h17.7v8.9H91.1z M100,95.6c-1.6,0-3-1.3-3-3c0-1.6,1.3-3,3-3s3,1.3,3,3
	C103,94.2,101.6,95.6,100,95.6z M116,113.9c0,0-0.1,0.1-0.1,0.1c-3.3,2.3-7,7.3-7,14.1v5.9h-7.4V98.3c2.5-0.7,4.4-3,4.4-5.7
	c0-3.3-2.6-5.9-5.9-5.9s-5.9,2.6-5.9,5.9c0,2.8,1.9,5,4.4,5.7V134h-7.4v-5.9c0-6.4-3.6-11.5-6.7-13.9c0,0-0.1,0-0.1-0.1
	c-0.1-0.1-0.2-0.1-0.3-0.2c-0.1,0-0.1-0.1-0.2-0.1c-6.7-5.1-10.5-12.8-10.5-21.2C73.4,77.9,85.3,66,100,66s26.6,11.9,26.6,26.6
	C126.6,101,122.7,108.8,116,113.9z"/>
</svg>
