<?xml version="1.0" encoding="utf-8"?>
<!-- Generator: Adobe Illustrator 19.2.1, SVG Export Plug-In . SVG Version: 6.00 Build 0)  -->
<svg version="1.1" id="Layer_1" xmlns="http://www.w3.org/2000/svg" xmlns:xlink="http://www.w3.org/1999/xlink" x="0px" y="0px"
	 viewBox="0 0 200.3 200.3" style="enable-background:new 0 0 200.3 200.3;" xml:space="preserve">
<style type="text/css">
	.st0{fill:#324152;}
	.st1{fill:#92D47E;}
</style>
<title>icon-map-pin</title>
<path class="st0" d="M100.1,0C44.8,0,0,44.8,0,100.1s44.8,100.1,100.1,100.1s100.1-44.8,100.1-100.1S155.4,0,100.1,0
	C100.1,0,100.1,0,100.1,0z"/>
<path class="st1" d="M114,101.2l-11.9-6.8V70.3c7.6-1.1,12.8-8.1,11.7-15.7s-8.1-12.8-15.7-11.7S85.3,51,86.4,58.6
	c0.9,6.1,5.7,10.8,11.7,11.7v21.8l-11.8-6.8L54.6,98.2v48.5l31.7-12.9l27.7,15.8l31.7-15.9V85.3L114,101.2z M82.3,131.2l-23.8,9.7
	v-40l23.8-9.7V131.2L82.3,131.2z M90.2,56.6c0-5.5,4.4-9.9,9.9-9.9s9.9,4.4,9.9,9.9s-4.4,9.9-9.9,9.9l0,0
	C94.6,66.5,90.2,62.1,90.2,56.6L90.2,56.6z M114,145.3l-27.7-15.9V89.8l11.9,6.8v17.5h4V98.8l11.8,6.8V145.3L114,145.3z
	 M141.7,131.5L118,143.3v-39.7l23.8-11.9L141.7,131.5L141.7,131.5z"/>
</svg>
