<?xml version="1.0" encoding="utf-8"?>
<!-- Generator: Adobe Illustrator 19.2.1, SVG Export Plug-In . SVG Version: 6.00 Build 0)  -->
<svg version="1.1" id="Layer_1" xmlns="http://www.w3.org/2000/svg" xmlns:xlink="http://www.w3.org/1999/xlink" x="0px" y="0px"
	 viewBox="0 0 200.1 200.1" style="enable-background:new 0 0 200.1 200.1;" xml:space="preserve">
<style type="text/css">
	.st0{fill:#324152;}
	.st1{fill:#92D47E;}
</style>
<title>icon-medal</title>
<path class="st0" d="M100,0C44.7,0,0,44.8,0,100c0,55.3,44.8,100,100,100c55.2,0,100-44.8,100-100C200,44.8,155.3,0,100,0z"/>
<g>
	<path class="st1" d="M139.1,48.4L76.7,70.5v54.8c-3-3.5-7.4-5.7-12.3-5.7c-8.9,0-16.1,7.2-16.1,16.1c0,8.9,7.2,16.1,16.1,16.1
		c8.8,0,15.9-7.1,16.1-15.8h0V73.2l54.9-19.4v50.7c-3-3.5-7.4-5.7-12.3-5.7c-8.9,0-16.1,7.2-16.1,16.1c0,8.9,7.2,16.1,16.1,16.1
		c8.9,0,16.1-7.2,16.1-16.1c0-0.3,0-0.6,0-0.9h0V48.4z M64.3,147.9c-6.8,0-12.3-5.5-12.3-12.3c0-6.8,5.5-12.3,12.3-12.3
		s12.3,5.5,12.3,12.3C76.7,142.4,71.1,147.9,64.3,147.9z M123,127.1c-6.8,0-12.3-5.5-12.3-12.3c0-6.8,5.5-12.3,12.3-12.3
		c6.8,0,12.3,5.5,12.3,12.3C135.4,121.6,129.8,127.1,123,127.1z"/>
	
		<rect x="76.9" y="72.9" transform="matrix(0.9429 -0.3332 0.3332 0.9429 -18.9165 40.3413)" class="st1" width="62.5" height="4.8"/>
</g>
</svg>
