<?xml version="1.0" encoding="utf-8"?>
<!-- Generator: Adobe Illustrator 19.2.1, SVG Export Plug-In . SVG Version: 6.00 Build 0)  -->
<svg version="1.1" id="Layer_1" xmlns="http://www.w3.org/2000/svg" xmlns:xlink="http://www.w3.org/1999/xlink" x="0px" y="0px"
	 viewBox="0 0 199.7 199.7" style="enable-background:new 0 0 199.7 199.7;" xml:space="preserve">
<style type="text/css">
	.st0{fill:#324152;}
	.st1{fill:#8FD3D4;}
</style>
<title>icon_microphone</title>
<path class="st0" d="M99.9,0C44.7,0,0,44.7,0,99.8s44.7,99.9,99.8,99.9c55.2,0,99.9-44.7,99.9-99.8c0,0,0,0,0,0
	C199.7,44.7,155,0,99.9,0z"/>
<path class="st1" d="M143.6,60.9c-10.7-9.1-26.7-7.7-35.8,3c-2.9,3.4-4.8,7.5-5.6,11.9c-0.5,2.9-0.5,5.8-0.1,8.7
	c0.1,0.8,0.3,1.5,0.5,2.3l-0.2-0.2l-29,32.2c-3.1,3.4-3,8.7,0.4,12l1.2,1.2c3.2,3.1,8.2,3.4,11.6,0.5l33.3-27.8
	c13.4,4,27.6-3.7,31.6-17.1C154.3,77.8,151.2,67.4,143.6,60.9 M84.5,129.9c-2.2,1.8-5.4,1.7-7.4-0.3l-1.2-1.2
	c-2.1-2.1-2.2-5.4-0.2-7.6l27.9-30.9c2.4,5.9,7,10.7,12.8,13.4L84.5,129.9z M149,84.2c-1.4,7.8-6.9,14.2-14.4,16.9
	c-7.5,2.6-15.8,1.1-21.8-4c-9.4-7.9-10.5-21.9-2.6-31.3s21.9-10.5,31.3-2.6C147.6,68.4,150.4,76.4,149,84.2"/>
<path class="st1" d="M127.8,96.9c-1.1-0.1-2.2-0.4-3.2-0.8c-0.9-0.2-1.7,0.3-1.9,1.2c-0.2,0.7,0.2,1.5,0.9,1.8
	c1.3,0.4,2.6,0.8,3.9,0.9h0.2c0.9,0,1.6-0.8,1.6-1.6C129.1,97.6,128.6,97,127.8,96.9"/>
<path class="st1" d="M71.4,131.2l-5.5,5.4c-3.6,3.5-9.4,3.5-12.9-0.1c-3.5-3.6-3.5-9.4,0.1-12.9l18.2-17.8c5-4.6,5.4-12.4,0.8-17.4
	c-4.6-5-12.4-5.4-17.4-0.8c-0.2,0.2-0.5,0.4-0.7,0.7l-5.5,5.4c-0.6,0.6-0.6,1.7,0.1,2.3c0.6,0.6,1.5,0.6,2.2,0l5.5-5.4
	c3.6-3.5,9.4-3.5,12.9,0.1s3.5,9.4-0.1,12.9l0,0l-18.2,17.8c-4.7,4.9-4.5,12.7,0.4,17.4c4.7,4.5,12.1,4.6,16.9,0.2l5.5-5.4
	c0.6-0.6,0.6-1.7-0.1-2.3C72.9,130.6,72,130.6,71.4,131.2"/>
<path class="st1" d="M99.3,104.6L77.1,125c-0.6,0.6-0.6,1.7,0.1,2.3c0.6,0.5,1.5,0.6,2.1,0.1l22.2-20.4c0.6-0.6,0.6-1.7-0.1-2.3
	C100.9,104.2,100,104.1,99.3,104.6"/>
<path class="st1" d="M104.3,99.7l-1.8,1.7c-0.6,0.6-0.6,1.6,0,2.3c0.6,0.6,1.5,0.6,2.2,0.1l1.8-1.7c0.6-0.7,0.5-1.7-0.1-2.3
	C105.8,99.2,105,99.2,104.3,99.7"/>
<path class="st1" d="M139.2,64.8c-0.6-0.6-1.6-0.6-2.3,0c-0.6,0.6-0.6,1.6,0,2.3c0.1,0.1,0.1,0.1,0.2,0.1c7,5.9,8,16.5,2,23.5
	c-1.9,2.3-4.4,4-7.2,5c-0.8,0.4-1.1,1.4-0.7,2.2c0.3,0.6,1,1,1.7,0.8c10.3-3.7,15.8-15,12.1-25.4C143.9,70,141.9,67.1,139.2,64.8"/>
</svg>
