<svg id="Layer_1" data-name="Layer 1" xmlns="http://www.w3.org/2000/svg" viewBox="0 0 193.28 193.24"><defs><style>.cls-1{fill:#f16a6f;}</style></defs><title>icon-gear-pnk</title><path class="cls-1" d="M110.23,9.73V28.58L116,30.05a69.13,69.13,0,0,1,18.61,7.84l5.14,3.17,4.29-4.29,9.19-9.19L169.66,44l-9.5,9.5L156,57.67l2.94,5.13a69.06,69.06,0,0,1,7.32,18.31L167.66,87h19.9v23.19H167.22l-1.57,5.67a69.06,69.06,0,0,1-7.54,17.45L155,138.5l4.29,4.29,10.46,10.46-16.4,16.4-10.78-10.78-4.18-4.18-5.13,2.94a69,69,0,0,1-17.17,7l-5.8,1.5v21.4H87V166.14l-5.8-1.5a69,69,0,0,1-17.17-7l-5.13-2.94-4.18,4.18L44,169.69l-16.39-16.4L38,142.83l4.29-4.29-3.14-5.19a69.06,69.06,0,0,1-7.54-17.45l-1.59-5.66H9.73V87h19.9l1.42-5.88a69.05,69.05,0,0,1,7.26-18.32l2.94-5.13-4.18-4.18L27.57,44,44,27.59l9.19,9.19,4.32,4.29,5.15-3.17a69.13,69.13,0,0,1,18.61-7.84l5.8-1.5V9.73h23.19M98.63,133.42A34.79,34.79,0,1,0,63.84,98.63a34.79,34.79,0,0,0,34.79,34.79M118,2H79.3V22.58A76.8,76.8,0,0,0,58.63,31.3L43.94,16.6,16.64,44l15,15A76.76,76.76,0,0,0,23.54,79.3H2V118H24.18a76.76,76.76,0,0,0,8.39,19.4L16.64,153.29,44,180.63l16.25-16.25a76.64,76.64,0,0,0,19.08,7.74v23.13H118V172.11A76.64,76.64,0,0,0,137,164.36l16.24,16.24,27.32-27.33-15.93-15.93a76.78,76.78,0,0,0,8.39-19.4h22.19V79.3H173.71a76.76,76.76,0,0,0-8.07-20.36l15-15L153.28,16.64l-14.7,14.7a76.81,76.81,0,0,0-20.67-8.72V2h0ZM98.63,125.69a27.06,27.06,0,1,1,27.06-27.06,27.06,27.06,0,0,1-27.06,27.06h0Z" transform="translate(-1.99 -2)"/></svg>