<?xml version="1.0" encoding="utf-8"?>
<!-- Generator: Adobe Illustrator 19.2.1, SVG Export Plug-In . SVG Version: 6.00 Build 0)  -->
<svg version="1.1" id="Layer_1" xmlns="http://www.w3.org/2000/svg" xmlns:xlink="http://www.w3.org/1999/xlink" x="0px" y="0px"
	 viewBox="0 0 200.3 200.3" style="enable-background:new 0 0 200.3 200.3;" xml:space="preserve">
<style type="text/css">
	.st0{fill:#324152;}
	.st1{fill:#F16A6F;}
</style>
<title>icon-map-pin</title>
<path class="st0" d="M100.1,0C44.8,0,0,44.8,0,100.1s44.8,100.1,100.1,100.1s100.1-44.8,100.1-100.1S155.4,0,100.1,0
	C100.1,0,100.1,0,100.1,0z M100.1,192.3C49.3,192.3,8,151,8,100.1S49.3,8,100.1,8s92.1,41.2,92.1,92.1
	C192.2,151,151,192.2,100.1,192.3z"/>
<g>
	<path class="st1" d="M142,125.9c-5.5-2.3-18.6-6.8-26.6-9.2c-0.7-0.2-0.8-0.2-0.8-3.1c0-2.4,1-4.7,1.9-6.7c1-2.2,2.2-5.9,2.7-9.1
		c1.2-1.4,2.9-4.2,3.9-9.5c0.9-4.7,0.5-6.4-0.1-8c-0.1-0.2-0.1-0.3-0.2-0.5c-0.2-1.1,0.1-6.8,0.9-11.2c0.6-3-0.1-9.5-4.3-14.9
		c-2.6-3.4-7.7-7.5-16.9-8.1l-5.1,0c-9.1,0.6-14.1,4.7-16.8,8.1c-4.2,5.4-4.9,11.8-4.3,14.9c0.8,4.4,1.1,10.1,0.9,11.2
		c0,0.2-0.1,0.4-0.2,0.5c-0.6,1.6-1.1,3.3-0.1,8c1.1,5.3,2.7,8.1,4,9.5c0.4,3.3,1.6,7,2.7,9.1c0.7,1.6,1.1,3.8,1.1,6.8
		c0,2.9-0.1,2.9-0.7,3.1c-8.3,2.5-21.5,7.2-26.5,9.4c-3.9,1.7-4.9,4.7-4.9,7.4s0,10.8,0,12.5c0,1.8,1.1,4.8,4.9,4.8
		c2.9,0,26.4,0,37,0c3.2,0,5.2,0,5.2,0l0.9,0c0,0,2.1,0,5.3,0c10.7,0,34.1,0,37,0c3.8,0,4.9-3,4.9-4.8c0-1.8,0-9.8,0-12.5
		C147.8,130.9,145.9,127.6,142,125.9z M142.7,145.9l-36.9,0l-5.3,0l-0.9,0l-5.2,0l-36.9,0l0-12.3c0-1.5,0.4-2.2,1.9-2.8
		c4.7-2.1,17.9-6.8,26-9.2c4.2-1.3,4.2-5.1,4.2-7.9c0-3.8-0.5-6.7-1.6-9c-0.8-1.7-1.9-4.9-2.2-7.7l-0.2-1.5l-1-1.1
		c-0.5-0.6-1.9-2.6-2.8-7.2c-0.7-3.6-0.4-4.5-0.1-5.1c0.1-0.4,0.3-0.7,0.4-1.1l0-0.1l0-0.1c0.5-2.4-0.2-9.4-0.9-13.2
		c-0.3-1.7,0.1-6.7,3.3-10.9c2-2.6,5.9-5.7,13-6.2l4.7,0c5.8,0.4,10.3,2.5,13.2,6.2c3.3,4.2,3.7,9.1,3.3,10.9
		c-0.7,3.9-1.4,10.8-0.9,13.2l0,0.2l0.1,0.2c0.1,0.3,0.2,0.5,0.3,0.8l0,0.1l0,0c0.3,0.7,0.6,1.6-0.1,5.2c-0.9,4.7-2.3,6.6-2.8,7.2
		l-1,1.1l-0.2,1.5c-0.4,2.8-1.4,5.9-2.2,7.7c-1.2,2.5-2.4,5.5-2.4,8.9c0,2.8,0,6.5,4.4,7.9c7.8,2.3,20.8,6.8,26,9
		c2,0.9,2.7,2.4,2.7,3.1L142.7,145.9z"/>
</g>
</svg>
