<svg id="Layer_1" data-name="Layer 1" xmlns="http://www.w3.org/2000/svg" viewBox="0 0 200.08 200.08"><defs><style>.cls-1{fill:#324152;}.cls-2{fill:#f16a6f;}</style></defs><title>icon-medal</title><path class="cls-1" d="M100,0A100,100,0,1,0,200,100,100,100,0,0,0,100,0ZM100,192a92,92,0,1,1,92-92A92.15,92.15,0,0,1,100,192Z" transform="translate(0.04 0.04)"/><path class="cls-2" d="M115.39,88.11c2.36-5.61,9.8-23.58,9.8-27.39v-15H74.81v15c0,3.82,7.39,21.9,9.69,27.45A34.89,34.89,0,1,0,115.39,88.11ZM78.68,60.72V49.61H98V76.13h3.88V49.61h19.45V60.72c0,2.12-4.76,14.63-9.5,25.88a34.35,34.35,0,0,0-23.76,0C84,76.94,78.68,63.05,78.68,60.72ZM100,150.39a31,31,0,1,1,31-31A31,31,0,0,1,100,150.39Z" transform="translate(0.04 0.04)"/><path class="cls-2" d="M100,96.12a23.26,23.26,0,1,0,23.26,23.26A23.26,23.26,0,0,0,100,96.12Zm0,42.63a19.38,19.38,0,1,1,19.38-19.38A19.4,19.4,0,0,1,100,138.76Z" transform="translate(0.04 0.04)"/></svg>