<?xml version="1.0" encoding="utf-8"?>
<!-- Generator: Adobe Illustrator 19.2.1, SVG Export Plug-In . SVG Version: 6.00 Build 0)  -->
<svg version="1.1" id="Layer_1" xmlns="http://www.w3.org/2000/svg" xmlns:xlink="http://www.w3.org/1999/xlink" x="0px" y="0px"
	 viewBox="0 0 100.1 100.1" style="enable-background:new 0 0 100.1 100.1;" xml:space="preserve">
<style type="text/css">
	.st0{fill:#F16A6F;}
	.st1{fill:#324152;}
</style>
<title>icon-medal</title>
<g>
	<circle class="st0" cx="50.2" cy="50.2" r="47.9"/>
	<g>
		<g>
			<path class="st1" d="M58.2,43.9c1.3-3,5.2-12.5,5.2-14.5v-7.9H50H36.7v7.9c0,2,3.9,11.6,5.1,14.5c-6.1,3-10.3,9.3-10.3,16.5
				c0,10.2,8.3,18.5,18.5,18.5s18.5-8.3,18.5-18.5C68.5,53.2,64.3,46.9,58.2,43.9z M38.8,29.4v-5.9H49v14.1h2.1V23.5h10.3v5.9
				c0,1.1-2.5,7.8-5,13.7c-2-0.7-4.1-1.1-6.3-1.1c-2.2,0-4.3,0.4-6.3,1.1C41.6,38,38.8,30.6,38.8,29.4z M50.1,76.9
				c-9.1,0-16.4-7.4-16.4-16.4S41,44.1,50.1,44.1c9.1,0,16.4,7.4,16.4,16.4S59.1,76.9,50.1,76.9z"/>
			<path class="st1" d="M50.1,48.2c-6.8,0-12.3,5.5-12.3,12.3c0,6.8,5.5,12.3,12.3,12.3c6.8,0,12.3-5.5,12.3-12.3
				C62.4,53.7,56.9,48.2,50.1,48.2z M50.1,70.8c-5.7,0-10.3-4.6-10.3-10.3c0-5.7,4.6-10.3,10.3-10.3c5.7,0,10.3,4.6,10.3,10.3
				C60.3,66.2,55.7,70.8,50.1,70.8z"/>
		</g>
	</g>
</g>
</svg>
