<?xml version="1.0" encoding="utf-8"?>
<!-- Generator: Adobe Illustrator 19.2.1, SVG Export Plug-In . SVG Version: 6.00 Build 0)  -->
<svg version="1.1" id="Layer_1" xmlns="http://www.w3.org/2000/svg" xmlns:xlink="http://www.w3.org/1999/xlink" x="0px" y="0px"
	 viewBox="0 0 100.1 100.1" style="enable-background:new 0 0 100.1 100.1;" xml:space="preserve">
<style type="text/css">
	.st0{fill:#92D47E;}
	.st1{fill:#324152;}
</style>
<title>icon-medal</title>
<g>
	<circle class="st0" cx="50.2" cy="50.2" r="47.9"/>
	<path class="st1" d="M58.1,50.5l-6.8-3.9V32.9c3.8-0.6,6.7-3.8,6.7-7.8c0-4.4-3.5-7.9-7.9-7.9c-4.4,0-7.9,3.5-7.9,7.9
		c0,4,3,7.3,6.8,7.8v12.4l-6.8-3.9l-18.1,7.3v27.7l18.1-7.3l15.8,9l18.1-9V41.5L58.1,50.5z M40.1,67.6l-13.5,5.5V50.3l13.5-5.5V67.6
		z M44.6,25.1c0-3.1,2.5-5.6,5.6-5.6c3.1,0,5.6,2.5,5.6,5.6c0,3.1-2.5,5.6-5.6,5.6C47.1,30.8,44.6,28.2,44.6,25.1z M58.1,75.6
		l-15.8-9V44l6.8,3.9v10h2.3v-8.7l6.8,3.9V75.6z M73.9,67.7l-13.5,6.8V51.9l13.5-6.8V67.7z"/>
</g>
</svg>
