<?xml version="1.0" encoding="utf-8"?>
<!-- Generator: Adobe Illustrator 19.2.1, SVG Export Plug-In . SVG Version: 6.00 Build 0)  -->
<svg version="1.1" id="Layer_1" xmlns="http://www.w3.org/2000/svg" xmlns:xlink="http://www.w3.org/1999/xlink" x="0px" y="0px"
	 viewBox="0 0 100.1 100.1" style="enable-background:new 0 0 100.1 100.1;" xml:space="preserve">
<style type="text/css">
	.st0{fill:#8FD3D4;}
	.st1{fill:#324152;}
</style>
<title>icon-medal</title>
<g>
	<circle class="st0" cx="50" cy="50" r="48"/>
	<g>
		<path class="st1" d="M74.9,29.4c-3.9-3.3-9.4-4.3-14.1-2.6c-4.8,1.7-8.4,5.9-9.3,11c-0.3,1.6-0.3,3.3,0,4.9
			c0.1,0.4,0.2,0.9,0.3,1.3l-0.1-0.1L35.3,62.1c-1.8,2-1.7,4.9,0.2,6.8l0.7,0.7c1,0.9,2.2,1.4,3.4,1.4c1.1,0,2.2-0.4,3.1-1.1
			l18.8-15.7c1.3,0.4,2.7,0.6,4.1,0.6c1.7,0,3.3-0.3,4.8-0.8c4.8-1.7,8.4-5.9,9.3-11C80.7,37.9,78.8,32.7,74.9,29.4 M41.6,68.4
			c-1.2,1-3,1-4.2-0.2l-0.7-0.7c-1.2-1.2-1.2-3-0.1-4.3l15.8-17.5c0.9,2.1,2.2,4,4,5.5c1,0.8,2.1,1.5,3.3,2.1L41.6,68.4z M78,42.6
			c-0.8,4.4-3.9,8.1-8.1,9.6c-4.2,1.5-9,0.6-12.4-2.2c-2.3-1.9-3.8-4.6-4.3-7.5c-0.2-1.4-0.2-2.9,0-4.3c0.8-4.4,3.9-8.1,8.1-9.6
			c1.4-0.5,2.8-0.7,4.2-0.7c3,0,5.9,1.1,8.1,3C77.2,33.7,78.8,38.2,78,42.6"/>
		<path class="st1" d="M66,49.8c-0.6-0.1-1.2-0.2-1.8-0.4c-0.5-0.2-1,0.1-1.2,0.6c-0.2,0.5,0.1,1,0.6,1.2c0.7,0.3,1.4,0.4,2.2,0.5
			c0,0,0.1,0,0.1,0c0.4,0,0.8-0.3,0.9-0.8C66.8,50.3,66.5,49.9,66,49.8"/>
		<path class="st1" d="M34.1,69.2L31,72.2c-2,2-5.3,2-7.3-0.1c-2-2-2-5.3,0.1-7.3l10.3-10.1c2.7-2.7,2.8-7.1,0.1-9.8
			c-2.7-2.7-7.1-2.8-9.8-0.1l-3.1,3.1c-0.4,0.3-0.4,0.9,0,1.3c0.3,0.4,0.9,0.4,1.3,0l3.1-3.1c2-2,5.3-2,7.3,0.1c2,2,2,5.3-0.1,7.3
			L22.5,63.6c-2.7,2.7-2.8,7.1-0.1,9.8c1.4,1.4,3.2,2.1,5,2.1c1.8,0,3.5-0.7,4.9-2l3.1-3.1c0.4-0.3,0.4-0.9,0-1.3
			C35,68.8,34.4,68.8,34.1,69.2"/>
		<path class="st1" d="M49.9,54.2L37.3,65.7C37,66,36.9,66.6,37.3,67c0.2,0.2,0.4,0.3,0.7,0.3c0.2,0,0.4-0.1,0.6-0.2l12.6-11.5
			c0.4-0.3,0.4-0.9,0.1-1.3C50.8,53.8,50.3,53.8,49.9,54.2"/>
		<path class="st1" d="M52.7,51.3l-1,1c-0.4,0.3-0.4,0.9,0,1.3c0.2,0.2,0.4,0.3,0.7,0.3c0.2,0,0.4-0.1,0.6-0.2l1-1
			c0.4-0.3,0.4-0.9,0-1.3C53.7,51,53.1,51,52.7,51.3"/>
		<path class="st1" d="M72.4,31.6c-0.4-0.3-0.9-0.3-1.3,0.1c-0.3,0.4-0.3,0.9,0.1,1.3c2.6,2.2,3.8,5.6,3.2,8.9
			c-0.6,3.3-2.9,6.1-6.1,7.2c-0.5,0.2-0.7,0.7-0.5,1.2c0.1,0.4,0.5,0.6,0.8,0.6c0.1,0,0.2,0,0.3-0.1c3.8-1.3,6.6-4.6,7.3-8.6
			C76.9,38.3,75.5,34.2,72.4,31.6"/>
	</g>
</g>
</svg>
