<svg id="Layer_1" data-name="Layer 1" xmlns="http://www.w3.org/2000/svg" viewBox="0 0 176.6 195.47"><defs><style>.cls-1{fill:#324152;}</style></defs><title>profile</title><path class="cls-1" d="M178.17,150.86c-10.19-4.25-34.41-12.59-49.31-17-1.27-.4-1.47-0.46-1.47-5.75,0-4.37,1.79-8.76,3.54-12.49a64,64,0,0,0,4.95-16.94c2.26-2.62,5.33-7.8,7.31-17.66,1.73-8.69.92-11.85-.23-14.82-0.12-.31-0.25-0.62-0.34-0.93-0.44-2,.16-12.63,1.64-20.84,1-5.64-.27-17.62-8-27.53-4.9-6.27-14.28-14-31.41-15H95.42C78.58,3,69.2,10.67,64.3,16.94c-7.76,9.92-9,21.91-8,27.54,1.5,8.22,2.1,18.81,1.67,20.8a7.66,7.66,0,0,1-.34,1c-1.14,3-2,6.13-.21,14.82,2,9.86,5.05,15,7.32,17.66a63.32,63.32,0,0,0,5,16.94c1.39,3,2,7,2,12.67,0,5.29-.2,5.35-1.39,5.73-15.4,4.55-39.91,13.42-49.05,17.43-7.24,3.11-9,8.69-9,13.72v23.24c0,3.29,2,8.91,9,8.9l68.63,0h21.3l68.63,0c7.06,0,9-5.62,9-8.91V165.15C188.88,160.12,185.4,154,178.17,150.86ZM179.55,188l-68.3,0H89.94l-68.35,0V165.22c0-2.82.82-4.08,3.44-5.21,8.8-3.86,33.14-12.65,48.13-17.08C81,140.43,81,133.44,81,128.34c0-7.09-.94-12.38-2.93-16.64a53.77,53.77,0,0,1-4.15-14.18l-0.36-2.76-1.83-2.11c-1-1.15-3.51-4.77-5.24-13.4-1.35-6.73-.75-8.28-0.27-9.53a17.26,17.26,0,0,0,.72-2.1l0-.2,0-.2c0.93-4.38-.33-17.39-1.62-24.41-0.59-3.23.15-12.41,6.19-20.15,3.7-4.74,10.88-10.55,24.11-11.46h8.79c10.8,0.73,19,4.58,24.38,11.45,6,7.73,6.8,16.91,6.21,20.15-1.3,7.21-2.54,20-1.59,24.44l0.07,0.34,0.1,0.34c0.14,0.47.31,1,.5,1.43l0.08,0.23h0c0.53,1.35,1.13,2.89-.22,9.63-1.73,8.63-4.24,12.26-5.24,13.42L127,94.74l-0.37,2.75a54.45,54.45,0,0,1-4.14,14.21c-2.19,4.66-4.43,10.25-4.43,16.44,0,5.11,0,12.11,8.14,14.66,14.55,4.29,38.5,12.53,48.28,16.61,3.7,1.59,5.08,4.37,5.09,5.75Z" transform="translate(-12.29 -1.9)"/></svg>