<svg id="Layer_1" data-name="Layer 1" xmlns="http://www.w3.org/2000/svg" viewBox="0 0 179.49 198.24"><defs><style>.cls-1{fill:#324152;stroke:#324152;stroke-miterlimit:10;stroke-width:4px;}</style></defs><title>tab-profile</title><path class="cls-1" d="M177,150.83c-10.13-4.23-34.2-12.51-49-16.88-1.26-.4-1.46-0.46-1.46-5.71,0-4.34,1.78-8.71,3.52-12.41A63.59,63.59,0,0,0,135,99c2.24-2.61,5.3-7.75,7.26-17.55,1.72-8.64.92-11.78-.23-14.73-0.12-.31-0.24-0.62-0.33-0.92-0.43-2,.16-12.55,1.63-20.71,1-5.6-.27-17.51-8-27.36-4.87-6.23-14.19-13.87-31.21-14.92H94.81C78.08,3.86,68.75,11.51,63.89,17.74c-7.71,9.86-9,21.77-8,27.36,1.49,8.17,2.08,18.69,1.66,20.67a7.61,7.61,0,0,1-.34,1c-1.14,2.95-1.95,6.09-.21,14.73,2,9.8,5,14.94,7.28,17.54a62.92,62.92,0,0,0,4.93,16.83c1.38,2.94,2,6.94,2,12.59,0,5.25-.2,5.32-1.38,5.69-15.3,4.52-39.66,13.34-48.74,17.32-7.19,3.09-9,8.64-9,13.64v23.09c0,3.27,1.95,8.85,9,8.85l68.2,0h21.17l68.2,0c7,0,9-5.59,9-8.86V165C187.68,160,184.23,153.91,177,150.83Zm1.37,36.91-67.87,0H89.37l-67.92,0V165.09c0-2.8.81-4.05,3.42-5.17,8.75-3.83,32.93-12.57,47.83-17,7.82-2.48,7.82-9.43,7.82-14.5,0-7-.93-12.3-2.92-16.53a53.43,53.43,0,0,1-4.13-14.1L73.1,95.07,71.29,93c-1-1.15-3.49-4.74-5.2-13.32-1.34-6.69-.75-8.23-0.27-9.47a17.15,17.15,0,0,0,.71-2.08l0-.2,0-.2c0.93-4.36-.33-17.28-1.61-24.26-0.59-3.21.15-12.33,6.15-20C74.84,18.72,82,12.95,95.12,12h8.74c10.73,0.72,18.89,4.55,24.23,11.38,6,7.68,6.75,16.8,6.17,20-1.3,7.16-2.52,19.87-1.58,24.29l0.07,0.34,0.1,0.33c0.14,0.47.31,0.95,0.5,1.42L133.42,70h0c0.52,1.35,1.12,2.87-.22,9.57C131.5,88.2,129,91.81,128,93l-1.8,2.09-0.36,2.73a54.11,54.11,0,0,1-4.12,14.12c-2.18,4.63-4.4,10.19-4.4,16.34,0,5.08,0,12,8.09,14.57,14.46,4.26,38.26,12.46,48,16.51,3.68,1.58,5.05,4.34,5.05,5.71Z" transform="translate(-10.2 -0.79)"/></svg>