<svg id="Layer_1" data-name="Layer 1" xmlns="http://www.w3.org/2000/svg" viewBox="0 0 165.22 118.2"><defs><style>.cls-1{fill:#324152;}</style></defs><title>tab-menu</title><path class="cls-1" d="M170.82,62.6l-142.68.06A11.28,11.28,0,0,1,16.89,51.41,11.43,11.43,0,0,1,28.14,40.15l142.68-.06A11.25,11.25,0,1,1,170.82,62.6Z" transform="translate(-16.89 -40.09)"/><path class="cls-1" d="M170.84,110.31l-142.68.06a11.25,11.25,0,0,1,0-22.5l142.68-.06a11.28,11.28,0,0,1,11.26,11.25A11,11,0,0,1,170.84,110.31Z" transform="translate(-16.89 -40.09)"/><path class="cls-1" d="M170.86,158.24l-142.68.06a11.28,11.28,0,0,1-11.26-11.25,11.43,11.43,0,0,1,11.25-11.26l142.68-.06A11.25,11.25,0,0,1,170.86,158.24Z" transform="translate(-16.89 -40.09)"/></svg>