<svg id="Layer_1" data-name="Layer 1" xmlns="http://www.w3.org/2000/svg" viewBox="0 0 199.03 43.01"><defs><style>.cls-1{fill:#324152;stroke:#324152;stroke-miterlimit:10;stroke-width:4px;}</style></defs><title>tab-dots</title><path class="cls-1" d="M22,80.5A19.5,19.5,0,1,0,41.49,100,19.5,19.5,0,0,0,22,80.5ZM22,113a13,13,0,1,1,13-13A13,13,0,0,1,22,113Z" transform="translate(-0.48 -78.5)"/><path class="cls-1" d="M178,80.5a19.5,19.5,0,1,0,19.5,19.5A19.5,19.5,0,0,0,178,80.5ZM178,113a13,13,0,1,1,13-13A13,13,0,0,1,178,113Z" transform="translate(-0.48 -78.5)"/><path class="cls-1" d="M100,80.5A19.5,19.5,0,1,0,119.5,100,19.5,19.5,0,0,0,100,80.5ZM100,113a13,13,0,1,1,13-13A13,13,0,0,1,100,113Z" transform="translate(-0.48 -78.5)"/></svg>