<svg id="Layer_1" data-name="Layer 1" xmlns="http://www.w3.org/2000/svg" viewBox="0 0 215.48 215.48"><defs><style>.cls-1,.cls-2{fill:#324152;stroke:#324152;stroke-width:4px;}.cls-1{stroke-miterlimit:10;}.cls-2{stroke-linejoin:round;}</style></defs><title>tab-plus</title><path class="cls-1" d="M109,3.26A105.74,105.74,0,1,0,214.74,109,105.73,105.73,0,0,0,109,3.26Zm0.08,203A97.28,97.28,0,1,1,206.28,109,97.39,97.39,0,0,1,109,206.28Z" transform="translate(-1.26 -1.26)"/><polygon class="cls-2" points="111.94 44.3 103.49 44.3 103.51 103.51 44.58 103.54 44.58 112 103.51 111.97 103.54 170.91 112 170.9 111.97 111.97 171.19 111.94 171.18 103.49 111.97 103.51 111.94 44.3"/></svg>