<?xml version="1.0" encoding="utf-8"?>
<!-- Generator: Adobe Illustrator 19.2.1, SVG Export Plug-In . SVG Version: 6.00 Build 0)  -->
<svg version="1.1" id="Layer_1" xmlns="http://www.w3.org/2000/svg" xmlns:xlink="http://www.w3.org/1999/xlink" x="0px" y="0px"
	 viewBox="0 0 800 337" style="enable-background:new 0 0 800 337;" xml:space="preserve">
<style type="text/css">
	
		.st0{clip-path:url(#SVGID_2_);fill:#324152;stroke:#324152;stroke-width:10;stroke-linecap:round;stroke-linejoin:bevel;stroke-miterlimit:10;}
	.st1{clip-path:url(#SVGID_2_);fill:#324152;stroke:#324152;stroke-width:4;stroke-linecap:round;stroke-miterlimit:10;}
</style>
<g>
	<defs>
		<rect id="SVGID_1_" x="5.2" y="5" width="790.4" height="326.4"/>
	</defs>
	<clipPath id="SVGID_2_">
		<use xlink:href="#SVGID_1_"  style="overflow:visible;"/>
	</clipPath>
	<path class="st0" d="M778.3,177.2c-2.5,1.3-4.4,2.3-5.6,3c-1.7,1.2-3,2-3.9,2.4l-0.2,0.6l-0.9,0.2c-1,0.9-1.8,1.6-2.4,2h-0.8
		c-1.2,0.8-2.5,1.5-3.9,2.1c-0.4,0.6-1.1,0.9-2.1,0.9c-2.3,1.5-4.2,2.5-5.5,3c-0.9,0.3-1.6,0.7-2,1.1l-0.9,0.3
		c-2.4-0.1-3.8,0.8-4.1,2.7l-0.9,0.2l-0.9,0.9l-0.8,0.2l-0.9,0.9h-0.8l-1.1,0.9c-3.2,0.8-4.5,1.2-3.6,1.2c-1.7,1.2-3.2,2.5-4.4,3.8
		c-4.4,15-6.7,22.6-7.1,22.9c-0.1,2.2-0.4,3.7-0.9,4.6l-0.2,1.1c-0.9,0.7-1.6,2.4-2,5.2l-0.3,0.2l-0.2,1.2l-0.6,0.9v1.1l-1.1,1.4
		c-2,6.8-3.7,11.8-5.2,15.2c-0.7,0.8-1.2,1.5-1.5,2c0-0.4-0.5,0.6-1.5,3c-1.3,1.9-2,3.6-2,5v0.9c-1.3,2.7-2.1,4.4-2.3,5
		c-1.1,1.3-2.5,3.7-4.2,7.3c-1.7,3.5-3.3,6.1-4.8,7.6c-0.4,1.3-0.8,2.3-1.2,2.9c-1.6,1.8-2.6,2.9-2.9,3.3l-0.5,1.8
		c-1.3,1.9-2.2,3-2.6,3.2c-0.5,0.9-0.9,1.6-1.2,2l-2,1.2l-0.2,0.5c-1,1-1.8,2.2-2.3,3.5h-0.5c-1.5,1.5-2.3,2.4-2.4,2.6
		c-1.5,0.9-3.2,2.4-5.2,4.6l-0.3,0.2l-0.6,0.9c-2.4,1-4.3,1.7-5.6,2.1c-3.3,3-5.2,4.8-5.5,5.2c-2.7,0-4.8,0.7-6.1,2h-1.1l-0.5,0.6
		c-0.9,0.4-3.1,0.5-6.7,0.3c-2.9-2.1-5.7-3.7-8.4-4.9l-0.2-0.8l-0.8-0.9c-0.2-1.8-0.6-2.7-1.2-2.7l0.2-0.3c-0.5-2.9-1-5.2-1.5-6.7
		l-0.6-0.2c0-4.7-0.7-8.3-2-10.9v-12.6c0.6-0.3,0.9-1.5,0.9-3.6c0.6-0.6,1-1.6,1.1-3l0.6-0.6c0.3-1.3,0.5-2.1,0.5-2.4
		c0.6-1.3,1.3-2.2,2-2.7c0-0.6,0.4-1.5,1.1-2.7s1.1-2.2,1.1-2.9c2.9-3.2,4.6-5.1,5-5.6c0.3-1.2,0.6-2.1,0.8-2.7
		c1-0.5,1.8-1.1,2.4-1.8v-0.8l0.9-0.8l0.2-0.8l1.1-1.5c0.9-0.4,1.7-1,2.3-1.7c2.3-0.2,3.9-0.9,4.9-2.1c0.9-0.2,1.6-0.6,2-1.1
		l0.9-0.2l0.2-0.5c3.4-3.2,5.8-5.9,7.1-8l0.2-0.9c2.1-2.2,3.8-3.8,5-4.7l0.8-0.2c0.8-1,1.6-1.6,2.3-1.8c2.6-1.2,4.3-2.4,5-3.5
		l0.2-0.8h0.9l0.2-1.1c0.6,0,0.9-0.4,0.9-1.2c0.8-0.6,1.5-0.9,2-0.8l0.3-0.6l0.9-0.5c0.2,0,1.8-0.8,4.9-2.4l0.3-0.6l1.1-0.9l0.5-0.2
		c1.9-2.3,3.4-4,4.6-5.2h0.9c0.9-1.1,2.3-1.8,4.1-2c0.6-0.8,1.3-1.5,2.1-2.1c1.4-0.4,2.4-0.8,3-1.1c0.8-0.7,1.7-1.1,2.6-1.1
		c1.3-1,2.5-1.8,3.5-2.3l0.2-0.6c1.9-1.4,3.3-2.6,4.1-3.6c0.1-6.5,1-11,2.7-13.7c0.4-2.6,0.7-4.7,0.9-6.1c0.3-1.1,0.5-2.3,0.5-3.5
		l0.9-1.1l0.2-0.8c0.8-1,1.4-1.8,1.7-2.3v-1.1l-0.8-0.6l-1.8,0.8l-2.1,2.1c-0.6,1.1-1.1,2-1.5,2.6c-2.4,1.9-4.2,3.4-5.3,4.6
		c-0.3,1-1.9,2.8-4.9,5.3c-2.9,2.5-5.1,4.2-6.4,4.9c-1.7,0.4-3.1,0.7-4.1,0.8c-0.1,1.1-0.3,1.9-0.6,2.3l-1.4,1.1l-2.1,0.2l-0.3,0.2
		c-2.9,0.3-6.1-0.2-9.4-1.4c-0.5-1.3-0.7-2.1-0.6-2.3l-2.4-0.5l-0.2-0.5c-0.8-0.5-1.5-1.1-2.1-1.8l-0.5-0.2l-0.5-0.8l-0.6-0.2
		l-0.5-1.1h-0.9c0,0.1-0.3-0.4-0.9-1.5c0-0.3-0.1-0.8-0.2-1.4c-0.2-0.6-0.2-1.1-0.2-1.4c0-0.8,0.2-2,0.5-3.5
		c0.4-1.5,0.5-2.6,0.5-3.3l0.3-0.3v-5.9c0.8-1,1.2-2.1,1.1-3.2h0.5c1.5-4.4,2.4-8.9,2.7-13.5c0.8-1.1,1.4-1.8,1.8-2l0.8-1.4l0.3-4.6
		c0.8-0.6,1.2-1.3,1.1-2.1h0.5c0.6-1.1,1.1-1.8,1.5-2.1c0-0.5,0.2-1.2,0.6-2.1c0.4-0.9,0.6-1.5,0.6-2.1h0.5c0.7-1.2,1.7-2.5,2.9-3.9
		l0.6-0.3l0.2-0.8l0.9-1.1h0.9c0.2-1.3,1-2.7,2.3-4.1h2.9c1.8,0.9,3.3,2.1,4.4,3.5l0.2,0.5c2.3,1.3,4.3,3.1,5.8,5.5l-1.1,1.8
		c-1.8,0.4-2.9,1.1-3.2,2c-0.7,0.7-1.2,1.1-1.4,1.2c-0.5,1-1.2,2-2,3h-0.6v0.9c-0.7,0.8-1.2,1.5-1.4,2l-0.8,0.3v0.8
		c-0.7,0.9-1.2,1.6-1.4,2.1l-0.6,0.2l-0.2,1.5l-3.9,4.6v1.5c0.1,0.6,0.2,1.1,0.2,1.4c0,0.1-0.5,1.5-1.5,4.3l-1.4,1.1
		c-1.3,5.1-2.4,8.8-3.2,11.2l-0.3,0.2c-0.2-1.3-0.3,1-0.3,6.8c0,0.1,0.5,2.1,1.5,5.9c1.6,0.9,2.8,1.4,3.6,1.4c0.4,0,1-0.3,1.9-0.9
		c0.9-0.6,1.9-1,3.1-1.1l1.2-0.9l0.9-0.2l1.2-0.9l0.3-0.8c0.5-0.2,1.1-0.7,1.7-1.4c1.3-0.4,2.3-0.8,2.8-1.3c0.6-0.5,1.3-0.7,2.2-0.8
		l1.4-0.9l0.2-0.6c2.3-1.8,4-3.3,5-4.6v-0.6c0.6-0.2,1.3-0.7,2.1-1.5v-0.9l1.4-2l0.6-0.3v-0.9c0.6-0.7,1.6-1.4,3-2l0.2-0.6l0.8-0.5
		c1.4-1.9,2.5-3.3,3.2-4.3l0.2-0.8h0.5c1-1.6,2-3,2.9-4.1l0.6-0.3v-0.8l1.1-0.6l0.2-0.8c0.7-0.6,1-1.2,0.9-1.7
		c0.3,0,0.7-0.5,1.1-1.4c1.9-0.7,3.3-4,4.1-9.9c0.7-0.7,1.1-1.6,1.1-2.7l0.9-0.9l0.2-1.5c0.7-0.5,1-1.2,0.9-2.1l0.6-0.2l0.3-0.3
		l0.2-0.8l1.4-1.8h0.5c0.6-0.9,1.5-1.2,2.7-0.9c1,0.3,2,0.6,3,0.9c3.4,2,6,3.5,7.7,4.4l0.2,0.6h0.8c0.9,0.5,1.4,1.6,1.4,3.3
		c-1,0.8-1.8,1.4-2.4,1.7l-0.8,0.2l-0.2,0.6c-2.1,1.8-3.3,3-3.5,3.5c-1.5,0.4-2.8,2.4-3.8,6.1c-0.9,1.1-1.5,2-1.8,2.6
		c-0.7,2-1.4,3.6-2.1,4.9c-0.1,0.9-1.7,5.6-4.7,14c-3,8.5-4.9,13.2-5.5,14.4l-0.2,1.1l-1.1,1.2v1.1c0.8,0.1,2,0.1,3.6-0.2
		c1.1-1,2-1.7,2.7-2l0.8-0.2c2.7-1.8,5.2-3.1,7.3-3.9l0.9-0.2l1.2-0.9h0.8l0.9-0.9l0.9-0.2c1.3-1.2,3.2-1.9,5.8-2
		c5.4-3.6,9.4-6.4,12.1-8.2c1.2-0.6,1.9-1,2-1.1l0.9-0.2l0.2-0.5c1.2-0.4,1.9-0.6,2-0.6c0.8-0.2,1.4-0.1,1.7,0.3
		c0.3,0.4,0.5,1.4,0.5,2.9C779.1,175.9,778.6,176.7,778.3,177.2 M717.8,212.4c-1.3,0.3-2.3,0.6-2.9,0.8c-2.2,1.1-3.6,2.1-4.3,2.9
		c-0.4,0-1,0.4-1.8,1.1l-0.8,0.2c-1.9,1.3-3.4,2.3-4.4,2.9h-0.9l-1.7,2.1l-0.9,0.2l-3.6,2.9h-0.9v0.2l-4.3,3.9l-0.5,0.2
		c-0.8,1.2-1.8,2.3-2.9,3.3l-0.6,0.2v0.5l-0.9,0.5l-0.3,0.6l-1.7,1.1c-0.8,1.3-2,2.9-3.6,4.9c-0.9,0.6-1.6,1.2-2,1.7l-0.2,0.6
		c-2,1.4-3.2,2.4-3.6,3h-0.9l-0.2,0.6c-0.5,0.3-2,1.9-4.4,4.7c-2.4,2.8-3.7,4.5-3.8,4.9c-1.4,1.5-2.4,2.9-3,4.1l-0.9,0.6l-0.2,0.6
		h-0.9c-2.7,3.5-4.1,6.1-4.1,7.6c-0.2,1.1-0.6,1.8-1.1,2.1c-0.5,1.6-1,2.8-1.5,3.5c-3.4,3.8-5.5,9.5-6.1,17l-0.5,0.6
		c0,1.5-0.6,3.8-1.7,6.8c-1.1,3-1.7,5.3-1.7,6.9l0.8,5.3l-0.3,0.3c0.7,2.6,1.3,4.6,1.7,5.9c0.8,0.7,1.5,1.2,2,1.5
		c0.3,0.6,1,1.2,2,1.8c1.9,0.4,4,0.3,6.2-0.5c2.6-1,4.6-1.5,5.8-1.5c0.4-0.4,1.1-0.8,2-1.1c0.9-0.7,1.8-1.4,2.6-2.1l0.2-0.8l0.8-0.6
		c0.2-1,0.9-1.7,2.1-2l1.2-1.7l0.9-0.5l0.2-0.6h0.8l1.1-1.4l0.2-0.8l0.9-1.1v-0.8l0.9-0.6l0.2-0.8l0.6-0.2l1.4-1.8v-1.1l1.1-1.1
		l0.2-1.1c0.4-0.4,0.9-1,1.4-1.8h0.5l0.2-0.8l0.5-0.3l2.1-3l0.3-0.2c1.9-2.3,3-3.6,3.2-3.9V288l0.6-0.2c0.7-1.4,1.4-2.4,2-3h0.5
		c1-1.3,1.4-2.5,1.2-3.6l0.9-1.7c1.2-1.1,2.1-2,2.6-2.7l0.5-0.2c0-0.4,0.2-1,0.5-1.7c0.4-0.7,0.5-1.3,0.5-1.7c1-1.7,1.7-3,2-3.9
		c0-1.4,0.4-2.4,1.1-3l0.2-0.8l0.9-1.4l0.6-0.3l0.9-1.7h0.5c0-1.2,0.3-1.9,0.8-2.1v-2.9h0.6c0.9-1.4,1.5-2.1,1.7-2.1
		c0.7-1.1,1.3-1.9,1.8-2.4c0.8-3.7,1.3-6,1.4-6.7c0.8-1.1,1.4-2,1.7-2.6c0.3-2,0.5-3.4,0.5-4.3c1.8-1.3,2.8-3.7,3-7.1
		c1.1-1.3,1.7-2.8,1.7-4.6c-0.7-1.1-0.9-2.5-0.5-4.3c0.3-1.5,0.7-2.9,1.1-4.3c0.4-1.3,0.7-2.3,0.8-2.9h0.8c0.3-1.1,0.5-2,0.6-2.6
		L717.8,212.4z M680.9,183.7v0.8c-2.6,2.6-4.7,4.8-6.1,6.4v0.5l-0.9,0.5c-1.5,1.9-2.7,3.3-3.6,4.1h-0.5c-0.6,0.9-1.1,1.6-1.4,2
		l-0.3,0.2c-3.7,3.4-6.7,5.8-8.8,7.1c-2,0.2-3.3,0.6-3.9,1.1l-0.2,0.6c-1.2,0.6-1.9,1.1-2.1,1.4h-0.8c-1.6,1.2-3,1.9-4.1,2.1
		l-0.9,0.9H647l-2.1,1.1c-0.7,0-1.5,0.4-2.4,1.1c-4.5,0.7-6.7,1.1-6.8,1.1l-0.8,0.3l-0.6-0.3c-2.6-0.4-4.6-0.8-5.9-1.1
		c-2.4-0.9-4.5-1.4-6.1-1.5c-1-0.3-1.8-0.5-2.4-0.6l-2.4-2c-0.5-2-0.9-3.5-1.1-4.6l-0.2-1.2l-0.9-1.1v-11.2c1.9-3.3,2.9-5.5,2.9-6.4
		l0.2-0.3v-2.3c2.3-1.1,4-2,5-2.7c1-0.7,1.7-1.3,2-1.9c0,0.4-0.2-1.3-0.6-5.2c-0.3-2.2-0.1-3.8,0.8-4.9l0.2-0.8l0.9-0.8
		c0.5-1.8,1.6-3.5,3.2-5.2V160c0.5-0.3,0.8-1,0.9-2c0.8-1,1.4-1.8,1.8-2.3v-5.9c-1.7-1.2-3-2.3-3.8-3.3l-0.2-0.8l-0.5-0.2l-0.5-0.9
		l-0.6-0.2l-0.6-0.9l-0.8-0.2c-0.5-0.8-1.3-1.5-2.3-2l-0.6-1.1l-2.3,1.1c-0.1,0.5-0.5,0.9-1.1,1.2v0.8l-2.4,4.1
		c-0.5,0.4-1,0.8-1.5,1.1l-1.1,1.5c0,0.8-0.4,1.5-1.2,2.1c-0.1,0.9-0.7,2.5-1.9,4.8c-1.2,2.3-2.1,3.6-2.8,4c-0.1,0.6-1.1,2.3-3,4.9
		c-1.9,2.7-3.1,4.1-3.6,4.3c-0.8,1.3-1.5,2.3-2,2.9l-0.5,0.2l-1.4,1.4l-0.2,0.6c-1.4,1-2.4,1.8-3,2.3v0.3l-0.9,0.5l-0.3,0.6
		c-1.2,1-2.1,1.9-2.7,2.6l-0.2,0.5l-0.8,0.6c-0.8,1.3-1.8,2-2.9,2l-1.5-0.8c-0.2-1.5-0.2-2.9,0-4.3c4-4.4,6.1-6.7,6.2-7
		c1.3-1.1,2-1.9,2-2.3c2.8-2.8,5.2-5.3,7.1-7.3c0.8-1.4,1.2-2.2,1.2-2.3l0.9-1.8l0.6-0.2c0.7-1,1.5-2,2.4-3v-0.9h0.6
		c0.3-1.2,0.8-2.1,1.4-2.6c0.2-1.7,0.9-2.9,2.1-3.6l0.8-1.4l0.3-2.6l1.1-0.9l0.2-0.9c0.8-0.4,1.1-1.2,0.9-2.3
		c0.6-2.8,0.9-5.4,0.9-7.7c0.7-2.8,1.1-4.9,1.1-6.2l0.3-0.3c0.1-0.6,0.4-1.4,0.8-2.4c-0.8-2.2-1.6-3.8-2.4-4.9
		c0-0.5,0.2-1.1,0.7-1.7c0.5-0.7,0.7-1.1,0.7-1.3l0.9-0.2l0.2-0.5c2.4-1.4,4.2-2.1,5.3-2c1.8,0.5,3.6,1,5.5,1.5
		c2.1,1.8,3.7,3.2,4.9,4.1l1.7,2.9c0,0.7,0.2,1.3,0.5,1.7l-0.3,0.6c0,0.8-0.4,1.8-1.1,2.9c-0.8,1.1-0.9,2.7-0.4,4.7
		c0.2,1.5,0.4,2.7,0.5,3.5c0.8,0.9,1.5,1.6,2.1,2.2c0.6,0.6,1,1.1,1.1,1.6c2.4,0.7,4.3,1,5.5,0.8c2.5-0.4,4.2-0.6,4.9-0.6l0.3,0.2
		c2.9-0.1,5.7,2,8.4,6.4c0,2.3-0.6,4.1-1.7,5.2c0,0.6-0.4,1.4-1.1,2.4l-0.9,0.5c-1.4,2-2.4,3.6-3,4.7c-0.6,1.1-1,1.9-1.3,2.4
		l-0.5,0.2c-1.3,2.6-2.2,4.3-2.6,5h-0.5c-0.9,1.2-2.5,4.2-4.6,9c-2.2,4.8-3.3,7.8-3.4,9l-0.6,0.6c-1,2.8-1.9,4.9-2.6,6.2
		c-0.6,0.7-1.1,3-1.5,6.8c-0.4,3.8-0.5,6.3-0.2,7.5c1.9,2.1,3,3.4,3.3,3.8c0.8,0,1.5,0.2,2,0.5c1.7-0.4,3-0.6,3.9-0.5l0.2-0.2
		c1.3-0.3,2.3-0.6,2.9-0.8c1.6-1.2,2.5-1.9,2.6-2c1-0.2,1.7-0.5,2-0.9l1.2-0.2c0.6-0.7,1.3-1.1,2.1-1.2c2.9-1.6,5.4-2.9,7.3-3.8
		l0.8-0.2c2.9-2.3,5.1-4.1,6.5-5.3l0.2-0.9c0.9-0.4,1.6-1,2.1-1.8l0.8-0.3l0.3-0.5l0.8-0.5c0.1-0.5,0.5-0.9,1.1-1.2l0.2-0.8l1.1-0.9
		l0.9-0.2c0.1-0.5,0.5-0.9,1.1-1.2v-0.8h0.5c0.7-1.1,1.3-1.9,1.7-2.4c1.5-1,2.5-2,3-2.9v-0.9l1.1-1.1h1.5l0.8,0.8l0.5,1.4
		C682,182.3,681.4,183.4,680.9,183.7 M587.4,183.8l-0.6,0.2c-1.1,1.4-2,2.4-2.6,3l-0.8,0.2c-6.5,4.3-10.7,6.8-12.8,7.7
		c-4.1,1.8-9,2.7-14.9,2.7c-1.6,0-3.7-0.4-6.2-1.1c-2.5-0.8-4.2-1.1-5.1-1.1c-2.5,0-4.7,1.7-6.4,5h-0.6l-0.2,0.6
		c-1.9,1.7-3.7,3.9-5.5,6.5l-0.8,0.3c-1.8,2.5-3.3,4.4-4.4,5.5c-1.4,0.9-2.7,1.4-3.8,1.5c-4.3,3.4-6.9,5.2-8,5.2
		c-4.1,2.6-7,3.9-9,3.9c-0.8,0-2.1-0.5-3.9-1.5c-1.8-1-3.6-1.6-5.5-1.7c-0.3-0.6-1.1-0.9-2.4-0.9l-0.2-0.5c-1.4-0.8-2.4-1.5-3-2V217
		l-0.9-0.2l-2-2v-0.9l-1.2-0.3v-0.8c-0.9-1.4-1.6-2.5-2-3.3c0-1.5-0.4-2.6-1.1-3.3c-0.2-2.1-0.2-3.6,0-4.6l1.1-1.8l1.1-0.8v-1.2
		l0.8-1.7c0-0.5-0.2-2.1-0.6-4.7c-0.3-2-0.4-3.4-0.2-4.3c0.6-0.7,0.9-3.8,0.9-9.3c0.7-0.9,1.1-2.2,1.1-3.8c0-0.6,0.4-1.4,1.1-2.5
		c0.7-1.1,1.1-1.7,1.1-1.9h0.5c0.3-0.6,0.5-1.8,0.5-3.6c0.7-1.1,1.1-1.6,1.1-1.5c0.9-0.1,1.6-1.1,2.1-3l0.9-1.2
		c0.8-3,1.5-5.3,2.1-6.7l1.1-0.9c0.2-2.3,0-4.2-0.5-5.5l-0.6-0.2c-0.4-4.2-0.8-7.3-1.1-9.4l1.1-1.8l1.8-0.5l1.2-1.7l-0.5-0.9
		l-0.6-0.2l0.2-0.5l-1.1-0.9c-0.1-0.8-0.1-2.7,0-5.8l0.5,0.2l0.6-1.5c0.8-0.4,1.8-1,2.9-1.8l0.2-0.5c1.8-1.1,3.2-2.1,4-2.8
		c0.9-0.8,2.8-1.1,5.7-1.1l0.2-0.3c1.1-0.1,3.6-1.1,7.6-2.9c3.6-1.7,6.8-2.6,9.4-2.6h15c1.2,0,2.6,0.7,4.3,2l0.9,0.2
		c3.3,3.4,5.3,5.5,5.8,6.2c0.9,3.2,1.7,5.7,2.4,7.3c1.3,3.4,2,6.7,2.1,9.9l0.2,0.3c0.1,1.7,0.2,3,0.2,3.8l0.3,0.3l0.3,6.7l-0.2,0.2
		l-0.2,2.1l-0.3,0.2c-0.2,1.7-0.4,3-0.5,3.9c-0.7,0.9-1.5,3.5-2.4,7.9c-0.8,3.9-1.7,6.3-2.6,7c-2,6.4-3,10.4-3,12
		c0,0.4-0.2,0.9-0.6,1.6c-0.4,0.7-0.6,1.1-0.5,1.4l-3,3l-0.2,1.5l-0.3,0.3c0.9,1.2,1.8,2,2.6,2.3c8.5,0.7,11.8,1.1,10,1.1
		c0.8,0,2-0.2,3.6-0.5c1.6-0.4,2.8-0.5,3.6-0.5c0.4-0.4,1.1-0.8,2-1.1c0.9-0.9,1.7-1.6,2.3-2c1.6-0.4,2.8-0.8,3.6-1.1
		c1.5-1.2,2.7-2.1,3.5-2.7c0.8-0.2,1.5-0.7,2.1-1.4h0.8c1.6-1.7,2.4-2.7,2.3-3c1-0.7,1.7-1.4,2.1-2.1h2.7l0.6,2
		C588.6,182,588.2,183,587.4,183.8 M551.5,145.1l-1.8-1.5v-1.7l-0.6-0.2c0.6-2.2-0.3-4.6-2.7-7.1c-0.5-1.6-0.8-2.4-0.9-2.4l-0.2-1.5
		c-1.2-1-2.6-2.7-4.1-5l-0.2-0.8c-1.2-1.1-2-1.7-2.4-1.8c-1.3-1.1-2.3-2-2.9-2.6c-0.4,0-1-0.2-1.7-0.6c-0.8-0.4-1.4-0.6-1.9-0.6
		c-5.8,0-10.2,0.7-13.4,2.1c-1.8,1-3.2,1.8-4.1,2.4l-0.2,0.6h-0.9c-0.5,0.9-1.2,1.6-2.1,2.1c-0.9,1.9-1.8,3.3-2.6,4.1
		c-1.2,2.2-2,3.9-2.4,5.2c0,0.8-0.2,2.1-0.5,3.9c-0.4,1.8-0.5,3.2-0.5,4.2h1.4l0.5-2l0.5,0.2c2.8-2.5,6.4-3.2,10.6-2.1
		c0.7,0.6,1.4,0.9,2,0.9l0.5,1.1c1.3,0,2.3,0.1,2.9,0.2v1.8c1.9,2,2.9,3.5,2.9,4.6l-1.8,1.7l-0.8,0.2l-1.2,0.8l-0.9,0.2
		c-1.2,1.2-2.2,2-3,2.4l-0.2,0.5l-0.9,0.2l-0.2,0.6c-1.2,0.9-2,1.7-2.4,2.4l-0.5,0.2l-0.2,0.9c-0.6,0.8-1.2,1.3-1.8,1.5l-0.3,0.6
		h-0.9c0,0.4-0.2,1-0.5,1.9c-0.3,0.9-0.5,1.5-0.5,2.1h0.2c2,3.3,3.6,5.8,4.9,7.4l0.2,0.9c4,4.7,7.1,7.6,9.3,8.8
		c1.1,0.2,1.9,0.4,2.4,0.5c1.9,1.3,3.3,2.3,4.1,3c0.3,0.1,0.8,0.3,1.6,0.6c0.8,0.3,1.4,0.5,1.9,0.5l1.8,1.1l2.7-0.2
		c0.7-0.8,1.2-1.4,1.5-1.8l0.2-0.8l1.1-0.9v-0.8l0.9-0.9c0-0.4,0.2-1,0.7-1.9c0.5-0.9,0.6-1.5,0.5-2.1c0.7-0.3,1.1-1.1,1.1-2.3
		c0.7-0.3,1-1.2,0.9-2.7c0.8-0.6,1.2-1.4,1.1-2.4l0.9-0.9c0.2-1.2,0.8-3.7,1.7-7.6c0.8-3,1.2-5.6,1.2-7.6l0.2-0.3l0.2-1.5
		C552.9,151.4,552.9,149,551.5,145.1 M536,193.3l-1.1-0.9l-0.8-0.2c-2.6-1.3-4.7-2.1-6.2-2.4l-0.2-0.6c-0.4-0.4-2.3-1.5-5.7-3.3
		c-3.4-1.8-5.4-2.8-6-2.9c-2-1.4-3.6-2.4-4.9-2.9c-1.4-1.8-2.7-3-3.8-3.5c-0.7-1.5-1.6-2.7-2.6-3.5h-0.6l-1.1,1.2
		c-0.4,1.6-0.8,2.8-1.1,3.5c-0.8,0.7-1.5,2.3-2,4.7c-0.9,1.7-1.4,3.1-1.4,4.1c-0.8,2.6-1.2,4.7-1.1,6.2l-0.3,0.2
		c-0.1,1.6-0.4,3.5-0.8,5.8c-0.4,2.2-0.6,3.8-0.6,4.7c0,2.6,1.2,5.7,3.6,9.3l0.3,0.2c0.1,0.6,0.5,0.9,1.1,0.9l0.6,0.9l1.7,1.1
		c-0.7-0.1,3.3-0.5,12.1-1.1c0.8-0.8,1.6-1.2,2.3-1.1c0.9-0.8,1.6-1.4,2.1-1.8l0.8-0.5l0.2-0.6l0.9-0.2v-0.8l0.6-0.3
		c1.5-1.5,2.7-2.6,3.5-3.3v-0.6l0.9-0.5c1.7-1.9,3.3-3.5,4.7-4.7h0.5l0.2-0.9c0.5-0.2,0.9-0.6,1.1-1.1l0.8-0.5l0.2-0.9l0.9-0.9
		c0.4-1,0.8-1.8,1.1-2.3V193.3z M488.2,189.3l-0.5,0.2l-0.2,0.6l-0.9,0.5l-0.2,0.6l-0.9,0.3v0.8l-0.9,0.3c-1.4,1.4-2.5,2.5-3.2,3.3
		l-0.2,0.8h-0.5l-0.5,0.9l-0.6,0.2c-2.3,2.4-4,4.4-5,5.8c-3.3,2.1-5.7,3.9-7.1,5.5c-1.1,0.4-1.9,0.7-2.4,0.8c-0.5,0.2-1.5,0.7-3,1.6
		l-0.6,1.2c-1.8,1.5-5.5,2-10.9,1.4c-1-1.7-1.8-3-2.4-3.8l-0.6-0.2l-0.5-1.8l-3.3-5c-0.3-0.6-0.4-2.7-0.3-6.4l0.3-0.2l0.3-2.9
		l0.3-0.3c0.2-0.6,0.2-1.2,0-1.8l-0.3-0.2c0-3,0.2-6,0.5-9c0.7-2.7,1.1-4.8,1.1-6.2c0.6-0.6,0.9-3.3,0.9-8.2l-1.5-1.2l-1.7,1.1
		l-0.8,0.2l-0.2,0.5c-2.1,1.7-3.7,2.9-4.9,3.5l-0.3,0.6c-0.7,0.2-1.4,0.7-2,1.5v0.9c-2.2,1.5-3.9,2.9-5,4.3l-0.2,0.6l-0.9,0.5
		l-0.2,0.5l-0.9,0.5c-0.7,1.2-1.4,2.2-2.1,3h-0.6l-1.8,3l-0.6,0.2l-0.3,0.9l-0.5,0.2c-1.1,2.3-3.2,4.8-6.2,7.3
		c-0.1,0.7-0.5,1.4-1.1,2c-0.2,1-0.6,1.7-1.1,2l-0.3,1.8l-0.6,0.6c-1.6,4.1-2.9,6.6-3.9,7.7l-1.1,0.5l-5.3,0.2
		c-2.9,0.1-4.4-1.6-4.4-5c0-1.8,0.5-4.6,1.5-8.4c1-3.8,1.5-6.1,1.5-6.9l0.3-0.2v-7.7c0.3-0.5,1.1-4.4,2.4-11.5
		c1.3-7.2,2-11.3,2-12.5c0-1.5-0.4-2.3-1.1-2.4l-0.3,0.3c-2.1,0-3.9,1.5-5.5,4.4l-0.6,0.3l-0.2,0.8c-0.9,0.7-1.6,1.4-2,2
		c-1.9,2.4-3.7,4.2-5.5,5.3c-0.3,0.1-0.5,0.3-0.6,0.6l-0.9,0.5l-1.2,1.8l-0.6,0.2l-0.5,0.9c-1.5,1.8-2.5,3.3-3,4.4v0.8
		c-3,4.1-5.2,7.1-6.5,9.3l-0.6,0.2l-0.2,0.9l-0.9,1.2v0.8c-0.9,1.1-1.6,2-2,2.6l-0.5,1.5l-0.5,0.2l-0.2,0.9l-0.9,0.9
		c0,1-0.4,2.5-1.3,4.5c-0.9,2-1.3,3.5-1.3,4.5c-1,1.5-1.6,2.7-1.7,3.6v6.7l-1.1,1.4c-0.8,0-1.8-0.2-3-0.5c-1.5-0.3-2.5-0.5-3-0.6
		l-0.5-0.6c-2.1-1-3.9-1.5-5.3-1.5c-2.4-2.2-3.6-3.7-3.6-4.6c0-0.2,0.4-0.7,1.1-1.4c0.7-0.8,1.1-1.6,1.2-2.7l0.9-0.6l0.2-1.1
		l0.9-0.9l0.2-0.9c1.2-1,1.9-2.3,2-3.9c0.4-0.3,1.2-2,2.3-5.2c1.1-3.1,1.7-5.1,1.8-5.8l0.6-0.6c0.5-2.9,1-5.1,1.4-6.5
		c0.5-0.4,0.9-1.1,1.1-2.1c1.2-1.4,1.9-3.9,2-7.4c0.1-3.5,0.8-6.1,2-7.6c0.2-0.9,0.6-1.6,1.1-2c0.1-3.4,0.5-6.2,1.1-8.4
		c0.6-2.2,1-3.1,1.1-2.8h0.6l0.6-1.5c0.8-0.5,1.1-1.3,0.9-2.4c0.5-0.4,0.9-1.1,1.1-2c0.5-0.4,0.8-1.1,0.9-2.1
		c0.7-1.7,1.1-3.1,1.1-4.1c0.9-1,1.6-1.8,2-2.3l0.2-0.8l0.5-0.2c2.7-3.2,4.8-4.9,6.2-4.9c1,0,2.3,0.3,3.8,0.9l0.8,0.9
		c2.1,0.7,3.7,1.4,4.7,2.1l1.1,1.4c0,1.1-0.6,2.3-1.8,3.6l-0.8,0.2c-0.1,0.2-1,1-2.6,2.3c-1.1,0.9-1.7,2.6-1.7,5l-0.3,0.8l-0.8,0.2
		v0.8c-1,1.1-1.7,2-2,2.7l-0.5,1.5h-0.5l-0.2,0.9c-1.9,2.8-3.3,4.7-4.1,5.6l-2.1,5.8c-0.8,2.2-1.3,4.2-1.4,5.8
		c-1.1,1.6-2,2.8-2.6,3.6c-0.5,1.7-1,3-1.5,3.8l-0.5,0.3c0,0.6-0.3,1.6-0.8,2.9c-0.4,0.9-0.5,2-0.3,3.3l0.3-0.2l1.5-0.2l0.2-0.5
		c1.6-1.2,2.6-2.2,3-3v-1.2c1.8-2.2,3.1-3.9,3.9-5l0.2-1.4c0.6-0.9,1-1.6,1.1-2.1c3.2-4.7,6-8.1,8.2-10.3h0.8l0.3-0.6l1.5-0.8
		c2.1-3.5,4.7-6.8,7.6-9.7c0.8-0.6,1.4-1.2,1.7-1.7c1.2-1.3,2.4-2.2,3.5-2.7c0.5-1.5,0.9-2.6,1.1-3.3c2.4-0.5,4.2,0,5.3,1.4l0.8,0.2
		c0.6,0.6,1.3,1,2,1.1c0.8,0.7,1.5,1.2,2.1,1.4l0.2,0.5c0.4,0,0.9,0.2,1.5,0.7c0.6,0.5,1.1,0.6,1.5,0.5v0.5c1.2,0.7,2.1,1.2,2.7,1.5
		l0.5,2.4c-0.2,0.2-0.3,2.1-0.3,5.6c0,1-0.5,3.5-1.6,7.4c-1.1,3.9-1.8,6.2-2.4,6.8l-0.2,0.8c-0.3,0.1-0.6,0.6-0.9,1.4
		c-0.3,0.8-0.6,1.2-0.9,1.2c-0.7,3.2-1.4,5.6-2.1,7.1l-1.1,1.2l-0.2,0.8c-2.5,1.9-3.1,4.7-1.7,8.2l2-2c1.1-1.3,1.8-2.4,2-3.3
		c1-1.2,1.8-2.1,2.4-2.7l0.5-0.2l0.2-0.9l0.5-0.2c1.7-1.6,3.4-3.2,5-4.9c2.4-2.3,3.6-4,3.6-5.2l1.1-1.7c0.9-0.7,1.6-1.3,2-1.8
		l0.6-0.2l1.2-1.5l0.3-0.2c0.8-1,1.5-1.7,2.1-2l0.8-0.9c1-0.4,1.7-0.8,2.1-1.1l0.9-0.2c1-0.8,1.8-1.4,2.3-1.8l0.5-0.2
		c0.7-1.2,1.8-2.3,3.2-3.3c1.6-1.8,2.8-2.8,3.6-2.9c3,1.2,5.4,2.1,7,2.6v0.3c1.3,1,2.3,1.8,2.9,2.4c0.8,1.1,1.6,2.2,2.4,3.3
		c0.3,0.5,0.3,2.4,0,5.8H461c-0.3,6.9-2,14.3-5.2,22.2c0.4,2.4,0.8,4.3,1.1,5.5l0.3,0.2v1.8l-0.3,0.2v2l1.5,1.1l0.6,1.1
		c0.9,0.3,1.6,0.7,2,1.1c1.4,0.2,3.7-0.3,7-1.5l0.2-0.6c0.7-0.6,1.4-1.3,2.1-2l0.8-0.2l0.2-0.5c2.3-1.8,4-3.3,5.2-4.6l0.5-0.2
		c1.2-1.3,2.1-2.3,2.7-2.9l0.5-0.2c2.6-3.2,4.1-4.9,4.4-5l1.2-1.2v-0.9h0.6c0.6-1.4,1.1-2.2,1.4-2.4l0.2-1.2
		c0.5-0.4,0.8-1.1,0.9-2.1c1.1-1.1,2.4-1.7,3.8-1.7c1.6,0,2.4,0.8,2.4,2.4c0,0.5-0.1,1-0.2,1.5C491.7,184.4,489.5,187.2,488.2,189.3
		 M365.6,186c-0.4,0.4-0.9,0.8-1.5,1.2l-0.5,0.8l-0.5,0.2c-3.1,2.3-5.6,4-7.3,5l-1.2,1.7c-1.1,0.6-1.9,1.1-2.4,1.5l-0.6,0.9l-2,1.2
		l-0.2,0.5c-0.7,0.4-1.4,0.9-2,1.5h-0.3l-3.6,1.4v0.8h-0.9l-0.3,0.6c-1.3,0.8-2.4,1.6-3.3,2.3c-0.8,0.1-2.6,0.5-5.3,1.2
		c-2.1,0.6-3.9,0.9-5.3,0.9c-2.9,0-6.1-0.2-9.4-0.6l-0.2-0.3c-1.2,0.3-2.7,0.1-4.6-0.8c-2.2-0.9-3.7-1.4-4.6-1.4l-0.9-1.1h-0.8
		c-1.2-0.6-2.1-1.3-2.6-2l-0.9-0.2c-2.3-1.7-4.1-3.1-5.2-4.1c-0.1-1-0.4-1.7-0.9-2c-0.5-1.4-0.9-2.1-1.1-2.1c0-0.9-0.4-1.6-1.1-2.1
		c-0.3-1.1-0.7-1.8-1.1-2v-7l0.5-1.1c0.8-1,1.3-1.9,1.5-2.6c1.3-5.1,2.4-8.9,3.2-11.4l1.1-0.6c2.9-7.7,5-13.6,6.2-17.8
		c0.7-0.5,1.1-1.4,1.1-2.6l0.5-0.2l0.5-1.4c2-2,3.5-3.6,4.6-4.7c0.6-1,1.1-1.7,1.5-2.1l0.2-1.2c0.7-0.6,1-1.2,0.9-1.7h0.6
		c0.4-0.8,1.2-1.7,2.4-2.6l0.2-0.9c1.2-1.7,2.9-3.6,5.2-5.8h0.3l0.6-0.9c0.6,0,1-0.5,1.1-1.4c0.8-0.8,1.5-1.4,2-1.8
		c1.4-0.5,2.5-1,3.2-1.4c0.1,0,3.1,0.5,9.1,1.4c5.9,4.8,8.8,9.7,8.8,14.7c0,1.8-0.3,3.8-0.9,6.1l-0.6,0.6c-0.2,1.8-1.9,5.2-5.2,10.2
		l-0.2,0.9c-1.8,2.2-3.1,4-3.7,5.5c-0.7,1.4-1.2,2.4-1.7,3h-1.5c0,2.2-0.9,4.2-2.6,5.8c-1.7,1.6-3.4,3.2-5.2,4.7l-0.5,0.2l-0.2,0.6
		l-2,1.2v0.5l-0.9,0.5l-0.3,0.6c-2.7,2.4-4.6,3.6-5.5,3.6c-3.4,2-6,3.5-7.7,4.4l-0.2,1.4l-0.2-0.2v0.2l0.3,0.3v2.9
		c0.6,0.8,1,1.8,1.1,3l1.1,1.2v0.3c2.8,3.1,5,5.4,6.5,6.8c0.7,0.1,1.7,0.4,3,0.9c1.3,0.5,2.4,0.8,3.2,0.8c1.1,0,3.9-0.8,8.4-2.4
		c4.5-1.6,7.2-2.4,8-2.3c0.9-0.7,1.5-1.3,1.7-1.7l0.8-0.5c2.4-2.1,4.5-3.6,6.2-4.4l1.2-1.7c1.5-0.9,2.8-1.9,3.8-3l0.8-0.2
		c1-0.9,1.9-1.5,2.6-1.8c0.7-0.9,1.7-1.7,3-2.4l0.2-0.3c2.6-1.5,3.9-1.1,3.9,1.4C367.1,182.3,366.6,183.3,365.6,186 M342.1,130.7
		c-1-0.3-2-0.7-2.9-1.1c-0.9-0.3-1.9,0.1-2.9,1.1c-1.1,0-2.8,1.7-5.2,5l-0.9,0.6l-0.2,0.5h-0.9v0.3c-2.3,2.5-3.7,4.5-4.1,5.8
		c-0.8,0.9-1.3,1.6-1.5,2.1c-1,0.5-1.9,2.1-2.6,4.7c-1.5,2-2.5,3.6-3,4.7l-3.3,8h-0.8c0,2.7-0.4,4.5-1.1,5.3
		c-0.3,2.1-0.6,3.7-0.8,4.9h-0.2l-0.2,3l1.1,0.5c4.4-0.1,6.8-1.5,7.3-4.1c2.1-1.4,3.2-2.2,3.3-2.3c3.5-1,5.6-3.4,6.1-7.1
		c2.6-2.3,4.6-4.1,5.8-5.3l0.2-2.6c0.5-0.4,0.8-1.1,0.9-2.1c0.7-0.6,1.1-1.4,1.1-2.3c1.2-1.4,2.1-2.5,2.6-3.3
		c0.2-1.5,0.4-2.7,0.6-3.5l0.9-0.9c0.9-4.3,1.5-7.5,1.7-9.9C342.7,131.8,342.4,131.1,342.1,130.7 M315.2,37.1l-0.5,0.2
		c-3.2,4.3-5.8,7.3-7.6,9.3l-0.2,0.8c-1.3,1.5-2.3,2.7-2.9,3.6v0.2l-1.1,1.7l-0.2,0.8c-2.7,4.5-4.7,7.8-5.9,10.2
		c-0.2,1.7-1.3,3.4-3.2,5.2l-0.2,0.8c-0.3,0.4-0.7,1.5-1.1,3.4c-0.4,1.9-1.1,3-2,3.3c-1.6,1.6-2.6,3.6-3,5.9
		c-1.4,1.5-2.4,2.7-2.9,3.6c-0.4,2.2-0.8,3.9-1.2,5l-2,1.8c-0.2,3.6-1.4,7-3.5,10c-0.4,0.3-0.6,0.7-0.6,1.1
		c-1.3,2.6-2.2,4.7-2.6,6.1c-0.4,0-0.6,0.4-0.6,1.1c-0.7,0.6-1.4,1.7-2,3.2h-0.6c-1.2,2.1-2,3.8-2.4,5h-0.9l-0.2,1.8l-0.9,1.8
		c-0.5,2-1,3.5-1.5,4.6c-2.5,4.5-4.1,6.9-4.7,7.4c0,0.5-1,2.8-3,6.8c-2.1,4.4-3.3,7.1-3.6,8.4c-1.2,2-2,3.7-2.3,5.2l-0.3,0.2
		c-0.4,2.2-0.8,3.8-1.1,4.9c-1,1.4-1.7,2.5-2,3.3c-0.1,2.2-0.8,3.9-2.1,5l0.2,0.5c-1.2,2.8-2.6,6.8-4.1,12l0.2,0.8
		c-0.6,1.2-1,2.9-1.1,5.2c-0.1-0.4-0.2-0.4-0.3,0.2v10.2c1.2,3.5,3.1,4.9,5.8,4.1l0.6-0.9c0.7,0,1-0.2,0.9-0.6l2-1.5
		c-1.5,0-0.2-0.4,4.1-1.1l0.9-1.1c0.2-0.5,0.6-0.8,1.1-0.9l0.2-1.1c0.9,0,1.3-0.2,1.1-0.6l2-1.7l0.2-1.7c1.3-1.7,2-2.6,2-2.7
		c3.1-2.3,5.5-4.4,7-6.1c-0.2-0.4,0.2-0.6,1.1-0.6c2.4-3.2,3.8-5,4.1-5.2l0.5-3.9c-0.2-0.3-0.3-0.6-0.3-0.9l1.1-1.5
		c0.1-0.2,0.4-0.3,0.8-0.3c0.4-0.1,0.6,0,0.6,0.3l2.6,0.3l0.5,0.6l3.3,0.5c0.4,1.3-0.2,2.6-1.7,3.8l-1.1,2.1l-0.6,0.2l-1.4,2.1
		l-0.2,0.9l-1.1,1.1l-0.5,0.2c-1,1.6-2.5,2.9-4.4,3.9c-4,4.5-7.4,7.5-10.2,9.3l-0.3,0.6c-5.9,3.9-10.3,6.8-13.4,8.7l-0.3-0.2
		c-1.9,1-3.4,1.7-4.4,2.1l-3.8-1.1l-1.1,0.5c-2.1-0.5-3.7-1-4.7-1.4c0.2-0.4-0.1-0.9-0.9-1.6c-0.8-0.7-1.2-1.1-1.2-1.4l-0.9-0.6
		c-0.7-1.3-1.1-2.3-1.1-3c-1.5-1.7-2.5-3.5-3-5.5v-1.1c-0.7-0.8-1.1-2.4-1.1-4.7c0-6,1-10.4,3-13.4l0.2-0.8l0.9-0.9l0.2-2
		c0.9-1.5,1.5-2.7,1.8-3.5c0.4-1.9,0.8-3.3,1.1-4.3c1.1-2.5,1.6-4.6,1.5-6.1l0.2-0.3c0.1-0.5,0.4-1.3,0.8-2.5
		c0.5-1.2,0.7-2.1,0.7-2.8l1.1-2.3c1.9-5.9,2.9-10,3-12.3c2.6-5.9,4-8.9,4.1-9l0.5-0.2l0.5-1.5l2.1-2.6l0.2-2
		c2.7-6.8,4.9-12.5,6.5-17c4.7-7,8.4-12.2,11.1-15.8c0.3,0.2,0.6-0.2,0.8-1.1h0.5l1.5-2.6l0.9-0.6l2.1-3c0.1-3.9,0.5-6.1,1.1-6.5
		c0.6-2.9,0.9-4.5,0.9-4.6l-0.8-0.8c0.1,0.3-0.1,0.5-0.6,0.7c-0.5,0.2-0.8,0.3-0.8,0.5l-1.7,1.2c-1.4,1.8-2.5,3.1-3.3,3.9l-0.9,0.5
		c-0.6,1.4-1.5,2.6-2.7,3.5l-0.2,0.5l-1.2,1.2l-0.2,0.6c-2.7,2.9-4.8,5.2-6.1,6.7l-0.5,0.2c-1.8,1.8-2.8,2.9-2.9,3.3l-0.8,0.2
		l-0.9,1.4c-0.2,0.5-0.5,0.9-0.8,1.1c-1.9,2.6-3.8,5-5.6,7c-0.3-0.1-0.6,0.3-0.9,1.1c-1.8,1.4-2.8,2.2-3,2.3l-1.1,2.4
		c-3.9,4.3-6.7,6.5-8.4,6.7l-0.8,0.8l-0.5,3.2c-1.7,1.2-2.9,2.2-3.5,3h-0.8c0.3,1.7-0.6,3.2-2.7,4.5c-2.1,1.3-3.2,2.6-3.3,3.9
		c-0.3-0.4-0.6-0.1-0.8,0.9c-2.2,2-3.9,3.5-5,4.6c-2,2.7-3.1,4.2-3.2,4.3c-0.8,2.1-1.5,3.6-2.1,4.6c-1.3,1.6-2.4,2.7-3.2,3.2
		c-2.4,3.7-4.4,6.4-5.9,8c-1.8,2.4-3,4.5-3.6,6.1c-0.4,0-0.6,0.4-0.6,1.1c-2.1,1.6-5.2,6.8-9.3,15.5c-0.8,0.5-1.8,1.6-2.9,3.2
		l-0.2,1.2l-0.9,1.2c-0.8,2.1-1.5,3.6-2.1,4.6c-2.3,3.3-4.1,5.8-5.3,7.4c0,0.4-0.2,0.7-0.6,0.9c-1.7,3.1-2.9,5.5-3.6,7.1l-0.6,0.2
		c-0.5,1.3-1.2,2.7-2.1,4.1c-0.2,1.7-1.2,3.4-3,5.2v0.8c-1.1,1.6-1.8,2.9-2,3.9l-0.2,0.9c-2.3,2.6-4.1,4.8-5.2,6.5
		c-2.7,0-4.6-0.2-5.5-0.6c-0.5,0.3-4.1,0.2-10.6-0.5l-2.1-1.7c-0.4-3.2-0.6-5.4-0.5-6.4l1.4-1.2c0.4-2.1,0.8-3.7,1.1-4.9l0.6-0.6
		l0.5-3.6l1.5-2.1h0.5c2-7.7,3.5-13.5,4.6-17.3c0.4-0.2,0.7-0.5,0.8-0.9c1.2-1.6,2.2-2.8,2.9-3.5c0.1-0.7,0.5-1.8,1.1-3.3
		c0.7-1.5,1-2.7,1-3.6l1.1-2l0.5-0.2l0.6-1.1c1.4-0.8,2.7-1.9,3.9-3.2c0-3.3,0.7-5.8,2-7.3c0.7-4.6,1.2-8,1.5-10.3l0.3-0.2l0.3-2.6
		h0.6l1.5-2.3c1-4.9,1.7-9.2,2.1-13.1l0.9-1.4c0.4-3,0.8-5.3,1.1-6.8c0.7-0.5,1.1-1.6,1.1-3.2l3-4.1h0.6l1.4-2.3
		c0.5-2.4,0.9-4.3,1.1-5.5l0.6-0.6c0.6-5,1.4-7.8,2.4-8.7l0.2-0.8l1.8-1.8c1.9-5,2.9-10.4,2.9-16.3l-0.3-0.2
		c-0.1-2.2-0.2-4.4-0.3-6.5c-0.3-3-1-5-2-5.8l-2.1,0.5l-0.2,0.6l-6.8,4.3c-2.8,4.4-5,7.6-6.5,9.7c-2.4,2.1-4.1,3.4-5,3.9
		c-0.2,0.7-0.6,1.1-1.1,1.2c-2.3,1.4-4,2.6-5,3.5l-1.4,1.1c-2.9,3.6-5.3,6.1-7,7.3c-6.1,10-9.2,15.1-9.3,15.2h-0.5
		c-1.2,1.8-2.1,2.9-2.6,3.2l-1.1,1.8h-1.5l-0.6,2.1c-0.7,0.2-1,0.6-0.9,1.1l-2,2.1l-0.5,1.5c-0.8,0.7-1.5,1.9-2.1,3.5
		c-1.5,1.1-3.5,3.5-5.9,7.2c-2.4,3.7-3.7,6.4-3.8,8.1l-0.6,0.2l-1.5,2.6c-0.8,2.5-1.6,4.4-2.4,5.5c-0.4,0.3-0.6,0.7-0.6,1.1
		l-2.1,2.6l-0.3,1.8l-2.1,2.9c-1.4,1.4-2.3,2.6-2.5,3.4c-0.3,0.9-0.9,2-1.8,3.3c-1,1.3-1.4,2.4-1.4,3.2c-0.8,0.4-1.2,1.7-1.2,3.8
		c0-0.8-0.7,0.3-2,3.3l-0.8,0.3l-1.1,1.5c-1.3,4.1-2.5,7-3.5,8.8h-0.6l-0.2,1.1h-0.5c-1.1,1.3-2,2.3-2.6,3l-0.6,0.2l-2.4,3.5
		c-0.7,5.5-2.1,9.2-4.1,11.2c-1.5,4.3-2.6,7.5-3.2,9.7c-1.4,2.1-2.4,3.8-2.9,5l-0.2,1.1l-0.9,1.2l-0.5,2.6c-0.8,0.1-1,0.6-0.6,1.4
		c-1.8,0.9-3.2,1.6-4.1,2.1c-1.1,0-2.9,0.2-5.3,0.5c-2.4,0.4-4.3,0.5-5.6,0.4l-0.5-0.5c-2.3-0.5-4.4-1.7-6.1-3.6
		c-0.3-3-0.1-6.4,0.6-10.2c0.9-5.2,1.4-8.5,1.5-10c1.3-3.1,2.3-5,3-5.5c0.4-3.5,0.8-6.2,1.1-7.9c1-2.3,1.7-4.2,2-5.5l1.1-0.9
		c0.5-1.9,0.9-3.3,1.1-4.3l1.1-1.8h0.2l0.8-2.1h0.6l1.5-3.2v-0.8c2.8-6.7,4.9-11.8,6.1-15.5h0.6c1.5-2.2,2.7-3.6,3.5-4.3
		c0.2-0.4,0.4-0.7,0.6-0.9c0.9-0.9,1.4-2.1,1.5-3.6L79,151c0.6-2.7,1.1-4.8,1.5-6.1l0.9-1.7c0.4,0,0.7-0.3,0.9-0.8
		c0.2-0.6,0.4-0.8,0.6-0.7c0.8-0.9,1.6-2.6,2.4-5.2c0.8-2.5,1.7-4.3,3-5.2c0.5-1.9,0.9-3.4,1.2-4.4c-0.1-1.5,0.9-3.4,2.9-5.8
		c0.2-1.4,0.7-2.7,1.4-3.9c0.7-0.6,1.1-1.7,1.1-3.3l0.9-1.1c0.8-1.8,1.6-3.1,2.3-3.8l0.5-0.2c4.4-8.1,6.6-12.2,6.7-12.5l0.5-0.6
		l1.1-5.8c1.2-4.5,2.7-7.6,4.6-9.6V78c-2.8-4.3-2.5-7,0.9-8.4l1.2-3.5c1.3-1.1,2.3-2,2.9-2.6c-0.1-0.4,0.2-0.7,0.8-0.9l0.8-1.8
		l-0.3-0.5l-0.2-2.1c-2.9-3.3-3.1-7.7-0.6-13.1c-0.4-1.3-0.5-3.3-0.2-5.9c0.5-3.5,0.8-5.6,0.8-6.1L117,33V32
		c-0.7-0.3-0.9-0.8-0.6-1.4l-3-3.6c0-0.9-0.2-1.3-0.6-1.1l-0.6-0.9c-0.9-0.1-1.3-0.5-1.1-1.1c-1-0.3-2.1-0.5-3.2-0.5
		c-3.6,0-7.9,1.5-12.9,4.6l-0.3,0.6c-5.2,2.9-8.9,5.5-11.2,7.6c-1.9,1.1-3.2,2.2-3.9,3.2c0.1,0.4-0.2,0.7-0.9,0.9l-1.4,2h-0.5
		c-0.8,1.9-1.9,3.1-3.3,3.6c-0.5,1.3-1.6,2.7-3.2,4.1l-1.5,3.5l-0.5,0.2c-4.9,5-7.4,8-7.7,9.1L59.9,63l-1.1,2.9
		c-1.3,1.8-2.3,3.2-2.9,4.3c-3.3,7.4-6.1,12.9-8.4,16.4c-1.8,3.7-3,7.4-3.5,11.1c-1.6,2.5-3.3,7.3-5.2,14.3
		c-1.9,7.6-2.9,13.9-2.9,18.8c0,3.1,0.5,5.4,1.4,6.7c4.8,0.4,7.8,0.5,9.1,0.3c4-3.7,7.2-6.5,9.4-8.2c0.5-0.1,0.8-0.3,0.9-0.6
		c2-1.1,3.5-1.9,4.6-2.4c1.5-2.3,2.7-4,3.6-5l0.6-1.8l1.1-0.5c1.9-3.1,3.7-5.6,5.5-7.4v-1.2l0.6-0.6l1.5-6.7l2.9-2.9l0.2-0.5l2-1.7
		c1.2-2,1.9-4.2,2.1-6.5c0.8-0.7,1.4-2,1.7-3.9l-0.3-0.8l0.8-3.2l3-3.6l0.6-2.3c-0.4-1.6-0.6-2.9-0.6-3.9l0.6-1.2
		c-1.6-5.5-2.8-9.8-3.6-13.1v-3.5l1.8-0.8c2.1,0.2,3.6,1,4.4,2.3l2.9,1.2c0.1,0.4,0.8,1,2.1,1.8c1.3,0.8,2,1.8,2,3
		c0,2.7-0.6,6.2-1.7,10.3c-1.6,5.6-2.5,8.9-2.7,10c-3.6,6.1-5.6,9.3-5.8,9.7c-1.7,6-3.4,10-5.2,12.2l-0.6,0.2l-2.4,2.7l-0.2,0.9
		c-2.7,3.9-5,7.1-6.8,9.4l-0.6,0.2l-1.5,3H69c-3.1,3.4-4.8,5.4-5,5.8c-1.5,0.6-2.6,1.6-3.2,3c-2.7,2.1-4.8,3.8-6.1,5v0.5
		c-0.8,0.2-1.2,0.5-1.1,0.8c-5.2,3.7-9.5,5.7-13.1,5.8l-0.3,0.3l-2.9,0.5l-1.2,1.1c-0.3,0.8-2.7,1.8-7.1,3c-3.9-2.6-6.3-4.4-7.1-5.2
		v-0.5c-0.4-0.9-0.5-3.8-0.3-8.7c-0.4-0.8-0.6-1.5-0.6-2.1v-6.8c1.8-3,2.8-7.1,3-12.1l2-2.7c0.2-4.6,1.9-7.2,5-8l1.1-1.2
		c0-1.9,1.1-4.2,3.2-6.8l0.5-0.2c1.2-2,2.1-3.6,2.7-4.7c1.1-1.7,1.7-3.2,1.8-4.6l1.2-3.3l0.9-0.9l0.2-0.8l0.9-0.8
		c-0.1-0.9,0.3-2,1.1-3.3l0.6-0.2l1.8-3c0.4-0.1,0.7-0.4,0.8-0.9c1.8-2.3,3.1-4.2,3.9-5.6v-0.8l1.1-1.5l0.9-0.5
		c3.6-6.5,5.4-10.2,5.3-11.1c1.8-1.7,3.2-3,4.1-3.8c2.3-0.3,4.4-1.6,6.1-3.9v-1.1l0.9-1.1l0.2-0.8l0.9-0.9l1.1-2.4l2.1-2.1l0.6-0.2
		c1.6-2.7,2.4-4.1,2.4-4.3l1.1-1.4c0.6-2.7,1.9-5.4,3.8-7.9c2.3-1.8,4-3.3,5-4.4c0.1-1,0.5-1.3,1.2-0.8l2.4-2.1
		c0.4-0.1,0.7-0.3,0.9-0.6c3.3-1,5.3-1.5,5.9-1.5c0.8-1,3.6-1.3,8.4-0.8l4.1,2v0.5l2.3,1.4l1.7,0.2l2.9-2l2.1-0.5l1.5,0.5l1.8,2
		c0.1,0.5,0.3,0.9,0.6,1.1c7.4,6.7,11.1,15.4,11.1,26.3l-0.5,0.5l-0.8,3.2l-0.2,0.2c-1.4,13-2.8,20.4-4.1,22.3v5.9
		c-1.7,4.7-3.1,8.5-4.1,11.4l-0.5,2l-0.6,0.5c-0.5,2.4-1,4.2-1.4,5.3l-0.8,0.6c0,0.7-0.4,1.8-1.1,3.2c-0.7,1.4-1.1,2.5-1.1,3.3
		c-1.1,2.2-2.1,4.8-2.9,7.6l-1.1,1.2c-1.7,4.5-3.2,7.5-4.4,9.3l-0.2,1.8l-0.9,1.2c0.1,0.6-0.2,1.1-0.8,1.4c-0.1,1.6-0.9,3.8-2.5,6.5
		c-1.6,2.7-2.5,4.8-2.7,6.3c-1.1,2-1.8,3.6-2.1,4.9l-0.8,0.5c-1.3,2-2,3.3-2.1,3.9c-1.3,1.1-2.1,2.1-2.4,3l-0.6,0.2
		c-0.8,1.3-1.3,2.6-1.5,3.9l-0.6,0.6l-1.1,3.5c-1,1.4-1.7,2.5-2,3.3c0,1.5-0.7,3.4-2,5.6c-1.5,2.5-2.4,4.4-2.6,5.5l-0.6,0.2
		c-0.6,0.8-1.1,2.1-1.4,3.9c-1.2,0.7-1.8,2.7-1.8,6.1l-0.5,0.2c-2.1,3-3.6,5.4-4.6,7l-0.2,1.1l-1.4,2.1l-0.5,0.2l-3.2,6.1
		c-0.1,0.4-0.3,0.8-0.5,1.1l-1.5,2.1c-0.1,0.8-0.5,2.1-1.1,3.8c-0.7,1.7-1,3.1-1,4.1l-1.1,1.4c-0.3,1.7-1,3.2-2,4.4
		c-1.4,7-2.1,10.6-2.1,10.8c0.9,0,1.8-0.6,2.7-1.7c0.9-1.1,1.6-1.8,2-2l1.5-1.5c0.1-0.5,0.3-0.8,0.6-0.9l0.5-1.7
		c1.2-1.1,1.9-2.4,2-3.8l1.1-0.8c0.5-2.7,1.2-4.5,2-5.2l0.2-2l2-3.6l1.1-0.6v-0.8c1.1-1.5,1.8-2.8,2-3.8l0.2-1.1l0.9-0.9v-1.1
		c0.6-1.1,1.5-2,2.7-2.7l0.3-1.5l1.1-0.8c1.3-2.3,2-4.8,2.1-7.3c1.5-3.1,3.5-5.8,6.1-7.9l1.1-2.7c0.6-0.4,2.2-3.6,4.9-9.6
		c2.7-6.4,5.2-10.5,7.3-12.3c1.4-2.4,2.1-4.4,2.1-5.9h0.6c1.3-2.4,2.5-4.2,3.5-5.2c0-0.9,0.2-1.3,0.6-1.1c0.7-1,1.6-2.1,2.6-3.2
		c-0.1-0.2-0.1-0.4,0-0.6c0.2-0.3,0.4-0.4,0.5-0.2l1.7-3c0.7-0.3,1-0.8,0.9-1.4l1.1-1.7l0.5-0.2c1.5-2.7,2.7-4.8,3.6-6.1l0.5-0.2
		l0.2-2h1.2l0.2-1.1h0.6l1.5-1.8l-0.2-0.2l1.1-1.5l0.2-0.8c1.9-2,2.9-3.7,3-5.2l0.9-2c2.4-2.6,4.1-4.7,5.2-6.2l1.1-2.7l2-2l0.2-0.5
		c1.4-1.6,2.4-2.9,3-3.8h0.5c0.8-1.3,1.7-2.4,2.6-3.3c0.9-2.4,1.6-4,2.1-4.9c0.4-0.2,0.7-0.4,0.9-0.6c1.4-1.3,2.5-2.4,3.2-3.2
		l2.6-1.4l2.4-4.1h0.3l0.9-1.4c2-1.2,3.2-1.8,3.5-1.8c1.9-1,3.4-2.4,4.6-4.1l0.5,0.2c4.5-1,7.2-2.8,8.4-5.5l3.5-7.9
		c0.8,0,1.9,0.2,3.2,0.5c1.3,0.4,2.3,0.5,2.9,0.5c4.8,2.3,9.6,5.7,14.4,10.2c-0.2,0.4,0,1,0.8,1.8c0.9,1.1,1.4,1.8,1.4,2.1l0.6,0.3
		c0.2,0.2,0.3,0.7,0.3,1.4c0,3-0.9,8.4-2.8,16.2c-1.9,7.7-3.3,12.1-4.2,13.1c-0.8,4.1-1.6,7.1-2.3,9.1c-1,1.9-1.7,3.4-2,4.4
		l-0.3,0.2c-0.5,2.5-1,4.4-1.5,5.6l-0.5,0.2l-0.2,2l-1.2,1.2c-0.6,3-1.1,5.3-1.5,6.7c-3.2,6.2-5.3,11.1-6.2,14.7l-0.9,0.8v1.2
		c-2.3,2-4.2,6.7-5.6,14l-0.5,0.6c-0.2,1.7-1.4,6.1-3.7,13c-2.3,6.9-3.8,11-4.6,12.2c-0.4,0.3-0.2,0.5,0.8,0.6l2-0.3l1.5-2
		c2.5-1.1,4.2-3.5,5-7.3l1.1-0.9l0.9-0.2l2.1-2.4l0.2-0.9l0.9-0.8l4.4-11.1c0.4-0.3,0.7-0.7,0.8-1.1l2.9-3.6l0.2-0.9l1.1-1.7h0.2
		l2.4-2.1c1.2-3.1,2.7-5.6,4.6-7.3c0.1-0.5,0.3-0.8,0.6-0.9c0.6-1,1.6-2.3,2.9-3.9l0.5-0.2c1.8-2.9,3.5-5,5.2-6.2
		c0.5-4.1,1.3-6.8,2.3-8l0.5-0.2l0.6-1.5l1.8-1.5l0.2-2l1.8-0.2l2.3-1.8l0.6-0.2l2.3-3l0.2-0.9l3.2-3l0.8-0.2
		c0.9-0.6,1.7-1.8,2.3-3.6c5.4-4.5,8-7.3,8-8.5l2.1-2.1l0.9-0.2l1.1-1.1l0.2-0.5l3-3.5c0.5-0.1,0.9-0.3,1.1-0.6l0.9-0.6l1.1-3.8
		c2.8-2.7,4.9-4.9,6.1-6.4c0.2-0.4,0.4-0.7,0.6-0.9c2.2-2.7,3.9-4.8,5-6.2h0.8l1.1-0.9h0.2l0.8-0.8l1.8-0.5l1.1-1.1
		c0.2-0.4,0.5-0.7,0.8-0.9c1.1-1.5,1.9-2.7,2.4-3.5v-0.8c1.1-1.5,2.6-2.9,4.6-4.3c1.1-0.8,2.4-3.1,3.9-7c1.4-3.5,3.3-6,5.8-7.3
		c0-1,0.2-1.3,0.6-0.8c0.3-1.5,1.5-2.9,3.6-4.3v-0.5c6.1-4.9,10.2-8.4,12.3-10.6h0.8c4.2-2.3,7-4.4,8.5-6.2c0.5-0.1,0.8-0.3,0.9-0.6
		c2.4-1.2,4.9-1.7,7.4-1.4c0.1,0.3,0.5,0.4,1.1,0.3l0.9,0.8h0.8l2.1,2.4l0.2,0.8l0.8,0.9l0.2,0.9c0.9,1.1,1.4,2.8,1.4,5.2
		C317.5,34.1,316,35.8,315.2,37.1 M165.6,190.4h-1.1c-0.6,1.9-1.1,3.4-1.4,4.4l0.3,1.1h0.8c1.4-1.6,2.1-2.8,2.1-3.5L165.6,190.4z"/>
	<path class="st1" d="M608,323h-22.6c-8.5,0-15.4-7.1-15.4-15.4v-40.8c0-8.5,6.9-15.4,15.4-15.4H608v3.2h-22.6
		c-6.9,0-12.4,5.5-12.4,12.2V295l26.4-7.2v3.3l-26.4,7.1v9.4c0,6.8,5.6,12.4,12.4,12.4H608V323z M580.4,307.5v-3.7l26.5-6.9v-18.7
		l-26.5,7.1v-18.4c0-2.7,2.2-4.9,4.9-4.9h30V244h-30c-12.8,0-22.9,10.2-22.9,22.8v40.8c0,12.7,10.2,22.9,22.9,22.9h30.1v-18.1h-30.1
		C582.6,312.3,580.4,310.1,580.4,307.5 M541.9,323h-3v-56c0-6.8-5.5-12.4-12-12.4h-28.9V323h-3v-71.4h32c8.2,0,15,6.9,15,15.4V323z
		 M526.9,244h-39.6v86.4h18V262h21.6c2.6,0,4.6,2.3,4.6,4.9v63.5h18v-63.5C549.5,254.4,539.1,244,526.9,244 M467,323.1h-3.2v-34.3
		l-40.8,10.9v23.3h-3.2v-56.2c0-8.4,6.9-15.4,15.4-15.4h16.3c8.5,0,15.4,7.1,15.4,15.4V323.1z M451.6,244h-16.3
		c-12.7,0-22.9,10.2-22.9,22.9v63.5h18.1v-24.9l25.8-7.1v32h18.1v-63.5C474.5,254.3,464.2,244,451.6,244 M456.3,279.9l-25.8,6.9
		v-19.9c0-2.6,2.2-4.8,4.8-4.8h16.3c2.6,0,4.8,2.2,4.8,4.8V279.9z M451.6,254.6h-16.3c-6.8,0-12.2,5.6-12.2,12.4v29.5l40.8-10.8
		v-18.7C463.8,260.2,458.3,254.6,451.6,254.6 M371.5,323.1c-8.5,0-15.6-7.1-15.6-15.4v-55.9h3.3v55.9c0,6.8,5.5,12.2,12.2,12.2h22.6
		v3.2H371.5z M401.5,312.4h-30c-2.7,0-4.9-2.2-4.9-4.8V244h-18v63.6c0,12.5,10.4,22.8,22.9,22.8h30.1L401.5,312.4z"/>
</g>
</svg>
