<svg id="Layer_1" data-name="Layer 1" xmlns="http://www.w3.org/2000/svg" viewBox="0 0 512.27 211.57"><defs><style>.cls-1{fill:#fff;}</style></defs><title>logo-lrg</title><path class="cls-1" d="M520.51,127.9q-2.56,1.33-3.79,2.05a17.57,17.57,0,0,1-2.67,1.64l-0.1.41-0.61.1a15.63,15.63,0,0,1-1.64,1.33h-0.51a16.44,16.44,0,0,1-2.67,1.43,1.6,1.6,0,0,1-1.44.62,21.94,21.94,0,0,1-3.69,2.05,3.43,3.43,0,0,0-1.33.72l-0.61.21q-2.46-.1-2.77,1.84l-0.62.1-0.61.61-0.51.1-0.61.62H495.8l-0.72.61q-3.28.82-2.46,0.82a18.74,18.74,0,0,0-3,2.56q-4.41,15.18-4.82,15.48a7,7,0,0,1-.61,3.08l-0.1.72q-0.92.72-1.33,3.49l-0.2.1-0.1.82-0.41.62v0.72l-0.72.92a106.67,106.67,0,0,1-3.49,10.25,10.08,10.08,0,0,0-1,1.33q0-.41-1,2.05a6.3,6.3,0,0,0-1.33,3.38v0.62q-1.33,2.77-1.54,3.38a24.44,24.44,0,0,0-2.82,4.92,18.75,18.75,0,0,1-3.23,5.13,8,8,0,0,1-.82,1.95q-1.64,1.85-1.95,2.26l-0.31,1.23a9,9,0,0,1-1.74,2.15,13.06,13.06,0,0,1-.82,1.33l-1.33.82-0.1.31a6.68,6.68,0,0,0-1.54,2.36H458a18,18,0,0,0-1.64,1.74,16.44,16.44,0,0,0-3.49,3.08l-0.21.1-0.41.62q-2.46,1-3.79,1.44-3.38,3.08-3.69,3.49a5.58,5.58,0,0,0-4.1,1.33h-0.72l-0.31.41a12.84,12.84,0,0,1-4.51.2,29,29,0,0,0-5.64-3.28l-0.1-.51-0.51-.61q-0.2-1.85-.82-1.85l0.1-.21a32.48,32.48,0,0,0-1-4.51l-0.41-.1a16.75,16.75,0,0,0-1.33-7.38V200.6q0.62-.31.62-2.46a3.16,3.16,0,0,0,.72-2.05l0.41-.41a11.08,11.08,0,0,0,.31-1.64,4.59,4.59,0,0,1,1.33-1.85,4.27,4.27,0,0,1,.72-1.85,4.28,4.28,0,0,0,.72-1.95q3-3.28,3.38-3.79,0.31-1.23.51-1.84a5.2,5.2,0,0,0,1.64-1.23V181l0.61-.51,0.1-.51,0.72-1a4.32,4.32,0,0,0,1.54-1.13A4.37,4.37,0,0,0,442,176.4a2.27,2.27,0,0,0,1.33-.72l0.62-.1,0.1-.31a30.06,30.06,0,0,0,4.82-5.43l0.1-.62a30.84,30.84,0,0,1,3.38-3.18l0.51-.1a3.36,3.36,0,0,1,1.54-1.23,8.07,8.07,0,0,0,3.38-2.36l0.1-.51h0.61l0.1-.72c0.41,0,.62-0.27.62-0.82a1.83,1.83,0,0,1,1.33-.51l0.2-.41,0.62-.31a29.08,29.08,0,0,0,3.28-1.64l0.21-.41,0.72-.62,0.31-.1q1.95-2.36,3.08-3.49h0.61a4,4,0,0,1,2.77-1.33,7.14,7.14,0,0,1,1.43-1.44,12.86,12.86,0,0,0,2.05-.72,2.62,2.62,0,0,1,1.74-.72,15.21,15.21,0,0,1,2.36-1.54l0.1-.41a15.19,15.19,0,0,0,2.77-2.46q0.1-6.56,1.85-9.23,0.41-2.67.62-4.1a8.93,8.93,0,0,0,.31-2.36l0.62-.72,0.1-.51a15.79,15.79,0,0,0,1.13-1.54V125l-0.51-.41-1.23.51-1.43,1.44c-0.41.75-.75,1.33-1,1.74a44.43,44.43,0,0,0-3.59,3.08q-0.31,1-3.28,3.59a29.43,29.43,0,0,1-4.31,3.28,22.38,22.38,0,0,1-2.77.51,3.22,3.22,0,0,1-.41,1.54l-0.92.72-1.44.1-0.2.1a14.23,14.23,0,0,1-6.36-.92,3.54,3.54,0,0,1-.41-1.54l-1.64-.31-0.1-.31a6.16,6.16,0,0,1-1.44-1.23l-0.31-.1-0.31-.51-0.41-.1-0.31-.72h-0.62a4.52,4.52,0,0,1-.61-1,4.21,4.21,0,0,0-.15-0.92,4.23,4.23,0,0,1-.15-0.92,11.22,11.22,0,0,1,.36-2.36,11.25,11.25,0,0,0,.36-2.26l0.2-.2v-4a3,3,0,0,0,.72-2.15h0.31a34.35,34.35,0,0,0,1.85-9.13,4.75,4.75,0,0,1,1.23-1.33l0.51-.92,0.2-3.08a1.52,1.52,0,0,0,.72-1.44h0.31a4.81,4.81,0,0,1,1-1.43,3.53,3.53,0,0,1,.41-1.38,3.51,3.51,0,0,0,.41-1.38h0.31a18.54,18.54,0,0,1,1.95-2.67l0.41-.2,0.1-.51,0.61-.72h0.62a5.42,5.42,0,0,1,1.54-2.77h1.95a8.62,8.62,0,0,1,3,2.36l0.1,0.31a11.17,11.17,0,0,1,3.9,3.69l-0.72,1.23q-1.85.41-2.15,1.33a5.67,5.67,0,0,1-.92.82,11.58,11.58,0,0,1-1.33,2.05H471v0.62a5.19,5.19,0,0,0-.92,1.33l-0.51.2v0.51a6.73,6.73,0,0,0-.92,1.43l-0.41.1-0.1,1-2.67,3.08v1a6.31,6.31,0,0,1,.1.92q0,0.1-1,2.87l-0.92.72q-1.33,5.13-2.15,7.59l-0.2.1q-0.21-1.33-.2,4.61,0,0.1,1,4a5.82,5.82,0,0,0,2.46.92,2.74,2.74,0,0,0,1.28-.62,4.19,4.19,0,0,1,2.1-.72l0.82-.61,0.62-.1,0.82-.62,0.2-.51a3.18,3.18,0,0,0,1.13-.92,5.8,5.8,0,0,0,1.9-.87,2.78,2.78,0,0,1,1.49-.56l0.92-.61,0.1-.41a23.26,23.26,0,0,0,3.38-3.08v-0.41a4,4,0,0,0,1.43-1v-0.62l0.92-1.33,0.41-.2V123.7a5.59,5.59,0,0,1,2.05-1.33l0.1-.41,0.51-.31q1.43-1.95,2.15-2.87l0.1-.51h0.31a26.92,26.92,0,0,1,1.95-2.77l0.41-.2v-0.51l0.72-.41,0.1-.51a1.28,1.28,0,0,0,.62-1.13,1.32,1.32,0,0,0,.72-0.92q1.95-.72,2.77-6.66a2.5,2.5,0,0,0,.72-1.85l0.61-.62,0.1-1a1.45,1.45,0,0,0,.62-1.43l0.41-.1,0.21-.21,0.1-.51,0.92-1.23h0.31a1.56,1.56,0,0,1,1.85-.62l2.05,0.62q3.48,2.05,5.23,3l0.1,0.41h0.51a2.37,2.37,0,0,1,.92,2.26,10.13,10.13,0,0,1-1.64,1.13l-0.51.1-0.1.41a11.32,11.32,0,0,0-2.36,2.36q-1.54.41-2.56,4.1a10.77,10.77,0,0,0-1.23,1.74,19.38,19.38,0,0,1-1.43,3.28q-0.1.92-3.18,9.48t-3.69,9.69l-0.1.72-0.72.82v0.72a10.71,10.71,0,0,0,2.46-.1,7.43,7.43,0,0,1,1.84-1.33l0.51-.1a25.69,25.69,0,0,1,4.92-2.67l0.61-.1,0.82-.61h0.51l0.61-.62,0.62-.1a5.92,5.92,0,0,1,3.9-1.33q5.43-3.69,8.2-5.54a11,11,0,0,0,1.33-.72l0.62-.1,0.1-.31a13.46,13.46,0,0,1,1.33-.41,1,1,0,0,1,1.13.2,3.81,3.81,0,0,1,.31,1.95,15.64,15.64,0,0,0-1,1.43M479.7,151.69q-1.33.31-1.95,0.51a8.71,8.71,0,0,0-2.87,1.95,2.37,2.37,0,0,0-1.23.72l-0.51.1q-2,1.33-3,1.95h-0.62l-1.13,1.43-0.62.1-2.46,1.95h-0.62v0.1l-2.87,2.67-0.31.1a12.1,12.1,0,0,1-1.95,2.26l-0.41.1v0.31l-0.62.31-0.2.41-1.13.72a29.38,29.38,0,0,1-2.46,3.28,5.87,5.87,0,0,0-1.33,1.13l-0.1.41a11.28,11.28,0,0,0-2.46,2.05h-0.62l-0.1.41a25.08,25.08,0,0,0-3,3.18,21,21,0,0,0-2.56,3.28,12.38,12.38,0,0,0-2.05,2.77l-0.62.41-0.1.41h-0.62q-2.77,3.59-2.77,5.13a2,2,0,0,1-.72,1.43,8.8,8.8,0,0,1-1,2.36q-3.48,3.9-4.1,11.48l-0.31.41a14.53,14.53,0,0,1-1.13,4.56,14.65,14.65,0,0,0-1.13,4.67l0.51,3.59-0.21.2q0.72,2.67,1.13,4a10.25,10.25,0,0,0,1.33,1,3.38,3.38,0,0,0,1.33,1.23,8.21,8.21,0,0,0,4.2-.31,12.48,12.48,0,0,1,3.9-1,3.41,3.41,0,0,1,1.33-.72q0.92-.72,1.74-1.43l0.1-.51,0.51-.41a1.71,1.71,0,0,1,1.43-1.33l0.82-1.13,0.62-.31,0.1-.41h0.51l0.72-.92,0.1-.51,0.62-.72v-0.51l0.61-.41,0.1-.51,0.41-.1,0.92-1.23v-0.72l0.72-.72,0.1-.72a7.27,7.27,0,0,0,.92-1.23H455l0.1-.51,0.31-.2,1.44-2.05,0.2-.1q1.95-2.36,2.15-2.67v-0.62l0.41-.1a8.11,8.11,0,0,1,1.33-2.05h0.31a3.16,3.16,0,0,0,.82-2.46l0.61-1.13a13.29,13.29,0,0,0,1.74-1.85l0.31-.1a2.75,2.75,0,0,1,.36-1.13,2.79,2.79,0,0,0,.36-1.13,15.73,15.73,0,0,0,1.33-2.67,2.57,2.57,0,0,1,.72-2.05l0.1-.51,0.62-.92,0.41-.2,0.62-1.13h0.31a1.42,1.42,0,0,1,.51-1.43v-1.95h0.41a4.26,4.26,0,0,1,1.13-1.44,9.91,9.91,0,0,1,1.23-1.64q0.82-3.8.92-4.51a14,14,0,0,0,1.13-1.74,22.79,22.79,0,0,0,.31-2.87q1.85-1.33,2.05-4.82a4.63,4.63,0,0,0,1.13-3.08,3.63,3.63,0,0,1-.31-2.87,29.3,29.3,0,0,1,.72-2.87,17.34,17.34,0,0,0,.51-1.95h0.51q0.31-1.13.41-1.74Zm-24.92-19.38v0.51q-2.67,2.67-4.1,4.31v0.31l-0.62.31a23,23,0,0,1-2.46,2.77H447.3c-0.41.61-.72,1.06-0.92,1.33l-0.2.1a44.47,44.47,0,0,1-5.95,4.82,5.46,5.46,0,0,0-2.67.72l-0.1.41a4.52,4.52,0,0,0-1.43.92h-0.51a7.15,7.15,0,0,1-2.77,1.43l-0.62.62h-0.2l-1.43.72a2.82,2.82,0,0,0-1.64.72q-4.51.72-4.61,0.72l-0.51.2-0.41-.2q-2.67-.41-4-0.72a14.88,14.88,0,0,0-4.1-1,14.24,14.24,0,0,0-1.64-.41l-1.64-1.33q-0.51-2.05-.72-3.08l-0.1-.82-0.61-.72v-7.59q1.95-3.39,1.95-4.31l0.1-.2v-1.54a32.56,32.56,0,0,0,3.38-1.8,3.68,3.68,0,0,0,1.33-1.28q0,0.41-.41-3.49a4.29,4.29,0,0,1,.51-3.28l0.1-.51,0.61-.51a8,8,0,0,1,2.15-3.49v-0.61a1.65,1.65,0,0,0,.62-1.33l1.23-1.54v-4a12.63,12.63,0,0,1-2.56-2.26l-0.1-.51-0.31-.1-0.31-.62-0.41-.1-0.41-.61-0.51-.1a3.74,3.74,0,0,0-1.54-1.33l-0.41-.72-1.54.72a1.19,1.19,0,0,1-.72.82v0.51l-1.64,2.77a9.35,9.35,0,0,1-1,.72l-0.72,1a1.77,1.77,0,0,1-.82,1.44,11.72,11.72,0,0,1-1.28,3.23,7.28,7.28,0,0,1-1.9,2.72,14.34,14.34,0,0,1-2.05,3.33,12.18,12.18,0,0,1-2.46,2.92,18.08,18.08,0,0,1-1.33,1.95l-0.31.1-0.92.92-0.1.41q-1.44,1-2.05,1.54v0.21l-0.62.31-0.2.41a16.21,16.21,0,0,0-1.85,1.74l-0.1.31-0.51.41a2.33,2.33,0,0,1-1.95,1.33l-1-.51a10,10,0,0,1,0-2.87,62.35,62.35,0,0,0,4.2-4.72,3.48,3.48,0,0,0,1.33-1.54q2.87-2.87,4.82-4.92a12.51,12.51,0,0,0,.82-1.54l0.61-1.23,0.41-.1a21.4,21.4,0,0,1,1.64-2.05v-0.62h0.41a3.22,3.22,0,0,1,.92-1.74,3.06,3.06,0,0,1,1.43-2.46l0.51-.92,0.2-1.74,0.72-.61,0.1-.62a1.27,1.27,0,0,0,.61-1.54,25.09,25.09,0,0,0,.62-5.23,19.68,19.68,0,0,0,.72-4.21l0.2-.2a8.39,8.39,0,0,1,.51-1.64,12.09,12.09,0,0,0-1.64-3.28,2.16,2.16,0,0,1,.46-1.18,2.31,2.31,0,0,0,.46-0.87l0.61-.1,0.1-.31a7.23,7.23,0,0,1,3.59-1.33l3.69,1q2.15,1.85,3.28,2.77l1.13,1.95a1.84,1.84,0,0,0,.31,1.13l-0.2.41a3.66,3.66,0,0,1-.77,1.95,3.87,3.87,0,0,0-.26,3.18q0.2,1.54.31,2.36a20.28,20.28,0,0,0,1.44,1.49,2.14,2.14,0,0,1,.72,1.08,9.1,9.1,0,0,0,3.69.51,28.47,28.47,0,0,1,3.28-.41l0.21,0.1q3-.1,5.64,4.31a4.75,4.75,0,0,1-1.13,3.49,3.2,3.2,0,0,1-.72,1.64l-0.61.31a27.79,27.79,0,0,0-2,3.18q-0.56,1.13-.87,1.64l-0.31.1q-1.33,2.67-1.74,3.38h-0.31a41.64,41.64,0,0,0-3.13,6.1q-2.21,4.87-2.31,6.1l-0.41.41a33.2,33.2,0,0,1-1.74,4.2q-0.61.72-1,4.56a18.19,18.19,0,0,0-.1,5.08q1.95,2.15,2.26,2.56a2.57,2.57,0,0,1,1.33.31,8.6,8.6,0,0,1,2.67-.31l0.1-.1q1.33-.31,1.95-0.51,1.64-1.23,1.74-1.33a2.2,2.2,0,0,0,1.33-.62l0.82-.1a2.23,2.23,0,0,1,1.43-.82q3-1.64,4.92-2.56l0.51-.1q3-2.36,4.41-3.59l0.1-.62a3.15,3.15,0,0,0,1.44-1.23l0.51-.2,0.2-.31,0.51-.31a1.2,1.2,0,0,1,.72-0.82l0.1-.51,0.72-.62,0.61-.1a1.2,1.2,0,0,1,.72-0.82v-0.51h0.31q0.72-1.13,1.13-1.64a6.26,6.26,0,0,0,2.05-1.95v-0.61l0.72-.72h1l0.51,0.51,0.31,0.92a4.93,4.93,0,0,1-1.23,2.15m-63.16.1-0.41.1a25.26,25.26,0,0,1-1.74,2.05l-0.51.1a85.25,85.25,0,0,1-8.61,5.23,24.44,24.44,0,0,1-10,1.85,14.82,14.82,0,0,1-4.15-.77,14.5,14.5,0,0,0-3.44-.77q-2.56,0-4.31,3.38H358l-0.1.41a22.08,22.08,0,0,0-3.69,4.41l-0.51.21a32.06,32.06,0,0,1-3,3.69,5.9,5.9,0,0,1-2.56,1q-4.31,3.49-5.43,3.49-4.1,2.67-6,2.67a6.3,6.3,0,0,1-2.61-1,8.39,8.39,0,0,0-3.74-1.13,1.69,1.69,0,0,0-1.64-.61l-0.1-.31a14.9,14.9,0,0,1-2.05-1.33v-0.31l-0.62-.1-1.33-1.33v-0.61l-0.82-.2V152a26,26,0,0,1-1.33-2.26,3.09,3.09,0,0,0-.72-2.26,11,11,0,0,1,0-3.08l0.72-1.23,0.72-.51v-0.82l0.51-1.13q0-.51-0.41-3.18a8.45,8.45,0,0,1-.1-2.87q0.62-.72.62-6.25a4.09,4.09,0,0,0,.72-2.56,3.45,3.45,0,0,1,.72-1.69,4.65,4.65,0,0,0,.72-1.28h0.31a6.39,6.39,0,0,0,.31-2.46,4.55,4.55,0,0,1,.72-1q0.92-.1,1.44-2.05l0.61-.82a36.07,36.07,0,0,1,1.44-4.51l0.72-.61a8.56,8.56,0,0,0-.31-3.69l-0.41-.1q-0.41-4.2-.72-6.36l0.72-1.23,1.23-.31,0.82-1.13L332.45,98l-0.41-.1,0.1-.31-0.72-.62a33.75,33.75,0,0,1,0-3.9l0.31,0.1,0.41-1a14.23,14.23,0,0,0,1.95-1.23l0.1-.31a20.33,20.33,0,0,0,2.72-1.9q0.87-.77,3.85-0.77l0.1-.21A22.46,22.46,0,0,0,346,85.76,15.4,15.4,0,0,1,352.35,84H362.5a4.87,4.87,0,0,1,2.87,1.33l0.62,0.1q3.38,3.49,3.9,4.2a40.28,40.28,0,0,0,1.64,4.92,20.61,20.61,0,0,1,1.44,6.67l0.1,0.2q0.1,1.74.1,2.56l0.2,0.2,0.2,4.51-0.1.1-0.1,1.44-0.2.1q-0.21,1.74-.31,2.67-0.72.92-1.64,5.33-0.82,4-1.74,4.72-2.05,6.46-2.05,8.1a2.25,2.25,0,0,1-.41,1.08,1.34,1.34,0,0,0-.31,1l-2.05,2.05-0.1,1-0.2.21a4.3,4.3,0,0,0,1.74,1.54q8.61,0.72,6.77.72a11.94,11.94,0,0,0,2.41-.36,12,12,0,0,1,2.41-.36,3.42,3.42,0,0,1,1.33-.72,11,11,0,0,1,1.54-1.33,24,24,0,0,0,2.46-.72q1.54-1.23,2.36-1.84a2.75,2.75,0,0,0,1.43-.92h0.51q1.64-1.74,1.54-2.05a4.75,4.75,0,0,0,1.44-1.44h1.85l0.41,1.33a3.19,3.19,0,0,1-.92,2.05m-24.2-26.15-1.23-1v-1.13l-0.41-.1q0.62-2.26-1.84-4.82a6.33,6.33,0,0,0-.62-1.64l-0.1-1a15.48,15.48,0,0,1-2.77-3.38l-0.1-.51a5.88,5.88,0,0,0-1.64-1.23q-1.33-1.13-1.95-1.74a2.81,2.81,0,0,1-1.18-.41,2.91,2.91,0,0,0-1.28-.41,22.57,22.57,0,0,0-9,1.44q-1.85,1-2.77,1.64l-0.1.41h-0.61a3.62,3.62,0,0,1-1.44,1.43,10.2,10.2,0,0,1-1.74,2.77A23.56,23.56,0,0,0,337,100a15.13,15.13,0,0,1-.36,2.61,15.28,15.28,0,0,0-.36,2.82h0.92l0.31-1.33,0.31,0.1a7.34,7.34,0,0,1,7.18-1.44,2.12,2.12,0,0,0,1.33.62l0.31,0.72a13.29,13.29,0,0,1,1.95.1v1.23q1.95,2.05,1.95,3.08l-1.23,1.13-0.51.1-0.82.51-0.62.1a8.75,8.75,0,0,1-2.05,1.64l-0.1.31-0.62.1-0.1.41a6.11,6.11,0,0,0-1.64,1.64l-0.31.1-0.1.62a2.73,2.73,0,0,1-1.23,1l-0.2.41h-0.62a4.39,4.39,0,0,1-.31,1.28,4.45,4.45,0,0,0-.31,1.38h0.1q2,3.38,3.28,5l0.1,0.61q4.1,4.72,6.25,5.95l1.64,0.31a33.36,33.36,0,0,1,2.77,2.05l1.08,0.41a3.61,3.61,0,0,0,1.28.31l1.23,0.72,1.85-.1c0.48-.55.82-1,1-1.23l0.1-.51,0.72-.62V131.7l0.61-.62a3.23,3.23,0,0,1,.46-1.28,2.24,2.24,0,0,0,.36-1.38,1.49,1.49,0,0,0,.72-1.54q0.72-.31.62-1.85a1.72,1.72,0,0,0,.72-1.64l0.62-.62q0.2-1.23,1.13-5.13a20.62,20.62,0,0,0,.82-5.13l0.1-.2,0.1-1q1.43-1.13,0-5M357,138.77l-0.72-.62-0.51-.1a18.29,18.29,0,0,0-4.2-1.64l-0.1-.41a29.46,29.46,0,0,0-3.84-2.26,25.24,25.24,0,0,0-4.05-1.95,19.16,19.16,0,0,0-3.28-1.95,7.77,7.77,0,0,0-2.56-2.36,6.48,6.48,0,0,0-1.74-2.36h-0.41l-0.72.82a17.45,17.45,0,0,1-.72,2.36,6,6,0,0,0-1.33,3.18,6.47,6.47,0,0,0-.92,2.77,12.42,12.42,0,0,0-.72,4.21l-0.2.1a34.23,34.23,0,0,1-.51,3.9,20.73,20.73,0,0,0-.41,3.18q0,2.67,2.46,6.25l0.21,0.1a0.66,0.66,0,0,0,.72.62l0.41,0.61,1.13,0.72q-0.72-.1,8.2-0.72a1.89,1.89,0,0,1,1.54-.72q0.92-.82,1.43-1.23l0.51-.31,0.1-.41,0.61-.1v-0.51l0.41-.2q1.54-1.54,2.36-2.26v-0.41l0.62-.31a34.64,34.64,0,0,1,3.18-3.18h0.31l0.1-.62a1.24,1.24,0,0,0,.72-0.72l0.51-.31,0.1-.62,0.62-.61a11.4,11.4,0,0,1,.72-1.54v-0.41Zm-32.3-2.67-0.31.1-0.1.41-0.61.31-0.1.41-0.62.2v0.51l-0.62.2q-1.44,1.44-2.15,2.26L320,141h-0.31l-0.31.62-0.41.1a38.4,38.4,0,0,0-3.38,3.9,25.88,25.88,0,0,0-4.82,3.69c-0.75.27-1.3,0.46-1.64,0.56a12.24,12.24,0,0,0-2.05,1.08l-0.41.82q-1.85,1.54-7.38.92a30.36,30.36,0,0,0-1.64-2.56l-0.41-.1L297,148.82l-2.26-3.38a14.72,14.72,0,0,1-.2-4.31l0.2-.1,0.2-1.95,0.2-.2a1.89,1.89,0,0,0,0-1.23l-0.2-.1a58.48,58.48,0,0,1,.31-6,18.42,18.42,0,0,0,.72-4.2q0.62-.62.62-5.54l-1-.82-1.13.72-0.51.1-0.1.31a24.77,24.77,0,0,1-3.28,2.36l-0.2.41a2.63,2.63,0,0,0-1.33,1v0.62a17.05,17.05,0,0,0-3.38,2.87l-0.1.41-0.62.31-0.1.31-0.61.31a13.47,13.47,0,0,1-1.44,2.05h-0.41l-1.23,2.05-0.41.1-0.2.62-0.31.1a15.52,15.52,0,0,1-4.21,4.92,2.35,2.35,0,0,1-.72,1.33,1.91,1.91,0,0,1-.72,1.33l-0.2,1.23-0.41.41a20.3,20.3,0,0,1-2.67,5.23l-0.72.31-3.59.1q-3,.1-3-3.38a24.71,24.71,0,0,1,1-5.69,29.06,29.06,0,0,0,1-4.67l0.2-.1v-5.23a66.58,66.58,0,0,0,1.64-7.79q1.33-7.28,1.33-8.41c0-1-.24-1.57-0.72-1.64l-0.2.2q-2.15,0-3.69,3l-0.41.2-0.1.51a6.06,6.06,0,0,0-1.33,1.33,16.23,16.23,0,0,1-3.69,3.59,0.62,0.62,0,0,0-.41.41l-0.61.31-0.82,1.23-0.41.1-0.31.61a14.64,14.64,0,0,0-2.05,3v0.51q-3.08,4.1-4.41,6.25l-0.41.1-0.1.62-0.61.82v0.51c-0.62.75-1.06,1.33-1.33,1.74l-0.31,1-0.31.1-0.1.61-0.62.62a8.53,8.53,0,0,1-.87,3,8.49,8.49,0,0,0-.87,3,6.17,6.17,0,0,0-1.13,2.46v4.51l-0.72.92a8.77,8.77,0,0,1-2.05-.31l-2.05-.41-0.31-.41a8.79,8.79,0,0,0-3.59-1q-2.46-2.26-2.46-3.08a2.68,2.68,0,0,1,.72-1,3,3,0,0,0,.82-1.79l0.61-.41,0.1-.72,0.62-.62,0.1-.61a3.62,3.62,0,0,0,1.33-2.67,12.48,12.48,0,0,0,1.54-3.49,31.59,31.59,0,0,0,1.23-3.9l0.41-.41q0.51-3,.92-4.41a2.37,2.37,0,0,0,.72-1.44q1.23-1.43,1.33-5t1.33-5.13a2.26,2.26,0,0,1,.72-1.33,24.33,24.33,0,0,1,.72-5.69q0.62-2.2.72-1.9h0.41l0.41-1a1.45,1.45,0,0,0,.61-1.64,2.27,2.27,0,0,0,.72-1.33,2,2,0,0,0,.62-1.44,7.85,7.85,0,0,0,.72-2.77q0.92-1,1.33-1.54l0.1-.51,0.31-.1q2.77-3.28,4.2-3.28a7.21,7.21,0,0,1,2.56.62l0.51,0.61a12.9,12.9,0,0,1,3.18,1.44l0.72,0.92a3.81,3.81,0,0,1-1.23,2.46l-0.51.1a13,13,0,0,1-1.74,1.54q-1.13.92-1.13,3.38l-0.21.51-0.51.1v0.51a7.44,7.44,0,0,0-1.33,1.85l-0.31,1h-0.31l-0.1.62a43.83,43.83,0,0,1-2.77,3.79l-1.43,3.9a14.27,14.27,0,0,0-.92,3.9q-1.13,1.64-1.74,2.46a10.91,10.91,0,0,1-1,2.56l-0.31.2a6.27,6.27,0,0,1-.51,1.95,4,4,0,0,0-.2,2.26l0.2-.1,1-.1,0.1-.31a7,7,0,0,0,2.05-2.05v-0.82q1.85-2.25,2.67-3.38l0.1-.92a4.54,4.54,0,0,0,.72-1.44,53.57,53.57,0,0,1,5.54-7h0.51l0.2-.41,1-.51a33.91,33.91,0,0,1,5.13-6.56,4.32,4.32,0,0,0,1.13-1.13,7.72,7.72,0,0,1,2.36-1.85q0.51-1.54.72-2.26,2.46-.51,3.59.92l0.51,0.1a2.35,2.35,0,0,0,1.33.72,4.52,4.52,0,0,0,1.43.92l0.1,0.31a1.87,1.87,0,0,1,1,.46,1.29,1.29,0,0,0,1,.36v0.31q1.23,0.72,1.85,1l0.31,1.64a15,15,0,0,0-.2,3.79,28,28,0,0,1-1.08,5,18.58,18.58,0,0,1-1.59,4.61l-0.1.51a1.5,1.5,0,0,0-.61.92,1,1,0,0,1-.62.82,24.86,24.86,0,0,1-1.43,4.82l-0.72.82-0.1.51q-2.56,2-1.13,5.54l1.33-1.33A5.78,5.78,0,0,0,276,134q1-1.23,1.64-1.85l0.31-.1,0.1-.61,0.31-.1q1.74-1.64,3.38-3.28,2.46-2.36,2.46-3.49l0.72-1.13a8.17,8.17,0,0,0,1.33-1.23l0.41-.1,0.82-1,0.2-.1a4.91,4.91,0,0,1,1.43-1.33l0.51-.62a6.77,6.77,0,0,0,1.43-.72l0.62-.1,1.54-1.23,0.31-.1a7.4,7.4,0,0,1,2.15-2.26q1.64-1.85,2.46-1.95,3.08,1.23,4.72,1.74v0.2a21.32,21.32,0,0,1,1.95,1.64l1.64,2.26q0.31,0.51,0,3.9h-0.1a46.33,46.33,0,0,1-3.49,15q0.41,2.46.72,3.69l0.2,0.1v1.23l-0.2.1v1.33l1,0.72,0.41,0.72a3.46,3.46,0,0,1,1.33.72,11.1,11.1,0,0,0,4.72-1l0.1-.41q0.72-.62,1.44-1.33l0.51-.1,0.1-.31a30.11,30.11,0,0,0,3.49-3.08l0.31-.1q1.23-1.33,1.85-1.95l0.31-.1a25.4,25.4,0,0,1,3-3.38l0.82-.82v-0.62h0.41a4.83,4.83,0,0,1,.92-1.64l0.1-.82a2,2,0,0,0,.62-1.44,3.53,3.53,0,0,1,2.56-1.13,1.45,1.45,0,0,1,1.64,1.64,5.29,5.29,0,0,1-.1,1,50.27,50.27,0,0,0-4.41,5.74m-82.75-2.26a6.74,6.74,0,0,1-1,.82l-0.31.51-0.31.1q-3.18,2.36-4.92,3.38l-0.82,1.13a12,12,0,0,0-1.64,1l-0.41.62-1.33.82-0.1.31a6.25,6.25,0,0,0-1.33,1h-0.21l-2.46.92V145h-0.62l-0.2.41A25.7,25.7,0,0,0,224,147q-0.82.1-3.59,0.82a13.57,13.57,0,0,1-3.59.61,52.94,52.94,0,0,1-6.36-.41l-0.1-.2a4.86,4.86,0,0,1-3.08-.51,10.32,10.32,0,0,0-3.08-.92l-0.61-.72h-0.51a4.64,4.64,0,0,1-1.74-1.33l-0.62-.1q-2.36-1.74-3.49-2.77a1.65,1.65,0,0,0-.61-1.33,2.91,2.91,0,0,0-.72-1.43,1.67,1.67,0,0,0-.72-1.44,2.12,2.12,0,0,0-.72-1.33v-4.72l0.31-.72a5.4,5.4,0,0,0,1-1.74q1.33-5.13,2.15-7.69l0.72-.41q3-7.79,4.2-12a2,2,0,0,0,.72-1.74l0.31-.1,0.31-.92q2.05-2,3.08-3.18a8,8,0,0,1,1-1.43l0.1-.82a1.28,1.28,0,0,0,.61-1.13h0.41a5.39,5.39,0,0,1,1.64-1.74l0.1-.62a27.63,27.63,0,0,1,3.49-3.9h0.2l0.41-.62A0.81,0.81,0,0,0,216,91.5a17.61,17.61,0,0,1,1.33-1.23,14.25,14.25,0,0,0,2.15-.92q0.1,0,6.15.92,5.94,4.82,5.95,9.95a15.74,15.74,0,0,1-.62,4.1l-0.41.41q-0.21,1.85-3.49,6.87l-0.1.62a19,19,0,0,0-2.51,3.69,9.92,9.92,0,0,1-1.18,2.05h-1a5.17,5.17,0,0,1-1.74,3.9q-1.75,1.64-3.49,3.18l-0.31.1-0.1.41-1.33.82v0.31l-0.61.31-0.2.41q-2.77,2.46-3.69,2.46-3.49,2.05-5.23,3l-0.1.92-0.1-.1v0.1l0.2,0.2v1.95a3.89,3.89,0,0,1,.72,2.05l0.72,0.82V139q2.87,3.18,4.41,4.61a10.44,10.44,0,0,1,2.05.61,6.31,6.31,0,0,0,2.15.51,25.36,25.36,0,0,0,5.69-1.64q4.56-1.64,5.38-1.54a4.24,4.24,0,0,0,1.13-1.13l0.51-.31a19.49,19.49,0,0,1,4.2-3L233.3,136a11.23,11.23,0,0,0,2.56-2.05l0.51-.1a6.85,6.85,0,0,1,1.74-1.23,6.36,6.36,0,0,1,2.05-1.64l0.1-.2q2.67-1.54,2.67.92,0-.51-1,2.15M226,96.52a16.08,16.08,0,0,1-1.95-.72,1.9,1.9,0,0,0-1.95.72q-1.13,0-3.49,3.38l-0.62.41-0.1.31h-0.62v0.2a12.51,12.51,0,0,0-2.77,3.9,5.69,5.69,0,0,0-1,1.44q-1,.51-1.74,3.18a19.2,19.2,0,0,0-2.05,3.18L207.46,118H207q0,2.77-.72,3.59-0.31,2.15-.51,3.28h-0.1l-0.1,2.05,0.72,0.31q4.41-.1,4.92-2.77,2.15-1.43,2.26-1.54a5.36,5.36,0,0,0,4.1-4.82q2.66-2.36,3.9-3.59l0.1-1.74a2,2,0,0,0,.61-1.43,2,2,0,0,0,.72-1.54,20.68,20.68,0,0,0,1.74-2.26,22.48,22.48,0,0,1,.41-2.36l0.62-.62a59,59,0,0,0,1.13-6.67,7.44,7.44,0,0,0-.72-1.33M207.87,33.36l-0.31.1q-3.28,4.3-5.13,6.25l-0.1.51a26.39,26.39,0,0,0-1.95,2.46v0.1l-0.72,1.13-0.1.51q-2.77,4.51-4,6.87a5.78,5.78,0,0,1-2.15,3.49l-0.1.51a7.73,7.73,0,0,0-.72,2.31q-0.41,1.9-1.33,2.2a7.26,7.26,0,0,0-2.05,4,13.93,13.93,0,0,0-1.95,2.46,22.5,22.5,0,0,1-.82,3.38l-1.33,1.23a12.83,12.83,0,0,1-2.36,6.77,0.89,0.89,0,0,0-.41.72,26.17,26.17,0,0,0-1.74,4.1c-0.27,0-.41.24-0.41,0.72a5.55,5.55,0,0,0-1.33,2.15h-0.41a20.5,20.5,0,0,0-1.64,3.38h-0.61L176.09,90l-0.62,1.23a16,16,0,0,1-1,3.08,31.08,31.08,0,0,1-3.18,5,25.61,25.61,0,0,1-2.05,4.61,41.22,41.22,0,0,0-2.46,5.64,12.11,12.11,0,0,0-1.54,3.49l-0.2.1q-0.41,2.26-.72,3.28a11,11,0,0,0-1.33,2.26,4.47,4.47,0,0,1-1.44,3.38l0.1,0.31a76.52,76.52,0,0,0-2.77,8.1L159,131a8.86,8.86,0,0,0-.72,3.49q-0.1-.41-0.2.1v6.87q1.23,3.59,3.9,2.77l0.41-.61c0.48,0,.68-0.14.62-0.41l1.33-1q-1.54,0,2.77-.72l0.61-.72a0.94,0.94,0,0,1,.72-0.62l0.1-.72c0.62,0,.85-0.14.72-0.41l1.33-1.13,0.1-1.13a16.92,16.92,0,0,0,1.33-1.85,31.39,31.39,0,0,0,4.72-4.1c-0.14-.27.1-0.41,0.72-0.41a36.14,36.14,0,0,1,2.77-3.49l0.31-2.67a1.1,1.1,0,0,1-.2-0.62l0.72-1a0.52,0.52,0,0,1,.51-0.2c0.27-.07.41,0,0.41,0.2l1.74,0.2,0.31,0.41,2.26,0.31q0.41,1.33-1.13,2.56l-0.72,1.44-0.41.1L183.06,129l-0.1.62-0.72.72-0.31.1a7.53,7.53,0,0,1-3,2.67,36.83,36.83,0,0,1-6.87,6.26l-0.21.41q-5.95,4-9,5.84l-0.2-.1q-1.95,1-3,1.43l-2.56-.72-0.72.31a24.66,24.66,0,0,1-3.18-.92q0.2-.41-0.62-1.08a1.9,1.9,0,0,1-.82-1l-0.61-.41a4.84,4.84,0,0,1-.72-2.05,9,9,0,0,1-2.05-3.69v-0.72a5,5,0,0,1-.72-3.18q0-6,2.05-9l0.1-.51,0.61-.61,0.1-1.33a16,16,0,0,0,1.23-2.36,28.7,28.7,0,0,1,.72-2.87,9.37,9.37,0,0,0,1-4.1l0.1-.2a11.73,11.73,0,0,1,.56-1.69,5.52,5.52,0,0,0,.46-1.9l0.72-1.54a37.42,37.42,0,0,0,2.05-8.31q2.67-5.95,2.77-6l0.31-.1,0.31-1,1.44-1.74,0.1-1.33q2.77-6.87,4.41-11.48,4.72-7.08,7.49-10.66c0.2,0.14.37-.1,0.51-0.72h0.31l1-1.74,0.61-.41,1.44-2.05q0.1-4,.72-4.41,0.62-3,.62-3.08L179,53.77q0.1,0.31-.41.46a0.57,0.57,0,0,0-.51.36l-1.13.82a30.61,30.61,0,0,1-2.26,2.67l-0.61.31a5.71,5.71,0,0,1-1.85,2.36l-0.1.31-0.82.82-0.1.41q-2.77,3-4.1,4.51l-0.31.1a10.1,10.1,0,0,0-1.95,2.26l-0.51.1-0.62.92a1.5,1.5,0,0,1-.51.72,59.82,59.82,0,0,1-3.79,4.72q-0.31-.1-0.62.72-1.85,1.44-2.05,1.54L156,79.5q-4,4.31-5.64,4.51l-0.51.51-0.31,2.15a11,11,0,0,0-2.36,2.05h-0.51q0.31,1.75-1.79,3t-2.2,2.61q-0.31-.41-0.51.62l-3.38,3.08q-2.05,2.77-2.15,2.87a16.79,16.79,0,0,1-1.43,3.08,10.37,10.37,0,0,1-2.15,2.15,41.54,41.54,0,0,1-4,5.43,17.81,17.81,0,0,0-2.46,4.1c-0.27,0-.41.24-0.41,0.72q-2.15,1.64-6.25,10.46a7.8,7.8,0,0,0-1.95,2.15l-0.1.82-0.62.82a16.82,16.82,0,0,1-1.43,3.08q-2.36,3.38-3.59,5a0.66,0.66,0,0,1-.41.62q-1.74,3.18-2.46,4.82l-0.41.1a15.4,15.4,0,0,1-1.43,2.77,5.91,5.91,0,0,1-2.05,3.49v0.51a7.91,7.91,0,0,0-1.33,2.67l-0.1.61a39.37,39.37,0,0,0-3.49,4.41,10.67,10.67,0,0,1-3.69-.41q-0.51.31-7.18-.31l-1.43-1.13a24.62,24.62,0,0,1-.31-4.31l0.92-.82q0.41-2.15.72-3.28L90,148.1l0.31-2.46,1-1.44H91.6l3.08-11.69a0.92,0.92,0,0,0,.51-0.62,23.77,23.77,0,0,1,1.95-2.36,9.33,9.33,0,0,1,.77-2.2,6.3,6.3,0,0,0,.67-2.41l0.72-1.33,0.31-.1,0.41-.72a11.16,11.16,0,0,0,2.67-2.15q0-3.38,1.33-4.92,0.72-4.61,1-7l0.2-.1,0.21-1.74h0.41l1-1.54q1-4.92,1.43-8.82l0.62-.92q0.41-3.08.72-4.61a2.54,2.54,0,0,0,.72-2.15l2.05-2.77h0.41l0.92-1.54q0.51-2.46.72-3.69l0.41-.41q0.61-5,1.64-5.84l0.1-.51,1.23-1.23a30.12,30.12,0,0,0,1.95-11l-0.2-.1-0.21-4.41q-0.31-3.08-1.33-3.9l-1.43.31-0.1.41L111.9,57q-2.87,4.41-4.41,6.56a25.62,25.62,0,0,1-3.38,2.67,1,1,0,0,1-.72.82A24.3,24.3,0,0,0,100,69.45l-0.92.72a27.67,27.67,0,0,1-4.72,4.92q-6.15,10.15-6.26,10.25H87.8a8.59,8.59,0,0,1-1.74,2.15l-0.72,1.23h-1l-0.41,1.44a0.63,0.63,0,0,0-.61.72L82,92.32l-0.31,1a5.8,5.8,0,0,0-1.43,2.36,20.23,20.23,0,0,0-4,4.87q-2.46,3.74-2.56,5.49l-0.41.1-1,1.74a13.73,13.73,0,0,1-1.64,3.69,0.89,0.89,0,0,0-.41.72l-1.44,1.74-0.2,1.23-1.43,1.95a6.43,6.43,0,0,0-1.69,2.31,7.79,7.79,0,0,1-1.23,2.2,4.07,4.07,0,0,0-1,2.15q-0.82.41-.82,2.56,0-.82-1.33,2.26l-0.51.2-0.72,1a36.53,36.53,0,0,1-2.36,5.95H57l-0.1.72H56.63l-1.74,2.05-0.41.1-1.64,2.36q-0.72,5.54-2.77,7.59-1.54,4.31-2.15,6.56A21.69,21.69,0,0,0,46,158.66l-0.1.72-0.62.82-0.31,1.74q-0.82.1-.41,0.92-1.85.92-2.77,1.43a28.11,28.11,0,0,0-3.59.36,18.37,18.37,0,0,1-3.79.26l-0.31-.31a7.58,7.58,0,0,1-4.1-2.46,24.21,24.21,0,0,1,.41-6.87q0.92-5.23,1-6.77,1.33-3.18,2.05-3.69,0.41-3.59.72-5.33a23,23,0,0,0,1.33-3.69l0.72-.62q0.51-1.95.72-2.87l0.72-1.23h0.1l0.51-1.43h0.41l1-2.15V127q2.87-6.77,4.1-10.46h0.41a13.51,13.51,0,0,1,2.36-2.87A2.38,2.38,0,0,1,47,113a3.69,3.69,0,0,0,1-2.46l0.41-.31q0.62-2.77,1-4.1L50.07,105a0.69,0.69,0,0,0,.61-0.57c0.14-.37.27-0.53,0.41-0.46a9.85,9.85,0,0,0,1.59-3.49,6.65,6.65,0,0,1,2-3.49q0.51-1.95.82-3-0.1-1.54,1.95-3.9a7.26,7.26,0,0,1,.92-2.67,2.88,2.88,0,0,0,.72-2.26l0.61-.72A8.85,8.85,0,0,1,61.25,82l0.31-.1,4.51-8.41L66.37,73l0.72-3.9a15.32,15.32,0,0,1,3.08-6.46V60.95q-2.87-4.31.61-5.64l0.82-2.36q1.33-1.13,1.95-1.74-0.1-.41.51-0.61l0.51-1.23-0.2-.31-0.1-1.43q-3-3.39-.41-8.82a10.46,10.46,0,0,1-.1-4q0.51-3.59.51-4.1l-0.2-.1V29.88A0.61,0.61,0,0,1,73.65,29L71.6,26.49c0-.62-0.14-0.85-0.41-0.72l-0.41-.62c-0.61-.07-0.86-0.31-0.72-0.72a7.43,7.43,0,0,0-2.15-.31q-3.69,0-8.71,3.08l-0.2.41a44.23,44.23,0,0,0-7.59,5.13,8.41,8.41,0,0,0-2.67,2.15c0.07,0.27-.14.48-0.61,0.62L47.2,36.85H46.89a4.06,4.06,0,0,1-2.26,2.46,7.46,7.46,0,0,1-2.15,2.77l-1,2.36-0.31.1q-4.92,5-5.23,6.15l-0.41.1-0.72,1.95q-1.33,1.85-1.95,2.87A99.09,99.09,0,0,1,27.2,66.69a24.94,24.94,0,0,0-2.36,7.48q-1.64,2.56-3.49,9.64a53.87,53.87,0,0,0-1.95,12.72,8.24,8.24,0,0,0,.92,4.51,34.89,34.89,0,0,0,6.15.2q4.1-3.79,6.36-5.54a0.72,0.72,0,0,0,.61-0.41q2.05-1.13,3.08-1.64A29.78,29.78,0,0,1,39,90.27L39.41,89l0.72-.31a30.84,30.84,0,0,1,3.69-5V82.89l0.41-.41,1-4.51L47.2,76l0.1-.31,1.33-1.13a10.19,10.19,0,0,0,1.44-4.41,4.41,4.41,0,0,0,1.13-2.67L51,67l0.51-2.15,2.05-2.46L54,60.84a11.45,11.45,0,0,1-.41-2.67L54,57.36q-1.64-5.54-2.46-8.82V46.18l1.23-.51a3.65,3.65,0,0,1,3,1.54L57.66,48a3.34,3.34,0,0,0,1.44,1.23,2.39,2.39,0,0,1,1.33,2.05,28,28,0,0,1-1.13,7Q57.66,63.92,57.45,65q-3.69,6.15-3.9,6.56-1.74,6.05-3.49,8.2l-0.41.1L48,81.76l-0.1.62q-2.77,4-4.61,6.36l-0.41.1-1,2.05H41.66a48.61,48.61,0,0,0-3.38,3.9,3.75,3.75,0,0,0-2.15,2.05Q33.36,99,32,100.22v0.31c-0.55.14-.79,0.31-0.72,0.51q-5.23,3.79-8.82,3.9l-0.2.21-1.95.31-0.82.72q-0.31.82-4.82,2.05a43.21,43.21,0,0,1-4.82-3.49v-0.31q-0.41-.92-0.2-5.84a3.28,3.28,0,0,1-.41-1.43V92.53a17.22,17.22,0,0,0,2.05-8.2l1.33-1.85Q12.85,77.86,16,77l0.72-.82q0-1.95,2.15-4.61l0.31-.1q1.23-2,1.85-3.18a6.87,6.87,0,0,0,1.23-3.08L23.1,63l0.62-.62,0.1-.51,0.61-.51a3.73,3.73,0,0,1,.72-2.26l0.41-.1,1.23-2.05a0.7,0.7,0,0,0,.51-0.62A34.23,34.23,0,0,0,30,52.54V52l0.72-1,0.61-.31Q35,44.13,34.9,43.21q1.85-1.74,2.77-2.56A6.06,6.06,0,0,0,41.77,38V37.26l0.61-.72,0.1-.51,0.62-.61,0.72-1.64,1.43-1.43,0.41-.1q1.64-2.77,1.64-2.87L48,28.44a13.71,13.71,0,0,1,2.56-5.33,29,29,0,0,0,3.38-3q0.1-1,.82-0.51l1.64-1.44A1,1,0,0,0,57,17.78a24.58,24.58,0,0,1,4-1q0.82-1,5.64-.51l2.77,1.33v0.31L71,18.8l1.13,0.1,1.95-1.33,1.43-.31,1,0.31,1.23,1.33a1.05,1.05,0,0,0,.41.72q7.48,6.77,7.48,17.74l-0.31.31-0.51,2.15-0.1.1Q83.29,53.05,82,55v4q-1.74,4.72-2.77,7.69L78.88,68l-0.41.31a29.12,29.12,0,0,1-.92,3.59L77,72.33a5.52,5.52,0,0,1-.72,2.15,5.53,5.53,0,0,0-.72,2.26,29.71,29.71,0,0,0-1.95,5.13l-0.72.82a31.87,31.87,0,0,1-3,6.26l-0.1,1.23L69.24,91a0.82,0.82,0,0,1-.51.92A10.8,10.8,0,0,1,67,96.27a12.73,12.73,0,0,0-1.79,4.26,14.91,14.91,0,0,0-1.44,3.28l-0.51.31a10.36,10.36,0,0,0-1.44,2.67,5.1,5.1,0,0,0-1.64,2.05l-0.41.1a7.16,7.16,0,0,0-1,2.67l-0.41.41-0.72,2.36a11,11,0,0,0-1.33,2.26A7.93,7.93,0,0,1,55,120.42a13.43,13.43,0,0,0-1.74,3.69l-0.41.1a6.29,6.29,0,0,0-.92,2.67q-1.23.72-1.23,4.1l-0.31.1q-2.15,3.08-3.08,4.72l-0.1.72-0.92,1.43-0.31.1-2.15,4.1a2.32,2.32,0,0,1-.31.72l-1,1.43a12.61,12.61,0,0,1-.77,2.56,8.29,8.29,0,0,0-.67,2.77l-0.72.92a6.26,6.26,0,0,1-1.33,3q-1.44,7.07-1.44,7.28a2.5,2.5,0,0,0,1.85-1.13,5.79,5.79,0,0,1,1.33-1.33l1-1a0.72,0.72,0,0,1,.41-0.61l0.31-1.13A3.8,3.8,0,0,0,43.82,153l0.72-.51Q45,149.74,45.87,149l0.1-1.33,1.33-2.46,0.72-.41v-0.51a7.1,7.1,0,0,0,1.33-2.56l0.1-.72,0.62-.61v-0.72a4.79,4.79,0,0,1,1.85-1.85l0.2-1,0.72-.51a10.77,10.77,0,0,0,1.44-4.92,15.92,15.92,0,0,1,4.1-5.33l0.72-1.84q0.61-.41,3.28-6.46,2.77-6.46,4.92-8.31a8.61,8.61,0,0,0,1.43-4h0.41A15.69,15.69,0,0,1,71.5,102q0-.92.41-0.72a22,22,0,0,1,1.74-2.15,0.44,0.44,0,0,1,0-.41q0.2-.31.31-0.1l1.13-2.05a0.82,0.82,0,0,0,.61-0.92l0.72-1.13,0.31-.1q1.54-2.77,2.46-4.1l0.31-.1,0.1-1.33h0.82l0.1-.72h0.41l1-1.23-0.1-.1,0.72-1,0.1-.51a6.36,6.36,0,0,0,2.05-3.49l0.62-1.33a37.92,37.92,0,0,0,3.49-4.2l0.72-1.85L90.88,73l0.1-.31A27.09,27.09,0,0,0,93,70.17h0.31a12.24,12.24,0,0,1,1.74-2.26,21.49,21.49,0,0,1,1.44-3.28,2.38,2.38,0,0,0,.61-0.41q1.43-1.33,2.15-2.15l1.74-.92,1.64-2.77h0.2l0.62-.92a10.55,10.55,0,0,1,2.36-1.23,8,8,0,0,0,3.08-2.77l0.31,0.1q4.51-1,5.64-3.69l2.36-5.33a8.75,8.75,0,0,1,2.15.36,8.4,8.4,0,0,0,1.95.36,41.93,41.93,0,0,1,9.74,6.87,1.28,1.28,0,0,0,.51,1.23,3.9,3.9,0,0,1,.92,1.44l0.41,0.2a1.4,1.4,0,0,1,.2.92q0,3.08-1.9,10.92t-2.82,8.87a49.64,49.64,0,0,1-1.54,6.15,18.65,18.65,0,0,0-1.33,3l-0.2.1a21.62,21.62,0,0,1-1,3.79l-0.31.1-0.1,1.33-0.82.82q-0.61,3.08-1,4.51a48.56,48.56,0,0,0-4.2,9.95l-0.62.51v0.82q-2.36,2.05-3.79,9.43l-0.31.41a66.4,66.4,0,0,1-2.51,8.77q-2.31,7-3.13,8.25c-0.27.2-.1,0.34,0.51,0.41l1.33-.2,1-1.33q2.56-1.13,3.38-4.92l0.72-.62,0.61-.1,1.44-1.64,0.1-.62,0.61-.51,3-7.48a1.29,1.29,0,0,0,.51-0.72l1.95-2.46,0.1-.62,0.72-1.13h0.1l1.64-1.43a13.24,13.24,0,0,1,3.08-4.92,0.72,0.72,0,0,1,.41-0.62,24.78,24.78,0,0,1,1.95-2.67L131,102a15.48,15.48,0,0,1,3.49-4.2q0.51-4.2,1.54-5.43l0.31-.1,0.41-1,1.23-1,0.1-1.33,1.23-.1,1.54-1.23,0.41-.1,1.54-2.05,0.1-.62L145,82.68l0.51-.1a4.62,4.62,0,0,0,1.54-2.46q5.43-4.51,5.43-5.74l1.44-1.43,0.61-.1,0.72-.72,0.1-.31,2.05-2.36a1.07,1.07,0,0,0,.72-0.41l0.61-.41,0.72-2.56a50.84,50.84,0,0,0,4.1-4.31,2.36,2.36,0,0,1,.41-0.62q2.25-2.77,3.38-4.2h0.51l0.72-.62h0.1l0.51-.51,1.23-.31,0.72-.72a1.56,1.56,0,0,1,.51-0.62q1.13-1.54,1.64-2.36V51.31a12.49,12.49,0,0,1,3.08-2.87q1.13-.82,2.67-4.72A9.14,9.14,0,0,1,183,38.8q0-1,.41-0.51a4.77,4.77,0,0,1,2.46-2.87V35.11a95.8,95.8,0,0,0,8.31-7.18h0.51a21.3,21.3,0,0,0,5.74-4.2,0.72,0.72,0,0,0,.61-0.41,8.7,8.7,0,0,1,5-.92c0.07,0.2.31,0.27,0.72,0.2l0.62,0.51h0.51l1.43,1.64,0.1,0.51,0.51,0.62,0.1,0.62a5.45,5.45,0,0,1,.92,3.49,17.72,17.72,0,0,0-3.08,3.38m-101,103.46h-0.72q-0.61,1.95-.92,3l0.21,0.72H106a4.82,4.82,0,0,0,1.44-2.36Z" transform="translate(-9.26 -16.07)"/><path class="cls-1" d="M399.92,222.15H385.26a10.06,10.06,0,0,1-10-10V185.75a10,10,0,0,1,10-10h14.65v2.05H385.26a8,8,0,0,0-8,7.93V204l17.08-4.67v2.15l-17.08,4.57v6.07a8.09,8.09,0,0,0,8,8h14.65v2Zm-17.83-10v-2.43l17.17-4.48V193.13l-17.17,4.57V185.75a3.15,3.15,0,0,1,3.17-3.17h19.41V171H385.26a14.74,14.74,0,0,0-14.84,14.75v26.41A14.82,14.82,0,0,0,385.26,227h19.51V215.25H385.26a3.13,3.13,0,0,1-3.17-3.08m-25,10h-2V185.85a8,8,0,0,0-7.75-8H328.61v44.33h-2V175.86h20.72a9.88,9.88,0,0,1,9.71,10v36.31ZM347.37,171H321.71v56h11.67V182.67h14a3.11,3.11,0,0,1,3,3.17V227H362V185.85A14.9,14.9,0,0,0,347.37,171m-38.82,51.24H306.5V200l-26.41,7.09v15.12H278v-36.4a10.06,10.06,0,0,1,10-10h10.55a10.06,10.06,0,0,1,10,10v36.4Zm-10-51.24H288a14.82,14.82,0,0,0-14.84,14.84V227h11.76V210.86l16.71-4.57V227H313.4V185.85A14.82,14.82,0,0,0,298.56,171m3.08,23.24-16.71,4.48V185.85a3.11,3.11,0,0,1,3.08-3.08h10.55a3.11,3.11,0,0,1,3.08,3.08v8.4Zm-3.08-16.43H288a8,8,0,0,0-7.93,8V205l26.41-7V185.85a8,8,0,0,0-7.93-8m-51.89,44.43a10.14,10.14,0,0,1-10.08-10V176h2.15v36.21a7.93,7.93,0,0,0,7.93,7.93h14.65v2.05H246.67Zm19.41-6.91H246.67a3.13,3.13,0,0,1-3.17-3.08V171H231.83v41.25A14.86,14.86,0,0,0,246.67,227h19.51Z" transform="translate(-9.26 -16.07)"/></svg>