<?xml version="1.0" encoding="utf-8"?>
<!-- Generator: Adobe Illustrator 19.2.1, SVG Export Plug-In . SVG Version: 6.00 Build 0)  -->
<svg version="1.1" id="Layer_1" xmlns="http://www.w3.org/2000/svg" xmlns:xlink="http://www.w3.org/1999/xlink" x="0px" y="0px"
	 viewBox="0 0 800 337" style="enable-background:new 0 0 800 337;" xml:space="preserve">
<style type="text/css">
	.st0{clip-path:url(#SVGID_2_);fill:#324152;}
</style>
<g>
	<defs>
		<rect id="SVGID_1_" x="5.2" y="5" width="790.4" height="326.4"/>
	</defs>
	<clipPath id="SVGID_2_">
		<use xlink:href="#SVGID_1_"  style="overflow:visible;"/>
	</clipPath>
	<path class="st0" d="M794,177.5c-2.6,1.4-4.6,2.4-5.9,3.2c-1.8,1.3-3.2,2.1-4.1,2.5l-0.2,0.6l-0.9,0.2c-1.1,1-1.9,1.6-2.5,2.1h-0.8
		c-1.3,0.8-2.6,1.6-4.1,2.2c-0.4,0.6-1.2,0.9-2.2,0.9c-2.4,1.6-4.3,2.6-5.7,3.2c-0.9,0.3-1.6,0.7-2.1,1.1l-0.9,0.3
		c-2.5-0.1-4,0.8-4.3,2.8l-1,0.2l-0.9,0.9l-0.8,0.2l-0.9,0.9h-0.8l-1.1,0.9c-3.4,0.8-4.6,1.3-3.8,1.3c-1.8,1.3-3.3,2.6-4.6,4
		c-4.5,15.6-7,23.6-7.4,23.9c-0.1,2.3-0.4,3.9-0.9,4.7l-0.2,1.1c-1,0.7-1.6,2.5-2.1,5.4l-0.3,0.2l-0.2,1.3l-0.6,0.9v1.1l-1.1,1.4
		c-2.1,7.1-3.9,12.3-5.4,15.8c-0.7,0.8-1.3,1.5-1.6,2.1c0-0.4-0.5,0.6-1.6,3.2c-1.4,2-2.1,3.7-2.1,5.2v0.9c-1.4,2.8-2.2,4.6-2.4,5.2
		c-1.2,1.4-2.6,3.9-4.4,7.6c-1.7,3.7-3.4,6.3-5,7.9c-0.4,1.4-0.8,2.4-1.3,3c-1.7,1.9-2.7,3.1-3,3.5l-0.5,1.9c-1.4,2-2.3,3.1-2.7,3.3
		c-0.5,0.9-1,1.6-1.3,2.1l-2.1,1.3l-0.2,0.5c-1.1,1.1-1.8,2.3-2.4,3.6h-0.5c-1.6,1.6-2.4,2.5-2.5,2.7c-1.6,1-3.4,2.5-5.4,4.7
		l-0.3,0.2l-0.6,0.9c-2.5,1.1-4.5,1.8-5.9,2.2c-3.5,3.2-5.4,5-5.7,5.4c-2.8,0-5,0.7-6.3,2.1h-1.1l-0.5,0.6c-1,0.4-3.3,0.5-7,0.3
		c-3.1-2.2-6-3.9-8.7-5.1l-0.2-0.8l-0.8-0.9c-0.2-1.9-0.6-2.8-1.3-2.8l0.2-0.3c-0.5-3.1-1.1-5.4-1.6-7l-0.6-0.2
		c0-4.9-0.7-8.6-2.1-11.4v-13.1c0.6-0.3,1-1.6,1-3.8c0.6-0.6,1-1.7,1.1-3.2l0.6-0.6c0.3-1.4,0.5-2.2,0.5-2.5
		c0.6-1.4,1.3-2.3,2.1-2.8c0-0.6,0.4-1.6,1.1-2.8c0.7-1.3,1.1-2.3,1.1-3c3.1-3.4,4.8-5.3,5.2-5.9c0.3-1.3,0.6-2.2,0.8-2.8
		c1.1-0.5,1.9-1.2,2.5-1.9v-0.8l0.9-0.8l0.2-0.8l1.1-1.6c1-0.4,1.7-1,2.4-1.7c2.4-0.2,4.1-0.9,5.1-2.2c1-0.2,1.6-0.6,2.1-1.1
		l0.9-0.2l0.2-0.5c3.6-3.4,6.1-6.2,7.4-8.4l0.2-0.9c2.2-2.3,4-4,5.2-4.9l0.8-0.2c0.8-1.1,1.6-1.7,2.4-1.9c2.7-1.3,4.5-2.5,5.2-3.6
		l0.2-0.8h0.9l0.2-1.1c0.6,0,1-0.4,1-1.3c0.8-0.6,1.5-0.9,2.1-0.8l0.3-0.6l1-0.5c0.2,0,1.9-0.8,5.1-2.5l0.3-0.6l1.1-0.9l0.5-0.2
		c2-2.4,3.6-4.2,4.7-5.4h0.9c0.9-1.2,2.4-1.8,4.3-2.1c0.6-0.8,1.4-1.6,2.2-2.2c1.5-0.4,2.5-0.8,3.2-1.1c0.8-0.7,1.7-1.1,2.7-1.1
		c1.4-1.1,2.6-1.8,3.6-2.4l0.2-0.6c2-1.5,3.4-2.7,4.3-3.8c0.1-6.7,1.1-11.5,2.8-14.2c0.4-2.7,0.7-4.9,1-6.3c0.3-1.2,0.5-2.4,0.5-3.6
		l0.9-1.1l0.2-0.8c0.8-1.1,1.4-1.8,1.7-2.4v-1.1l-0.8-0.6l-1.9,0.8l-2.2,2.2c-0.6,1.2-1.2,2.1-1.6,2.7c-2.5,2-4.4,3.6-5.5,4.7
		c-0.3,1.1-2,2.9-5.1,5.5c-3.1,2.6-5.3,4.3-6.6,5.1c-1.8,0.4-3.2,0.7-4.3,0.8c-0.1,1.2-0.3,2-0.6,2.4l-1.4,1.1l-2.2,0.2l-0.3,0.2
		c-3.1,0.3-6.3-0.2-9.8-1.4c-0.5-1.4-0.7-2.2-0.6-2.4l-2.5-0.5l-0.2-0.5c-0.8-0.5-1.6-1.2-2.2-1.9l-0.5-0.2l-0.5-0.8l-0.6-0.2
		l-0.5-1.1H692c0,0.1-0.3-0.4-0.9-1.6c0-0.3-0.1-0.8-0.2-1.4c-0.2-0.6-0.2-1.1-0.2-1.4c0-0.8,0.2-2.1,0.6-3.6
		c0.4-1.6,0.6-2.7,0.6-3.5l0.3-0.3v-6.2c0.8-1.1,1.2-2.2,1.1-3.3h0.5c1.6-4.5,2.5-9.2,2.8-14.1c0.8-1.2,1.5-1.8,1.9-2.1l0.8-1.4
		l0.3-4.7c0.8-0.6,1.2-1.4,1.1-2.2h0.5c0.6-1.2,1.2-1.9,1.6-2.2c0-0.5,0.2-1.2,0.6-2.1c0.4-0.9,0.6-1.6,0.6-2.1h0.5
		c0.7-1.3,1.7-2.6,3-4.1l0.6-0.3l0.2-0.8l0.9-1.1h0.9c0.2-1.4,1-2.8,2.4-4.3h3c1.9,1,3.4,2.2,4.6,3.6l0.2,0.5c2.4,1.4,4.4,3.3,6,5.7
		L725,138c-1.9,0.4-3,1.1-3.3,2.1c-0.7,0.7-1.2,1.2-1.4,1.3c-0.5,1.1-1.2,2.1-2.1,3.2h-0.6v0.9c-0.7,0.8-1.2,1.5-1.4,2.1l-0.8,0.3
		v0.8c-0.7,0.9-1.2,1.7-1.4,2.2l-0.6,0.2l-0.2,1.6l-4.1,4.7v1.6c0.1,0.6,0.2,1.1,0.2,1.4c0,0.1-0.5,1.6-1.6,4.4l-1.4,1.1
		c-1.4,5.3-2.5,9.2-3.3,11.7l-0.3,0.2c-0.2-1.4-0.3,1-0.3,7.1c0,0.1,0.5,2.2,1.6,6.2c1.7,0.9,3,1.4,3.8,1.4c0.4,0,1.1-0.3,2-0.9
		c0.9-0.6,2-1,3.2-1.1l1.3-0.9l1-0.2l1.3-0.9l0.3-0.8c0.5-0.2,1.1-0.7,1.7-1.4c1.4-0.4,2.3-0.9,2.9-1.3c0.6-0.5,1.3-0.8,2.3-0.9
		l1.4-0.9l0.2-0.6c2.4-1.9,4.2-3.5,5.2-4.7v-0.6c0.6-0.2,1.4-0.7,2.2-1.6v-0.9l1.4-2.1l0.6-0.3v-1c0.6-0.7,1.7-1.4,3.2-2.1l0.2-0.6
		l0.8-0.5c1.5-2,2.6-3.5,3.3-4.4l0.2-0.8h0.5c1.1-1.7,2.1-3.1,3-4.3l0.6-0.3v-0.8l1.1-0.6l0.2-0.8c0.7-0.6,1.1-1.2,1-1.7
		c0.3,0,0.7-0.5,1.1-1.4c2-0.7,3.4-4.2,4.3-10.3c0.7-0.7,1.1-1.7,1.1-2.8l0.9-0.9l0.2-1.6c0.7-0.5,1.1-1.3,1-2.2l0.6-0.2l0.3-0.3
		l0.2-0.8l1.4-1.9h0.5c0.6-0.9,1.6-1.3,2.8-0.9c1.1,0.3,2.1,0.6,3.2,0.9c3.6,2.1,6.3,3.6,8.1,4.6l0.2,0.6h0.8
		c0.9,0.5,1.4,1.7,1.4,3.5c-1.1,0.8-1.9,1.4-2.5,1.7l-0.8,0.2l-0.2,0.6c-2.2,1.9-3.4,3.1-3.6,3.6c-1.6,0.4-2.9,2.5-4,6.3
		c-0.9,1.2-1.6,2.1-1.9,2.7c-0.7,2.1-1.5,3.8-2.2,5.1c-0.1,0.9-1.7,5.8-4.9,14.6c-3.2,8.8-5.1,13.8-5.7,15l-0.2,1.1l-1.1,1.3v1.1
		c0.8,0.1,2.1,0.1,3.8-0.2c1.2-1.1,2.1-1.7,2.8-2.1l0.8-0.2c2.8-1.9,5.4-3.3,7.6-4.1l0.9-0.2l1.3-0.9h0.8l0.9-1l1-0.2
		c1.4-1.3,3.4-2,6-2.1c5.6-3.8,9.8-6.6,12.7-8.5c1.3-0.6,2-1,2.1-1.1l1-0.2l0.2-0.5c1.3-0.4,2-0.6,2.1-0.6c0.8-0.2,1.4-0.1,1.7,0.3
		c0.3,0.4,0.5,1.4,0.5,3C794.9,176.3,794.3,177,794,177.5 M731,214.2c-1.4,0.3-2.4,0.6-3,0.8c-2.3,1.2-3.8,2.2-4.4,3
		c-0.4,0-1.1,0.4-1.9,1.1l-0.8,0.2c-2,1.4-3.5,2.4-4.6,3h-0.9l-1.7,2.2l-0.9,0.2l-3.8,3h-1v0.2l-4.4,4.1l-0.5,0.2
		c-0.8,1.3-1.8,2.4-3,3.5l-0.6,0.2v0.5l-1,0.5l-0.3,0.6l-1.7,1.1c-0.8,1.4-2.1,3.1-3.8,5.1c-1,0.6-1.6,1.2-2.1,1.7l-0.2,0.6
		c-2.1,1.5-3.4,2.5-3.8,3.2h-0.9l-0.2,0.6c-0.5,0.3-2.1,2-4.6,4.9c-2.5,3-3.8,4.6-4,5.1c-1.5,1.6-2.5,3-3.2,4.3l-1,0.6l-0.2,0.6
		h-0.9c-2.8,3.7-4.3,6.3-4.3,7.9c-0.2,1.2-0.6,1.9-1.1,2.2c-0.5,1.7-1.1,2.9-1.6,3.6c-3.6,4-5.7,9.9-6.3,17.7l-0.5,0.6
		c0,1.6-0.6,3.9-1.7,7c-1.2,3.1-1.7,5.5-1.7,7.2l0.8,5.5l-0.3,0.3c0.7,2.7,1.3,4.8,1.7,6.2c0.8,0.7,1.5,1.3,2.1,1.6
		c0.3,0.6,1,1.3,2.1,1.9c2,0.4,4.2,0.3,6.5-0.5c2.7-1.1,4.7-1.6,6-1.6c0.4-0.4,1.1-0.8,2.1-1.1c0.9-0.7,1.8-1.5,2.7-2.2l0.2-0.8
		l0.8-0.6c0.2-1.1,0.9-1.7,2.2-2.1l1.3-1.7l0.9-0.5l0.2-0.6h0.8l1.1-1.4l0.2-0.8l0.9-1.1v-0.8l0.9-0.6l0.2-0.8l0.6-0.2l1.4-1.9v-1.1
		l1.1-1.1l0.2-1.1c0.4-0.4,0.9-1.1,1.4-1.9h0.5l0.2-0.8l0.5-0.3l2.2-3.2l0.3-0.2c2-2.4,3.1-3.8,3.3-4.1v-1l0.6-0.2
		c0.7-1.5,1.4-2.5,2.1-3.2h0.5c1.1-1.4,1.5-2.6,1.3-3.8l0.9-1.7c1.3-1.2,2.2-2.1,2.7-2.8l0.5-0.2c0-0.4,0.2-1,0.6-1.7
		c0.4-0.7,0.6-1.3,0.6-1.7c1.1-1.8,1.7-3.2,2.1-4.1c0-1.5,0.4-2.5,1.1-3.2l0.2-0.8l1-1.4l0.6-0.3l1-1.7h0.5c0-1.3,0.3-2,0.8-2.2v-3
		h0.6c1-1.5,1.5-2.2,1.7-2.2c0.7-1.2,1.4-2,1.9-2.5c0.8-3.9,1.3-6.2,1.4-7c0.8-1.2,1.4-2.1,1.7-2.7c0.3-2.1,0.5-3.6,0.5-4.4
		c1.9-1.4,3-3.9,3.2-7.4c1.2-1.4,1.7-3,1.7-4.7c-0.7-1.2-0.9-2.6-0.5-4.4c0.3-1.6,0.7-3.1,1.1-4.4c0.4-1.4,0.7-2.4,0.8-3h0.8
		c0.3-1.2,0.5-2.1,0.6-2.7L731,214.2z M692.6,184.3v0.8c-2.7,2.7-4.9,5-6.3,6.6v0.5l-1,0.5c-1.6,2-2.8,3.4-3.8,4.3h-0.5
		c-0.6,0.9-1.1,1.6-1.4,2.1l-0.3,0.2c-3.9,3.6-7,6.1-9.2,7.4c-2.1,0.2-3.5,0.6-4.1,1.1l-0.2,0.6c-1.3,0.6-2,1.1-2.2,1.4h-0.8
		c-1.7,1.3-3.1,2-4.3,2.2l-1,0.9h-0.3l-2.2,1.1c-0.7,0-1.6,0.4-2.5,1.1c-4.6,0.7-7,1.1-7.1,1.1l-0.8,0.3l-0.6-0.3
		c-2.7-0.4-4.8-0.8-6.2-1.1c-2.5-0.9-4.6-1.5-6.3-1.6c-1.1-0.3-1.9-0.5-2.5-0.6l-2.5-2.1c-0.5-2.1-0.9-3.7-1.1-4.7l-0.2-1.3
		l-0.9-1.1v-11.7c2-3.5,3-5.7,3-6.6l0.2-0.3v-2.4c2.4-1.2,4.2-2.1,5.2-2.8c1.1-0.7,1.7-1.3,2.1-2c0,0.4-0.2-1.4-0.6-5.4
		c-0.3-2.3-0.1-4,0.8-5.1l0.2-0.8l0.9-0.8c0.5-1.9,1.6-3.7,3.3-5.4v-0.9c0.5-0.3,0.8-1,1-2.1c0.8-1.1,1.5-1.8,1.9-2.4v-6.2
		c-1.8-1.3-3.1-2.4-4-3.5l-0.2-0.8l-0.5-0.2l-0.5-0.9l-0.6-0.2l-0.6-0.9l-0.8-0.2c-0.5-0.8-1.3-1.5-2.4-2.1l-0.6-1.1l-2.4,1.1
		c-0.1,0.5-0.5,1-1.1,1.3v0.8l-2.5,4.3c-0.5,0.4-1.1,0.8-1.6,1.1l-1.1,1.6c0,0.8-0.4,1.6-1.3,2.2c-0.1,0.9-0.8,2.6-2,5
		c-1.2,2.4-2.2,3.8-2.9,4.2c-0.1,0.6-1.2,2.4-3.2,5.1c-2,2.8-3.3,4.3-3.8,4.5c-0.8,1.4-1.5,2.4-2.1,3l-0.5,0.2l-1.4,1.4l-0.2,0.6
		c-1.5,1.1-2.5,1.8-3.2,2.4v0.3l-1,0.5l-0.3,0.6c-1.3,1.1-2.2,2-2.8,2.7l-0.2,0.5l-0.8,0.6c-0.8,1.4-1.8,2.1-3,2.1l-1.6-0.8
		c-0.2-1.6-0.2-3.1,0-4.4c4.2-4.5,6.4-7,6.5-7.3c1.4-1.2,2.1-1.9,2.1-2.4c3-3,5.4-5.5,7.4-7.6c0.8-1.5,1.3-2.3,1.3-2.4l0.9-1.9
		l0.6-0.2c0.7-1.1,1.6-2.1,2.5-3.2v-0.9h0.6c0.3-1.3,0.8-2.2,1.4-2.7c0.2-1.8,0.9-3.1,2.2-3.8l0.8-1.4l0.3-2.7l1.1-0.9l0.2-0.9
		c0.8-0.4,1.2-1.2,0.9-2.4c0.6-3,1-5.6,1-8.1c0.7-3,1.1-5.1,1.1-6.5l0.3-0.3c0.1-0.6,0.4-1.5,0.8-2.5c-0.8-2.3-1.7-4-2.5-5.1
		c0-0.5,0.2-1.1,0.7-1.8c0.5-0.7,0.7-1.1,0.7-1.3l0.9-0.2l0.2-0.5c2.5-1.5,4.4-2.2,5.5-2.1c1.9,0.5,3.8,1.1,5.7,1.6
		c2.2,1.9,3.9,3.3,5.1,4.3l1.7,3c0,0.7,0.2,1.3,0.5,1.7l-0.3,0.6c0,0.8-0.4,1.8-1.2,3c-0.8,1.2-0.9,2.8-0.4,4.9
		c0.2,1.6,0.4,2.8,0.5,3.6c0.8,0.9,1.6,1.7,2.2,2.3c0.6,0.6,1,1.1,1.1,1.7c2.5,0.7,4.4,1,5.7,0.8c2.6-0.4,4.3-0.6,5.1-0.6l0.3,0.2
		c3.1-0.1,6,2.1,8.7,6.6c0,2.4-0.6,4.2-1.7,5.4c0,0.6-0.4,1.5-1.1,2.5l-0.9,0.5c-1.5,2.1-2.5,3.7-3.1,4.9c-0.6,1.2-1,2-1.3,2.5
		l-0.5,0.2c-1.4,2.7-2.3,4.5-2.7,5.2h-0.5c-1,1.3-2.6,4.4-4.8,9.4c-2.3,5-3.5,8.1-3.6,9.4l-0.6,0.6c-1.1,3-2,5.1-2.7,6.5
		c-0.6,0.7-1.2,3.1-1.6,7c-0.4,4-0.5,6.6-0.2,7.8c2,2.2,3.2,3.5,3.5,4c0.8,0,1.5,0.2,2.1,0.5c1.8-0.4,3.2-0.6,4.1-0.5l0.2-0.2
		c1.4-0.3,2.4-0.6,3-0.8c1.7-1.3,2.6-1.9,2.7-2.1c1.1-0.2,1.7-0.5,2.1-0.9l1.3-0.2c0.6-0.7,1.4-1.2,2.2-1.3c3.1-1.7,5.6-3,7.6-4
		l0.8-0.2c3.1-2.4,5.3-4.3,6.8-5.5l0.2-0.9c1-0.4,1.7-1.1,2.2-1.9l0.8-0.3l0.3-0.5l0.8-0.5c0.1-0.5,0.5-0.9,1.1-1.3l0.2-0.8l1.1-0.9
		l0.9-0.2c0.1-0.5,0.5-0.9,1.1-1.3v-0.8h0.5c0.7-1.2,1.3-2,1.7-2.5c1.6-1.1,2.6-2.1,3.2-3v-0.9l1.1-1.1h1.6l0.8,0.8l0.5,1.4
		C693.8,182.9,693.1,184,692.6,184.3 M595.1,184.5l-0.6,0.2c-1.2,1.5-2.1,2.5-2.7,3.2L591,188c-6.8,4.4-11.2,7.1-13.3,8.1
		c-4.2,1.9-9.4,2.8-15.5,2.8c-1.7,0-3.8-0.4-6.4-1.2c-2.6-0.8-4.3-1.2-5.3-1.2c-2.6,0-4.9,1.7-6.6,5.2h-0.6l-0.2,0.6
		c-2,1.8-3.9,4.1-5.7,6.8l-0.8,0.3c-1.9,2.6-3.4,4.5-4.6,5.7c-1.5,0.9-2.8,1.5-4,1.6c-4.4,3.6-7.2,5.4-8.4,5.4
		c-4.2,2.7-7.3,4.1-9.3,4.1c-0.8,0-2.2-0.5-4-1.6c-1.8-1.1-3.8-1.6-5.8-1.7c-0.3-0.6-1.2-0.9-2.5-0.9l-0.2-0.5
		c-1.5-0.8-2.5-1.5-3.2-2.1V219l-1-0.2l-2.1-2.1v-0.9l-1.3-0.3v-0.8c-1-1.5-1.6-2.6-2.1-3.5c0-1.6-0.4-2.7-1.1-3.5
		c-0.2-2.2-0.2-3.8,0-4.7l1.1-1.9l1.1-0.8v-1.3l0.8-1.7c0-0.5-0.2-2.2-0.6-4.9c-0.3-2.1-0.4-3.6-0.2-4.4c0.6-0.7,1-4,1-9.7
		c0.7-0.9,1.1-2.3,1.1-4c0-0.6,0.4-1.5,1.1-2.6s1.1-1.8,1.1-2h0.5c0.3-0.6,0.5-1.9,0.5-3.8c0.7-1.2,1.1-1.7,1.1-1.6
		c1-0.1,1.7-1.2,2.2-3.2l0.9-1.3c0.8-3.2,1.6-5.5,2.2-7l1.1-0.9c0.2-2.4,0.1-4.3-0.5-5.7l-0.6-0.2c-0.4-4.3-0.8-7.6-1.1-9.8l1.1-1.9
		l1.9-0.5l1.3-1.7l-0.5-0.9l-0.6-0.2l0.2-0.5l-1.1-0.9c-0.1-0.8-0.1-2.8,0-6l0.5,0.2l0.6-1.6c0.8-0.4,1.8-1.1,3-1.9l0.2-0.5
		c1.9-1.2,3.3-2.1,4.2-2.9c0.9-0.8,2.9-1.2,5.9-1.2l0.2-0.3c1.2-0.1,3.8-1.1,7.9-3c3.8-1.8,7.1-2.7,9.8-2.7h15.7
		c1.3,0,2.7,0.7,4.4,2.1l1,0.2c3.5,3.6,5.5,5.8,6,6.5c0.9,3.4,1.8,5.9,2.5,7.6c1.4,3.6,2.1,7,2.2,10.3l0.2,0.3
		c0.1,1.8,0.2,3.1,0.2,4l0.3,0.3l0.3,7l-0.2,0.2l-0.2,2.2l-0.3,0.2c-0.2,1.8-0.4,3.2-0.5,4.1c-0.7,0.9-1.6,3.7-2.5,8.2
		c-0.8,4.1-1.7,6.5-2.7,7.3c-2.1,6.6-3.2,10.8-3.2,12.5c0,0.4-0.2,1-0.6,1.7c-0.4,0.7-0.6,1.2-0.5,1.5l-3.2,3.2l-0.2,1.6l-0.3,0.3
		c1,1.3,1.8,2.1,2.7,2.4c8.9,0.7,12.3,1.1,10.4,1.1c0.8,0,2.1-0.2,3.7-0.6c1.6-0.4,2.9-0.6,3.7-0.6c0.4-0.4,1.1-0.8,2.1-1.1
		c0.9-0.9,1.7-1.6,2.4-2.1c1.7-0.4,3-0.8,3.8-1.1c1.6-1.3,2.8-2.2,3.6-2.8c0.8-0.2,1.6-0.7,2.2-1.4h0.8c1.7-1.8,2.5-2.8,2.4-3.2
		c1.1-0.7,1.8-1.5,2.2-2.2h2.8l0.6,2.1C596.5,182.6,596,183.7,595.1,184.5 M557.8,144.2l-1.9-1.6v-1.7l-0.6-0.2
		c0.6-2.3-0.3-4.8-2.8-7.4c-0.5-1.7-0.8-2.5-1-2.5l-0.2-1.6c-1.3-1.1-2.7-2.8-4.3-5.2l-0.2-0.8c-1.3-1.2-2.1-1.8-2.5-1.9
		c-1.4-1.2-2.4-2.1-3-2.7c-0.4,0-1-0.2-1.8-0.6c-0.8-0.4-1.5-0.6-2-0.6c-6,0-10.7,0.7-13.9,2.2c-1.9,1.1-3.3,1.9-4.3,2.5l-0.2,0.6
		h-0.9c-0.5,1-1.3,1.7-2.2,2.2c-0.9,2-1.8,3.4-2.7,4.3c-1.3,2.3-2.1,4.1-2.5,5.4c0,0.8-0.2,2.2-0.6,4c-0.4,1.8-0.6,3.3-0.6,4.4h1.4
		l0.5-2.1l0.5,0.2c3-2.6,6.6-3.4,11.1-2.2c0.7,0.6,1.4,0.9,2.1,0.9l0.5,1.1c1.4,0,2.4,0.1,3,0.2v1.9c2,2.1,3,3.7,3,4.7l-1.9,1.7
		l-0.8,0.2l-1.3,0.8l-1,0.2c-1.3,1.3-2.3,2.1-3.2,2.5l-0.2,0.5l-1,0.2l-0.2,0.6c-1.3,0.9-2.1,1.8-2.5,2.5l-0.5,0.2l-0.2,1
		c-0.6,0.8-1.3,1.4-1.9,1.6l-0.3,0.6h-1c0,0.4-0.2,1.1-0.5,2c-0.3,0.9-0.5,1.6-0.5,2.1h0.2c2.1,3.5,3.8,6.1,5.1,7.8l0.2,0.9
		c4.2,4.9,7.4,7.9,9.7,9.2c1.2,0.2,2,0.4,2.5,0.5c2,1.4,3.4,2.4,4.3,3.2c0.3,0.1,0.9,0.3,1.7,0.6c0.8,0.3,1.4,0.5,2,0.5l1.9,1.1
		l2.8-0.2c0.7-0.8,1.3-1.5,1.6-1.9l0.2-0.8l1.1-0.9v-0.8l0.9-0.9c0-0.4,0.2-1.1,0.7-2c0.5-0.9,0.7-1.6,0.6-2.1
		c0.7-0.3,1.1-1.1,1.1-2.4c0.7-0.3,1.1-1.3,1-2.8c0.8-0.6,1.2-1.5,1.1-2.5l1-0.9c0.2-1.3,0.8-3.9,1.7-7.9c0.8-3.2,1.3-5.8,1.3-7.9
		l0.2-0.3l0.2-1.6C559.3,150.7,559.3,148.2,557.8,144.2 M541.7,194.3l-1.1-0.9l-0.8-0.2c-2.7-1.4-4.9-2.2-6.5-2.5l-0.2-0.6
		c-0.4-0.4-2.4-1.6-5.9-3.5c-3.5-1.9-5.6-2.9-6.2-3c-2.1-1.5-3.8-2.5-5.1-3c-1.5-1.9-2.8-3.1-4-3.6c-0.7-1.6-1.6-2.8-2.7-3.6h-0.6
		l-1.1,1.3c-0.4,1.7-0.8,2.9-1.1,3.6c-0.8,0.7-1.5,2.4-2.1,4.9c-1,1.8-1.4,3.2-1.4,4.3c-0.8,2.7-1.2,4.9-1.1,6.5l-0.3,0.2
		c-0.1,1.7-0.4,3.7-0.8,6c-0.4,2.3-0.6,4-0.6,4.9c0,2.7,1.3,6,3.8,9.6l0.3,0.2c0.1,0.6,0.5,0.9,1.1,0.9l0.6,0.9l1.7,1.1
		c-0.7-0.1,3.5-0.5,12.7-1.1c0.8-0.8,1.6-1.2,2.4-1.1c0.9-0.8,1.7-1.5,2.2-1.9l0.8-0.5l0.2-0.6l0.9-0.2v-0.8l0.6-0.3
		c1.6-1.6,2.8-2.7,3.6-3.5v-0.6l1-0.5c1.8-2,3.4-3.6,4.9-4.9h0.5l0.2-0.9c0.5-0.2,0.9-0.6,1.1-1.1l0.8-0.5l0.2-0.9l1-0.9
		c0.4-1.1,0.8-1.8,1.1-2.4V194.3z M491.8,190.2l-0.5,0.2l-0.2,0.6l-0.9,0.5l-0.2,0.6l-0.9,0.3v0.8l-1,0.3c-1.5,1.5-2.6,2.6-3.3,3.5
		l-0.2,0.8h-0.5l-0.5,0.9l-0.6,0.2c-2.4,2.5-4.2,4.5-5.2,6c-3.5,2.2-6,4.1-7.4,5.7c-1.2,0.4-2,0.7-2.5,0.9c-0.5,0.2-1.6,0.7-3.2,1.7
		l-0.6,1.3c-1.9,1.6-5.7,2.1-11.4,1.4c-1.1-1.8-1.9-3.1-2.5-4l-0.6-0.2l-0.5-1.9l-3.5-5.2c-0.3-0.6-0.4-2.8-0.3-6.6l0.3-0.2l0.3-3
		l0.3-0.3c0.2-0.6,0.2-1.3,0-1.9l-0.3-0.2c0-3.2,0.2-6.3,0.5-9.3c0.7-2.8,1.1-5,1.1-6.5c0.6-0.6,0.9-3.5,0.9-8.5l-1.6-1.3l-1.7,1.1
		l-0.8,0.2l-0.2,0.5c-2.2,1.8-3.9,3-5.1,3.6l-0.3,0.6c-0.7,0.2-1.4,0.7-2.1,1.6v0.9c-2.3,1.6-4.1,3.1-5.2,4.4l-0.2,0.6l-0.9,0.5
		l-0.2,0.5l-0.9,0.5c-0.7,1.3-1.5,2.3-2.2,3.2h-0.6l-1.9,3.2l-0.6,0.2l-0.3,0.9l-0.5,0.2c-1.2,2.4-3.3,5-6.5,7.6
		c-0.1,0.7-0.5,1.4-1.1,2.1c-0.2,1.1-0.6,1.7-1.1,2.1l-0.3,1.9l-0.6,0.6c-1.7,4.2-3.1,6.9-4.1,8.1l-1.1,0.5l-5.5,0.2
		c-3.1,0.1-4.6-1.6-4.6-5.2c0-1.9,0.5-4.8,1.6-8.8c1.1-4,1.6-6.4,1.6-7.2l0.3-0.2v-8.1c0.3-0.5,1.2-4.5,2.5-12
		c1.4-7.5,2.1-11.8,2.1-13c0-1.6-0.4-2.4-1.1-2.5l-0.3,0.3c-2.2,0-4.1,1.5-5.7,4.6l-0.6,0.3l-0.2,0.8c-1,0.7-1.6,1.4-2.1,2.1
		c-2,2.5-3.9,4.4-5.7,5.5c-0.3,0.1-0.5,0.3-0.6,0.6l-0.9,0.5l-1.3,1.9l-0.6,0.2l-0.5,0.9c-1.6,1.9-2.6,3.4-3.2,4.6v0.8
		c-3.2,4.2-5.4,7.4-6.8,9.7l-0.6,0.2l-0.2,0.9l-0.9,1.3v0.8c-1,1.2-1.6,2.1-2.1,2.7l-0.5,1.6l-0.5,0.2l-0.2,0.9l-1,0.9
		c0,1.1-0.4,2.6-1.3,4.7c-0.9,2.1-1.3,3.6-1.3,4.7c-1.1,1.6-1.6,2.8-1.7,3.8v7l-1.1,1.4c-0.8,0-1.9-0.2-3.2-0.5
		c-1.6-0.3-2.6-0.5-3.2-0.6l-0.5-0.6c-2.2-1.1-4.1-1.6-5.5-1.6c-2.5-2.3-3.8-3.9-3.8-4.7c0-0.2,0.4-0.7,1.1-1.5
		c0.7-0.8,1.2-1.7,1.3-2.8l0.9-0.6l0.2-1.1l1-0.9l0.2-0.9c1.3-1.1,2-2.4,2.1-4.1c0.4-0.3,1.2-2.1,2.4-5.4c1.2-3.3,1.8-5.3,1.9-6
		l0.6-0.6c0.5-3.1,1-5.3,1.4-6.8c0.5-0.4,0.9-1.2,1.1-2.2c1.3-1.5,2-4.1,2.1-7.8c0.1-3.7,0.8-6.3,2.1-7.9c0.2-0.9,0.6-1.6,1.1-2.1
		c0.1-3.6,0.5-6.5,1.1-8.8c0.6-2.3,1-3.2,1.1-2.9h0.6l0.6-1.6c0.8-0.5,1.2-1.4,0.9-2.5c0.5-0.4,0.9-1.1,1.1-2.1
		c0.5-0.4,0.8-1.2,1-2.2c0.7-1.8,1.1-3.2,1.1-4.3c1-1.1,1.6-1.8,2.1-2.4l0.2-0.8l0.5-0.2c2.8-3.4,5-5.1,6.5-5.1c1.1,0,2.4,0.3,4,1
		l0.8,0.9c2.2,0.7,3.9,1.5,4.9,2.2l1.1,1.4c0,1.2-0.6,2.4-1.9,3.8l-0.8,0.2c-0.1,0.2-1,1-2.7,2.4c-1.2,0.9-1.7,2.7-1.7,5.2l-0.3,0.8
		l-0.8,0.2v0.8c-1.1,1.2-1.7,2.1-2.1,2.8l-0.5,1.6h-0.5l-0.2,1c-2,3-3.4,4.9-4.3,5.9l-2.2,6c-0.8,2.3-1.3,4.3-1.4,6
		c-1.2,1.7-2.1,3-2.7,3.8c-0.5,1.8-1.1,3.1-1.6,4l-0.5,0.3c0,0.6-0.3,1.6-0.8,3c-0.4,0.9-0.5,2.1-0.3,3.5l0.3-0.2l1.6-0.2l0.2-0.5
		c1.7-1.3,2.7-2.3,3.2-3.2V179c1.9-2.3,3.3-4.1,4.1-5.2l0.2-1.4c0.6-0.9,1-1.7,1.1-2.2c3.4-4.8,6.2-8.4,8.5-10.8h0.8l0.3-0.6
		l1.6-0.8c2.2-3.7,4.9-7.1,7.9-10.1c0.8-0.6,1.4-1.2,1.7-1.7c1.3-1.4,2.5-2.3,3.6-2.8c0.5-1.6,0.9-2.7,1.1-3.5
		c2.5-0.5,4.4-0.1,5.5,1.4l0.8,0.2c0.6,0.6,1.3,1,2.1,1.1c0.8,0.7,1.6,1.2,2.2,1.4l0.2,0.5c0.4,0,0.9,0.2,1.6,0.7
		c0.6,0.5,1.2,0.7,1.6,0.6v0.5c1.3,0.7,2.2,1.3,2.8,1.6l0.5,2.5c-0.2,0.2-0.3,2.2-0.3,5.9c0,1.1-0.6,3.6-1.7,7.8
		c-1.1,4.1-1.9,6.5-2.5,7.1l-0.2,0.8c-0.3,0.1-0.6,0.6-0.9,1.4c-0.3,0.8-0.6,1.3-0.9,1.3c-0.7,3.4-1.5,5.9-2.2,7.4l-1.1,1.3
		l-0.2,0.8c-2.6,2-3.2,4.9-1.7,8.5l2.1-2.1c1.2-1.4,1.8-2.5,2.1-3.5c1.1-1.3,1.9-2.2,2.5-2.8l0.5-0.2l0.2-0.9l0.5-0.2
		c1.8-1.7,3.5-3.4,5.2-5.1c2.5-2.4,3.8-4.2,3.8-5.4l1.1-1.7c0.9-0.7,1.6-1.4,2.1-1.9l0.6-0.2l1.3-1.6l0.3-0.2
		c0.8-1.1,1.6-1.7,2.2-2.1l0.8-1c1.1-0.4,1.8-0.8,2.2-1.1l1-0.2c1.1-0.8,1.8-1.5,2.4-1.9l0.5-0.2c0.7-1.3,1.8-2.4,3.3-3.5
		c1.7-1.9,3-2.9,3.8-3c3.2,1.3,5.6,2.2,7.3,2.7v0.3c1.4,1.1,2.4,1.9,3,2.5c0.8,1.2,1.7,2.3,2.5,3.5c0.3,0.5,0.3,2.5,0,6h-0.2
		c-0.3,7.2-2.1,14.9-5.4,23.1c0.4,2.5,0.8,4.4,1.1,5.7l0.3,0.2v1.9l-0.3,0.2v2.1l1.6,1.1l0.6,1.1c0.9,0.3,1.6,0.7,2.1,1.1
		c1.5,0.2,3.9-0.3,7.3-1.6l0.2-0.6c0.7-0.6,1.5-1.3,2.2-2.1l0.8-0.2l0.2-0.5c2.4-1.9,4.2-3.5,5.4-4.7l0.5-0.2c1.3-1.4,2.2-2.4,2.8-3
		l0.5-0.2c2.7-3.4,4.3-5.1,4.6-5.2l1.3-1.3V185h0.6c0.6-1.5,1.1-2.3,1.4-2.5l0.2-1.3c0.5-0.4,0.8-1.2,0.9-2.2c1.2-1.2,2.5-1.7,4-1.7
		c1.7,0,2.5,0.8,2.5,2.5c0,0.5-0.1,1.1-0.2,1.6C495.5,185,493.2,188,491.8,190.2 M364.2,186.7c-0.4,0.4-1,0.8-1.6,1.3l-0.5,0.8
		l-0.5,0.2c-3.3,2.4-5.8,4.2-7.6,5.2l-1.3,1.7c-1.2,0.6-2,1.2-2.5,1.6l-0.6,0.9l-2.1,1.3l-0.2,0.5c-0.7,0.4-1.4,0.9-2.1,1.6H345
		l-3.8,1.4v0.8h-1l-0.3,0.6c-1.4,0.8-2.5,1.6-3.5,2.4c-0.8,0.1-2.7,0.5-5.5,1.3c-2.2,0.6-4.1,0.9-5.5,0.9c-3.1,0-6.3-0.2-9.8-0.6
		l-0.2-0.3c-1.3,0.3-2.8,0.1-4.7-0.8c-2.3-0.9-3.9-1.4-4.7-1.4l-0.9-1.1h-0.8c-1.3-0.6-2.2-1.3-2.7-2.1l-1-0.2
		c-2.4-1.8-4.2-3.2-5.4-4.3c-0.1-1.1-0.4-1.7-0.9-2.1c-0.5-1.5-0.9-2.2-1.1-2.2c0-0.9-0.4-1.7-1.1-2.2c-0.3-1.2-0.7-1.8-1.1-2.1
		v-7.3l0.5-1.1c0.8-1.1,1.4-1.9,1.6-2.7c1.4-5.3,2.5-9.2,3.3-11.9l1.1-0.6c3.1-8,5.2-14.2,6.5-18.5c0.7-0.5,1.1-1.4,1.1-2.7l0.5-0.2
		l0.5-1.4c2.1-2.1,3.7-3.7,4.7-4.9c0.6-1.1,1.2-1.8,1.6-2.2l0.2-1.3c0.7-0.6,1.1-1.2,0.9-1.7h0.6c0.4-0.8,1.3-1.7,2.5-2.7l0.2-0.9
		c1.3-1.8,3.1-3.8,5.4-6h0.3l0.6-0.9c0.6,0,1-0.5,1.1-1.4c0.8-0.8,1.5-1.5,2.1-1.9c1.5-0.5,2.6-1,3.3-1.4c0.1,0,3.3,0.5,9.5,1.4
		c6.1,5,9.2,10.1,9.2,15.3c0,1.9-0.3,4-1,6.3l-0.6,0.6c-0.2,1.9-2,5.4-5.4,10.6l-0.2,1c-1.9,2.3-3.2,4.2-3.9,5.7
		c-0.7,1.5-1.3,2.5-1.8,3.2h-1.6c0,2.3-0.9,4.3-2.7,6c-1.8,1.7-3.6,3.3-5.4,4.9l-0.5,0.2l-0.2,0.6l-2.1,1.3v0.5l-0.9,0.5l-0.3,0.6
		c-2.8,2.5-4.7,3.8-5.7,3.8c-3.6,2.1-6.3,3.6-8.1,4.6l-0.2,1.4l-0.2-0.2v0.2l0.3,0.3v3c0.6,0.8,1,1.9,1.1,3.2l1.1,1.3v0.3
		c3,3.3,5.2,5.6,6.8,7.1c0.7,0.1,1.8,0.4,3.2,0.9c1.4,0.5,2.5,0.8,3.3,0.8c1.2,0,4.1-0.8,8.8-2.5c4.7-1.7,7.5-2.5,8.3-2.4
		c0.9-0.7,1.5-1.3,1.7-1.7l0.8-0.5c2.5-2.2,4.7-3.7,6.5-4.6l1.3-1.7c1.6-0.9,2.9-2,4-3.2l0.8-0.2c1.1-0.9,1.9-1.6,2.7-1.9
		c0.7-0.9,1.8-1.8,3.2-2.5l0.2-0.3c2.7-1.6,4.1-1.1,4.1,1.4C365.8,182.9,365.2,184,364.2,186.7 M339.6,129.1c-1.1-0.3-2.1-0.7-3-1.1
		c-0.9-0.3-2,0.1-3,1.1c-1.2,0-3,1.7-5.4,5.2l-0.9,0.6l-0.2,0.5h-0.9v0.3c-2.4,2.6-3.9,4.6-4.3,6c-0.8,0.9-1.4,1.7-1.6,2.2
		c-1.1,0.5-2,2.2-2.7,4.9c-1.6,2.1-2.6,3.7-3.2,4.9l-3.5,8.4h-0.8c0,2.8-0.4,4.7-1.1,5.5c-0.3,2.2-0.6,3.9-0.8,5.1h-0.2L308,176
		l1.1,0.5c4.5-0.1,7.1-1.5,7.6-4.3c2.2-1.5,3.4-2.3,3.5-2.4c3.7-1.1,5.8-3.5,6.3-7.4c2.7-2.4,4.7-4.3,6-5.5l0.2-2.7
		c0.5-0.4,0.8-1.2,0.9-2.2c0.7-0.6,1.1-1.4,1.1-2.4c1.3-1.5,2.2-2.6,2.7-3.5c0.2-1.6,0.4-2.8,0.6-3.6l0.9-1
		c0.9-4.4,1.5-7.9,1.7-10.3C340.3,130.2,340,129.5,339.6,129.1 M311.6,31.7l-0.5,0.2c-3.4,4.4-6,7.6-7.9,9.6l-0.2,0.8
		c-1.4,1.6-2.4,2.8-3,3.8v0.2L299,48l-0.2,0.8c-2.8,4.6-4.9,8.2-6.2,10.6c-0.2,1.8-1.3,3.6-3.3,5.4l-0.2,0.8
		c-0.3,0.4-0.7,1.6-1.1,3.6c-0.4,2-1.1,3.1-2.1,3.4c-1.7,1.7-2.7,3.7-3.2,6.2c-1.5,1.6-2.5,2.8-3,3.8c-0.4,2.3-0.8,4.1-1.3,5.2
		l-2.1,1.9c-0.2,3.8-1.4,7.3-3.6,10.4c-0.4,0.3-0.6,0.7-0.6,1.1c-1.4,2.7-2.3,4.9-2.7,6.3c-0.4,0-0.6,0.4-0.6,1.1
		c-0.7,0.6-1.4,1.7-2.1,3.3h-0.6c-1.3,2.2-2.1,4-2.5,5.2h-0.9l-0.2,1.9l-1,1.9c-0.5,2.1-1.1,3.7-1.6,4.7c-2.6,4.6-4.3,7.2-4.9,7.8
		c0,0.5-1.1,2.9-3.2,7.1c-2.2,4.5-3.5,7.4-3.8,8.7c-1.3,2.1-2.1,3.9-2.4,5.4l-0.3,0.2c-0.4,2.3-0.8,4-1.1,5.1
		c-1.1,1.5-1.7,2.6-2.1,3.5c-0.1,2.3-0.8,4.1-2.2,5.2l0.2,0.5c-1.3,3-2.7,7.1-4.3,12.5l0.2,0.8c-0.6,1.3-1,3.1-1.1,5.4
		c-0.1-0.4-0.2-0.4-0.3,0.2v10.6c1.3,3.7,3.3,5.1,6,4.3l0.6-0.9c0.7,0,1.1-0.2,0.9-0.6l2.1-1.6c-1.6,0-0.2-0.4,4.3-1.1l0.9-1.1
		c0.2-0.5,0.6-0.8,1.1-0.9l0.2-1.1c0.9,0,1.3-0.2,1.1-0.6l2.1-1.7l0.2-1.7c1.4-1.8,2.1-2.7,2.1-2.8c3.3-2.4,5.7-4.5,7.3-6.3
		c-0.2-0.4,0.2-0.6,1.1-0.6c2.5-3.4,4-5.2,4.3-5.4l0.5-4.1c-0.2-0.3-0.3-0.6-0.3-0.9l1.1-1.6c0.1-0.2,0.4-0.3,0.8-0.3
		c0.4-0.1,0.6,0,0.6,0.3l2.7,0.3l0.5,0.6l3.5,0.5c0.4,1.4-0.2,2.7-1.7,4l-1.1,2.2l-0.6,0.2l-1.4,2.2l-0.2,0.9l-1.1,1.1l-0.5,0.2
		c-1.1,1.7-2.6,3.1-4.6,4.1c-4.2,4.6-7.8,7.9-10.6,9.7l-0.3,0.6c-6.1,4.1-10.8,7.1-13.9,9l-0.3-0.2c-2,1.1-3.5,1.8-4.6,2.2l-4-1.1
		l-1.1,0.5c-2.2-0.5-3.9-1-4.9-1.4c0.2-0.4-0.1-1-0.9-1.7c-0.8-0.7-1.3-1.2-1.3-1.5l-0.9-0.6c-0.7-1.4-1.1-2.4-1.1-3.2
		c-1.6-1.8-2.6-3.7-3.2-5.7v-1.1c-0.7-0.8-1.1-2.5-1.1-4.9c0-6.2,1.1-10.9,3.2-13.9l0.2-0.8l0.9-0.9l0.2-2.1
		c0.9-1.6,1.6-2.8,1.9-3.6c0.4-2,0.8-3.5,1.1-4.4c1.2-2.6,1.7-4.7,1.6-6.3l0.2-0.3c0.1-0.5,0.4-1.4,0.9-2.6c0.5-1.2,0.7-2.2,0.7-2.9
		l1.1-2.4c2-6.1,3.1-10.4,3.2-12.8c2.7-6.1,4.2-9.2,4.3-9.3l0.5-0.2l0.5-1.6l2.2-2.7l0.2-2.1c2.8-7.1,5.1-13,6.8-17.7
		c4.8-7.3,8.7-12.8,11.6-16.5c0.3,0.2,0.6-0.2,0.8-1.1h0.5l1.6-2.7l0.9-0.6l2.2-3.2c0.1-4.1,0.5-6.4,1.1-6.8c0.6-3.1,1-4.6,1-4.7
		l-0.8-0.8c0.1,0.3-0.1,0.6-0.6,0.7c-0.5,0.2-0.8,0.3-0.8,0.6l-1.7,1.3c-1.5,1.9-2.6,3.3-3.5,4.1l-0.9,0.5c-0.6,1.5-1.6,2.7-2.8,3.6
		l-0.2,0.5l-1.3,1.3l-0.2,0.6c-2.8,3.1-5,5.4-6.3,7l-0.5,0.2c-1.9,1.9-2.9,3.1-3,3.5l-0.8,0.2l-0.9,1.4c-0.2,0.5-0.5,0.9-0.8,1.1
		c-2,2.7-4,5.2-5.9,7.3c-0.3-0.1-0.6,0.3-0.9,1.1c-1.9,1.5-3,2.3-3.2,2.4l-1.1,2.5c-4.1,4.4-7,6.8-8.7,7l-0.8,0.8l-0.5,3.3
		c-1.8,1.3-3,2.3-3.6,3.2h-0.8c0.3,1.8-0.6,3.4-2.8,4.7c-2.2,1.3-3.3,2.7-3.4,4c-0.3-0.4-0.6-0.1-0.8,1c-2.3,2.1-4.1,3.7-5.2,4.7
		c-2.1,2.8-3.2,4.3-3.3,4.4c-0.8,2.2-1.6,3.8-2.2,4.7c-1.4,1.7-2.5,2.8-3.3,3.3c-2.5,3.9-4.6,6.7-6.2,8.4c-1.9,2.5-3.2,4.6-3.8,6.3
		c-0.4,0-0.6,0.4-0.6,1.1c-2.2,1.7-5.4,7.1-9.6,16.1c-0.8,0.5-1.8,1.6-3,3.3l-0.2,1.3l-0.9,1.3c-0.8,2.2-1.6,3.8-2.2,4.7
		c-2.4,3.5-4.3,6.1-5.5,7.8c0,0.4-0.2,0.7-0.6,0.9c-1.8,3.3-3.1,5.7-3.8,7.4l-0.6,0.2c-0.5,1.4-1.3,2.8-2.2,4.3
		c-0.2,1.8-1.3,3.6-3.2,5.4v0.8c-1.2,1.7-1.8,3.1-2.1,4.1l-0.2,0.9c-2.4,2.7-4.2,5-5.4,6.8c-2.8,0-4.7-0.2-5.7-0.6
		c-0.5,0.3-4.2,0.2-11.1-0.5l-2.2-1.7c-0.4-3.4-0.6-5.6-0.5-6.6l1.4-1.3c0.4-2.2,0.8-3.9,1.1-5.1l0.6-0.6l0.5-3.8l1.6-2.2h0.5
		c2.1-8,3.7-14,4.7-18c0.4-0.2,0.7-0.5,0.8-0.9c1.3-1.7,2.3-2.9,3-3.6c0.1-0.7,0.5-1.9,1.2-3.4c0.7-1.5,1-2.8,1-3.7l1.1-2.1l0.5-0.2
		l0.6-1.1c1.5-0.8,2.8-1.9,4.1-3.3c0-3.5,0.7-6,2.1-7.6c0.7-4.7,1.3-8.3,1.6-10.8l0.3-0.2l0.3-2.7h0.6l1.6-2.4
		c1.1-5.1,1.8-9.6,2.2-13.6l0.9-1.4c0.4-3.2,0.8-5.5,1.1-7.1c0.7-0.5,1.1-1.6,1.1-3.3l3.2-4.3h0.6l1.4-2.4c0.5-2.5,0.9-4.4,1.1-5.7
		l0.6-0.6c0.6-5.2,1.5-8.2,2.5-9l0.2-0.8l1.9-1.9c2-5.2,3-10.8,3-16.9l-0.3-0.2c-0.1-2.3-0.2-4.6-0.3-6.8c-0.3-3.2-1-5.2-2.1-6
		l-2.2,0.5l-0.2,0.6l-7.1,4.4c-3,4.5-5.2,7.9-6.8,10.1c-2.5,2.2-4.3,3.6-5.2,4.1c-0.2,0.7-0.6,1.2-1.1,1.3c-2.4,1.5-4.2,2.7-5.2,3.6
		l-1.4,1.1c-3.1,3.8-5.5,6.3-7.3,7.6c-6.3,10.4-9.5,15.7-9.7,15.8h-0.5c-1.3,1.9-2.2,3-2.7,3.3l-1.1,1.9H121l-0.6,2.2
		c-0.7,0.2-1.1,0.6-0.9,1.1l-2.1,2.2l-0.5,1.6c-0.8,0.7-1.6,2-2.2,3.6c-1.6,1.2-3.6,3.7-6.2,7.5c-2.5,3.9-3.9,6.7-4,8.5l-0.6,0.2
		l-1.6,2.7c-0.8,2.6-1.7,4.5-2.5,5.7c-0.4,0.3-0.6,0.7-0.6,1.1l-2.2,2.7l-0.3,1.9l-2.2,3c-1.5,1.5-2.3,2.7-2.6,3.6
		c-0.3,0.9-0.9,2-1.9,3.4c-1,1.4-1.5,2.5-1.5,3.3c-0.8,0.4-1.3,1.7-1.3,4c0-0.8-0.7,0.3-2.1,3.5l-0.8,0.3l-1.1,1.6
		c-1.4,4.2-2.6,7.3-3.6,9.2h-0.6l-0.2,1.1h-0.5c-1.2,1.4-2.1,2.4-2.7,3.2l-0.6,0.2l-2.5,3.6c-0.7,5.7-2.2,9.6-4.3,11.7
		c-1.6,4.4-2.7,7.8-3.3,10.1c-1.5,2.2-2.5,4-3,5.2l-0.2,1.1l-1,1.3l-0.5,2.7c-0.8,0.1-1.1,0.6-0.6,1.4c-1.9,0.9-3.3,1.7-4.3,2.2
		c-1.2,0-3,0.2-5.5,0.6c-2.5,0.4-4.5,0.5-5.9,0.4l-0.5-0.5c-2.4-0.5-4.5-1.8-6.3-3.8c-0.3-3.2-0.1-6.7,0.6-10.6
		c0.9-5.4,1.5-8.9,1.6-10.4c1.4-3.3,2.4-5.2,3.2-5.7c0.4-3.7,0.8-6.4,1.1-8.2c1.1-2.4,1.7-4.3,2.1-5.7l1.1-1c0.5-2,0.9-3.5,1.1-4.4
		l1.1-1.9h0.2l0.8-2.2h0.6l1.6-3.3v-0.8c3-7,5.1-12.3,6.3-16.1h0.6c1.6-2.3,2.8-3.8,3.6-4.4c0.2-0.4,0.4-0.7,0.6-0.9
		c0.9-0.9,1.5-2.2,1.6-3.8l0.6-0.5c0.6-2.8,1.2-5,1.6-6.3l1-1.7c0.4,0,0.7-0.3,0.9-0.9c0.2-0.6,0.4-0.8,0.6-0.7
		c0.8-0.9,1.7-2.7,2.5-5.4c0.8-2.6,1.8-4.4,3.1-5.4c0.5-2,1-3.5,1.3-4.6c-0.1-1.6,0.9-3.6,3-6c0.2-1.5,0.7-2.8,1.4-4.1
		c0.7-0.6,1.1-1.8,1.1-3.5l0.9-1.1c0.8-1.9,1.6-3.2,2.4-4l0.5-0.2c4.5-8.4,6.9-12.8,7-13l0.5-0.6l1.1-6c1.3-4.6,2.8-8,4.7-10v-2.7
		c-3-4.4-2.6-7.3,0.9-8.7l1.3-3.6c1.4-1.2,2.4-2.1,3-2.7c-0.1-0.4,0.2-0.7,0.8-0.9l0.8-1.9l-0.3-0.5l-0.2-2.2
		c-3.1-3.5-3.3-8-0.6-13.6c-0.4-1.4-0.5-3.4-0.2-6.2c0.5-3.7,0.8-5.8,0.8-6.3l-0.3-0.2v-1.1c-0.7-0.3-1-0.8-0.6-1.4l-3.2-3.8
		c0-1-0.2-1.3-0.6-1.1l-0.6-1c-0.9-0.1-1.3-0.5-1.1-1.1c-1.1-0.3-2.2-0.5-3.3-0.5c-3.8,0-8.3,1.6-13.4,4.7l-0.3,0.6
		c-5.4,3.1-9.3,5.7-11.7,7.9c-2,1.2-3.4,2.3-4.1,3.3c0.1,0.4-0.2,0.7-0.9,1l-1.4,2.1h-0.5c-0.8,2-2,3.3-3.5,3.8
		c-0.5,1.4-1.6,2.8-3.3,4.3l-1.6,3.6l-0.5,0.2c-5.1,5.2-7.8,8.3-8.1,9.5l-0.6,0.2l-1.1,3c-1.4,1.9-2.4,3.4-3,4.4
		c-3.5,7.7-6.4,13.4-8.7,17.1c-1.9,3.9-3.1,7.8-3.6,11.5c-1.7,2.6-3.5,7.6-5.4,14.9c-2,7.9-3,14.5-3,19.6c0,3.3,0.5,5.6,1.4,7
		c5,0.4,8.1,0.5,9.5,0.3c4.2-3.9,7.5-6.7,9.8-8.5c0.5-0.1,0.8-0.3,0.9-0.6c2.1-1.2,3.7-2,4.7-2.5c1.6-2.4,2.8-4.2,3.8-5.2l0.6-1.9
		l1.1-0.5c2-3.3,3.9-5.9,5.7-7.8v-1.3l0.6-0.6l1.6-7l3-3l0.2-0.5l2.1-1.7c1.3-2.1,2-4.4,2.2-6.8c0.8-0.7,1.4-2.1,1.7-4.1l-0.3-0.8
		l0.8-3.3l3.2-3.8l0.6-2.4c-0.4-1.7-0.6-3.1-0.6-4.1l0.6-1.3c-1.7-5.7-3-10.2-3.8-13.6v-3.6l1.9-0.8c2.2,0.2,3.7,1,4.6,2.4l3,1.3
		c0.1,0.4,0.8,1.1,2.2,1.9c1.4,0.8,2.1,1.9,2.1,3.2c0,2.8-0.6,6.4-1.7,10.8c-1.7,5.8-2.6,9.3-2.8,10.4c-3.8,6.3-5.8,9.7-6,10.1
		c-1.8,6.2-3.6,10.4-5.4,12.7l-0.6,0.2l-2.5,2.8l-0.2,0.9c-2.8,4.1-5.2,7.4-7.1,9.8l-0.6,0.2l-1.6,3.2h-0.3c-3.3,3.6-5,5.6-5.2,6
		c-1.6,0.6-2.7,1.7-3.3,3.2c-2.8,2.2-5,4-6.3,5.2v0.5c-0.8,0.2-1.2,0.5-1.1,0.8c-5.4,3.9-9.9,5.9-13.6,6l-0.3,0.3l-3,0.5L21,144
		c-0.3,0.8-2.8,1.9-7.4,3.2c-4.1-2.7-6.6-4.5-7.4-5.4v-0.5c-0.4-1-0.5-4-0.3-9c-0.4-0.8-0.6-1.6-0.6-2.2V123c1.9-3.2,3-7.4,3.2-12.7
		l2.1-2.8c0.2-4.7,1.9-7.5,5.2-8.4l1.1-1.3c0-2,1.1-4.4,3.3-7.1l0.5-0.2c1.3-2.1,2.2-3.7,2.8-4.9c1.2-1.8,1.8-3.4,1.9-4.7l1.3-3.5
		l0.9-1l0.2-0.8l0.9-0.8c-0.1-0.9,0.3-2.1,1.1-3.5l0.6-0.2l1.9-3.2c0.4-0.1,0.7-0.4,0.8-1c1.9-2.4,3.3-4.4,4.1-5.9v-0.8l1.1-1.6
		l0.9-0.5c3.8-6.7,5.6-10.6,5.5-11.6c1.9-1.8,3.3-3.1,4.3-4c2.4-0.3,4.5-1.7,6.3-4.1v-1.1l0.9-1.1l0.2-0.8l0.9-0.9l1.1-2.5l2.2-2.2
		l0.6-0.2c1.7-2.8,2.5-4.3,2.5-4.4l1.1-1.4c0.6-2.8,1.9-5.6,4-8.2c2.4-1.9,4.2-3.4,5.2-4.6c0.1-1.1,0.5-1.3,1.3-0.8L78,8.3
		c0.4-0.1,0.7-0.3,0.9-0.6C82.4,6.6,84.5,6,85.1,6c0.8-1.1,3.7-1.3,8.7-0.8l4.3,2.1v0.5l2.4,1.4l1.7,0.2l3-2.1l2.2-0.5l1.6,0.5
		l1.9,2.1c0.1,0.5,0.3,0.9,0.6,1.1c7.7,7,11.5,16.1,11.5,27.4l-0.5,0.5l-0.8,3.3l-0.2,0.2c-1.5,13.5-2.9,21.3-4.3,23.3v6.2
		c-1.8,4.9-3.2,8.8-4.3,11.9l-0.5,2.1l-0.6,0.5c-0.5,2.5-1,4.4-1.4,5.5l-0.8,0.6c0,0.7-0.4,1.8-1.1,3.3c-0.7,1.5-1.1,2.6-1.1,3.5
		c-1.2,2.3-2.2,5-3,7.9l-1.1,1.3c-1.8,4.6-3.3,7.9-4.6,9.7l-0.2,1.9l-0.9,1.3c0.1,0.6-0.2,1.1-0.8,1.4c-0.1,1.7-1,3.9-2.6,6.7
		c-1.6,2.8-2.6,5-2.8,6.6c-1.2,2.1-1.9,3.8-2.2,5.1l-0.8,0.5c-1.4,2.1-2.1,3.5-2.2,4.1c-1.4,1.2-2.2,2.2-2.5,3.2l-0.6,0.2
		c-0.8,1.4-1.4,2.7-1.6,4.1L81,153l-1.1,3.6c-1.1,1.5-1.7,2.6-2.1,3.5c0,1.6-0.7,3.5-2.1,5.9c-1.6,2.6-2.5,4.5-2.7,5.7l-0.6,0.2
		c-0.6,0.8-1.1,2.2-1.4,4.1c-1.3,0.7-1.9,2.8-1.9,6.3l-0.5,0.2c-2.2,3.2-3.8,5.6-4.7,7.3l-0.2,1.1l-1.4,2.2l-0.5,0.2l-3.3,6.3
		c-0.1,0.4-0.3,0.8-0.5,1.1l-1.6,2.2c-0.1,0.8-0.5,2.2-1.2,4c-0.7,1.8-1,3.2-1,4.3l-1.1,1.4c-0.3,1.8-1,3.3-2.1,4.6
		c-1.5,7.3-2.2,11-2.2,11.2c0.9,0,1.9-0.6,2.8-1.7c0.9-1.2,1.6-1.8,2.1-2.1l1.6-1.6c0.1-0.5,0.3-0.8,0.6-0.9l0.5-1.7
		c1.3-1.2,1.9-2.5,2.1-4l1.1-0.8c0.5-2.8,1.2-4.6,2.1-5.4l0.2-2.1l2.1-3.8l1.1-0.6v-0.8c1.2-1.6,1.8-2.9,2.1-4l0.2-1.1l1-0.9v-1.1
		c0.6-1.2,1.6-2.1,2.8-2.8l0.3-1.6l1.1-0.8c1.4-2.4,2.1-5,2.2-7.6c1.6-3.3,3.7-6,6.3-8.2l1.1-2.8c0.6-0.4,2.3-3.7,5.1-10
		c2.8-6.6,5.4-10.9,7.6-12.8c1.5-2.5,2.2-4.6,2.2-6.2h0.6c1.4-2.5,2.6-4.3,3.6-5.4c0-0.9,0.2-1.3,0.6-1.1c0.7-1.1,1.6-2.2,2.7-3.3
		c-0.1-0.2-0.1-0.4,0-0.6c0.2-0.3,0.4-0.4,0.5-0.2l1.7-3.2c0.7-0.3,1.1-0.8,0.9-1.4l1.1-1.7l0.5-0.2c1.6-2.8,2.8-5,3.8-6.3l0.5-0.2
		l0.2-2.1h1.3l0.2-1.1h0.6l1.6-1.9l-0.2-0.2l1.1-1.6l0.2-0.8c2-2.1,3.1-3.9,3.2-5.4l1-2.1c2.5-2.7,4.3-4.9,5.4-6.5l1.1-2.8l2.1-2.1
		l0.2-0.5c1.5-1.7,2.5-3,3.2-4h0.5c0.8-1.4,1.7-2.5,2.7-3.5c0.9-2.5,1.7-4.2,2.2-5.1c0.4-0.2,0.7-0.4,0.9-0.6
		c1.5-1.4,2.6-2.5,3.3-3.3l2.7-1.4l2.5-4.3h0.3l1-1.4c2.1-1.3,3.3-1.9,3.6-1.9c2-1.1,3.6-2.5,4.7-4.3l0.5,0.2c4.6-1.1,7.5-3,8.7-5.7
		l3.6-8.2c0.8,0,1.9,0.2,3.3,0.6c1.4,0.4,2.4,0.6,3,0.6c5,2.4,10,6,15,10.6c-0.2,0.4,0.1,1.1,0.8,1.9c0.9,1.2,1.4,1.9,1.4,2.2
		l0.6,0.3c0.2,0.2,0.3,0.7,0.3,1.4c0,3.2-1,8.8-2.9,16.8c-2,8.1-3.4,12.6-4.4,13.7c-0.8,4.2-1.6,7.4-2.4,9.5c-1.1,2-1.7,3.5-2.1,4.6
		l-0.3,0.2c-0.5,2.6-1.1,4.6-1.6,5.9l-0.5,0.2l-0.2,2.1l-1.3,1.3c-0.6,3.2-1.2,5.5-1.6,7c-3.4,6.4-5.5,11.5-6.5,15.3l-0.9,0.8v1.3
		c-2.4,2.1-4.4,7-5.9,14.6l-0.5,0.6c-0.2,1.8-1.5,6.3-3.9,13.5c-2.4,7.2-4,11.5-4.8,12.7c-0.4,0.3-0.2,0.5,0.8,0.6l2.1-0.3l1.6-2.1
		c2.6-1.2,4.4-3.7,5.2-7.6l1.1-0.9l0.9-0.2l2.2-2.5l0.2-0.9l0.9-0.8l4.6-11.5c0.4-0.3,0.7-0.7,0.8-1.1l3-3.8l0.2-0.9l1.1-1.7h0.2
		l2.5-2.2c1.3-3.3,2.8-5.8,4.7-7.6c0.1-0.5,0.3-0.8,0.6-0.9c0.6-1.1,1.6-2.4,3-4.1l0.5-0.2c1.9-3.1,3.7-5.2,5.4-6.5
		c0.5-4.3,1.3-7.1,2.4-8.4l0.5-0.2l0.6-1.6l1.9-1.6l0.2-2.1l1.9-0.2l2.4-1.9l0.6-0.2l2.4-3.2l0.2-0.9l3.3-3.2l0.8-0.2
		c0.9-0.6,1.7-1.9,2.4-3.8c5.6-4.6,8.4-7.6,8.4-8.9l2.2-2.2l0.9-0.2l1.1-1.1l0.2-0.5l3.2-3.6c0.5-0.1,0.9-0.3,1.1-0.6l0.9-0.6l1.1-4
		c3-2.8,5.1-5.1,6.3-6.6c0.2-0.4,0.4-0.7,0.6-0.9c2.3-2.8,4.1-5,5.2-6.5h0.8l1.1-1h0.2l0.8-0.8l1.9-0.5l1.1-1.1
		c0.2-0.4,0.5-0.7,0.8-1c1.2-1.6,2-2.8,2.5-3.6v-0.8c1.2-1.6,2.7-3.1,4.7-4.4c1.2-0.8,2.5-3.3,4.1-7.3c1.5-3.7,3.5-6.2,6-7.6
		c0-1.1,0.2-1.3,0.6-0.8c0.3-1.6,1.6-3.1,3.8-4.4v-0.5c6.3-5.1,10.6-8.8,12.8-11.1h0.8c4.3-2.4,7.3-4.6,8.9-6.5
		c0.5-0.1,0.8-0.3,0.9-0.6c2.5-1.3,5.1-1.7,7.8-1.4c0.1,0.3,0.5,0.4,1.1,0.3l0.9,0.8h0.8l2.2,2.5l0.2,0.8l0.8,1l0.2,1
		c1,1.2,1.4,3,1.4,5.4C314.1,28.6,312.5,30.3,311.6,31.7 M155.8,191.3h-1.1c-0.6,2-1.1,3.5-1.4,4.6l0.3,1.1h0.8
		c1.5-1.7,2.2-2.9,2.2-3.6L155.8,191.3z"/>
	<path class="st0" d="M608,323h-22.6c-8.5,0-15.4-7.1-15.4-15.4v-40.8c0-8.5,6.9-15.4,15.4-15.4H608v3.2h-22.6
		c-6.9,0-12.4,5.5-12.4,12.2V295l26.4-7.2v3.3l-26.4,7.1v9.4c0,6.8,5.6,12.4,12.4,12.4H608V323z M580.4,307.5v-3.7l26.5-6.9v-18.7
		l-26.5,7.1v-18.4c0-2.7,2.2-4.9,4.9-4.9h30V244h-30c-12.8,0-22.9,10.2-22.9,22.8v40.8c0,12.7,10.2,22.9,22.9,22.9h30.1v-18.1h-30.1
		C582.6,312.3,580.4,310.1,580.4,307.5 M541.9,323h-3v-56c0-6.8-5.5-12.4-12-12.4h-28.9V323h-3v-71.4h32c8.2,0,15,6.9,15,15.4V323z
		 M526.9,244h-39.6v86.4h18V262h21.6c2.6,0,4.6,2.3,4.6,4.9v63.5h18v-63.5C549.5,254.4,539.1,244,526.9,244 M467,323.1h-3.2v-34.3
		l-40.8,10.9v23.3h-3.2v-56.2c0-8.4,6.9-15.4,15.4-15.4h16.3c8.5,0,15.4,7.1,15.4,15.4V323.1z M451.6,244h-16.3
		c-12.7,0-22.9,10.2-22.9,22.9v63.5h18.1v-24.9l25.8-7.1v32h18.1v-63.5C474.5,254.3,464.2,244,451.6,244 M456.3,279.9l-25.8,6.9
		v-19.9c0-2.6,2.2-4.8,4.8-4.8h16.3c2.6,0,4.8,2.2,4.8,4.8V279.9z M451.6,254.6h-16.3c-6.8,0-12.2,5.6-12.2,12.4v29.5l40.8-10.8
		v-18.7C463.8,260.2,458.3,254.6,451.6,254.6 M371.5,323.1c-8.5,0-15.6-7.1-15.6-15.4v-55.9h3.3v55.9c0,6.8,5.5,12.2,12.2,12.2h22.6
		v3.2H371.5z M401.5,312.4h-30c-2.7,0-4.9-2.2-4.9-4.8V244h-18v63.6c0,12.5,10.4,22.8,22.9,22.8h30.1L401.5,312.4z"/>
</g>
</svg>
